<svg width="111" height="126" viewBox="0 0 111 126" fill="none" xmlns="http://www.w3.org/2000/svg">
<g clip-path="url(#clip0_0_1309)">
<path d="M5 116C5 116 48 116 56 66" stroke="black" stroke-width="2.5" stroke-linecap="round"/>
<path d="M9.31258 108.196L1.94719 115.857L11.5206 124.91" stroke="black" stroke-width="2.5" stroke-linecap="round"/>
<path d="M56.3945 25.2589L58.772 25.8078L62.2947 10.5491L59.1573 9.82479L51.3761 20.3235L51.3566 20.319L48.8874 7.4538L45.8279 6.74746L42.3051 22.0061L44.6631 22.5505L47.2186 11.4816L47.2575 11.4906L49.6324 23.6977L51.4058 24.1071L58.9245 14.1226L58.9635 14.1316L56.3945 25.2589ZM69.5241 17.1034C68.0041 16.7524 66.5769 16.9772 65.2667 17.7626C63.9564 18.5479 63.1138 19.7081 62.7629 21.2282C62.412 22.7482 62.6412 24.1558 63.4746 25.4361C64.3079 26.7164 65.4921 27.544 67.0121 27.8949C68.5516 28.2503 69.9593 28.0211 71.25 27.2312C72.5648 26.4263 73.3879 25.2616 73.7433 23.7221C74.0942 22.2021 73.8605 20.814 73.0272 19.5337C72.1938 18.2534 71.0246 17.4498 69.5241 17.1034ZM66.5377 19.6365C67.2708 19.1284 68.1028 18.9921 69.0187 19.2035C69.9346 19.415 70.6226 19.9022 71.0393 20.6758C71.4754 21.4538 71.5878 22.3008 71.3763 23.2167C71.1649 24.1326 70.6926 24.8446 69.979 25.3573C69.2654 25.8699 68.4334 26.0062 67.5175 25.7947C66.6016 25.5833 65.9181 25.0765 65.4819 24.2985C65.0503 23.5009 64.9379 22.654 65.1494 21.7381C65.3608 20.8221 65.8286 20.1296 66.5377 19.6365ZM78.2835 30.4971C79.4527 30.767 80.4751 30.6952 81.3356 30.2575C82.1961 29.8199 82.7463 29.1259 82.9667 28.171C83.3402 26.5535 82.3539 25.1353 80.1174 24.0648C78.8403 23.462 78.3366 22.9763 78.4941 22.2942C78.6246 21.7291 79.4686 21.4518 80.1896 21.6183C81.1835 21.8478 81.7965 22.4819 82.0483 23.5253L84.075 22.9259C83.7139 21.2004 82.5882 20.1195 80.7174 19.6876C79.7041 19.4536 78.7597 19.5435 77.8602 19.9721C76.9607 20.4008 76.415 21.0753 76.1991 22.0107C76.0281 22.7512 76.1375 23.4333 76.5032 24.0719C76.9288 24.8065 77.7113 25.4182 78.8071 25.9175C80.1622 26.5382 80.7752 27.1724 80.6357 27.7765C80.4738 28.478 79.6103 28.7508 78.7334 28.5483C77.6226 28.2919 76.9346 27.5378 76.6259 26.2965L74.5796 26.8915C74.9782 28.8103 76.2178 30.0202 78.2835 30.4971ZM92.1741 24.7546L92.6555 22.6695L90.1026 22.0801L90.8449 18.8647L88.5259 18.3293L87.7836 21.5447L85.8738 21.1038L85.3924 23.1889L87.3022 23.6298L86.155 28.5991C85.6331 30.8597 86.6793 32.3738 88.9593 32.9002C89.4075 33.0037 89.8542 33.0247 90.256 32.9738L90.7104 31.0056C90.4436 31.0055 90.1857 30.9665 89.9519 30.9125C88.7631 30.6381 88.2715 30.0115 88.5594 28.7643L89.6212 24.1652L92.1741 24.7546ZM37.4975 35.4697C37.7989 34.164 37.6117 32.9303 36.9267 31.8074C36.2612 30.689 35.0246 29.9109 33.2512 29.5015L27.8532 28.2553L24.3305 43.5139L26.7274 44.0673L28.0321 38.4159L30.7409 39.0413C32.5142 39.4507 33.9863 39.298 35.1916 38.6115C36.4014 37.9056 37.1781 36.8533 37.4975 35.4697ZM32.524 31.6736C33.6542 31.9345 34.3947 32.3723 34.7454 32.987C35.1157 33.6061 35.21 34.2642 35.0481 34.9658C34.7241 36.3689 33.4513 37.3476 31.3272 36.8572L28.5405 36.2139L29.7373 31.0302L32.524 31.6736ZM44.1084 36.8933C42.5884 36.5424 41.1613 36.7671 39.851 37.5525C38.5407 38.3379 37.6982 39.4981 37.3472 41.0181C36.9963 42.5381 37.2255 43.9457 38.0589 45.226C38.8923 46.5063 40.0764 47.3339 41.5965 47.6848C43.136 48.0402 44.5436 47.811 45.8344 47.0211C47.1491 46.2163 47.9722 45.0516 48.3276 43.5121C48.6786 41.992 48.4448 40.6039 47.6115 39.3236C46.7781 38.0433 45.6089 37.2397 44.1084 36.8933ZM41.122 39.4264C41.8551 38.9183 42.6871 38.782 43.603 38.9934C44.5189 39.2049 45.207 39.6922 45.6236 40.4657C46.0598 41.2438 46.1721 42.0907 45.9607 43.0067C45.7492 43.9226 45.2769 44.6346 44.5633 45.1472C43.8497 45.6598 43.0177 45.7961 42.1018 45.5847C41.1859 45.3732 40.5024 44.8665 40.0663 44.0884C39.6346 43.2909 39.5222 42.4439 39.7337 41.528C39.9452 40.6121 40.4129 39.9196 41.122 39.4264ZM61.6017 46.5971C61.9211 45.2135 61.7413 43.8584 61.0384 42.5466C60.355 41.2394 59.2532 40.4103 57.7332 40.0594C57.1486 39.9244 56.4935 39.9168 55.744 40.0517C54.9944 40.1865 54.3648 40.5133 53.8266 41.0664L54.2 39.4489L51.9394 38.927L48.3537 54.4585L50.6727 54.9939L52.2069 48.3487C52.4467 48.9993 52.8589 49.5255 53.4734 49.9753C54.0925 50.4056 54.6651 50.6814 55.1913 50.8029C56.6918 51.1493 58.041 50.9066 59.2628 50.0598C60.4846 49.2129 61.2642 48.0587 61.6017 46.5971ZM54.42 42.4965C55.1531 41.9884 55.9851 41.8521 56.901 42.0635C57.8169 42.275 58.505 42.7622 58.9216 43.5358C59.3578 44.3139 59.4701 45.1608 59.2587 46.0767C59.0472 46.9926 58.575 47.7047 57.8419 48.2128C57.1328 48.7059 56.3008 48.8422 55.3849 48.6308C54.469 48.4193 53.7809 47.9321 53.3403 47.1735C52.9236 46.3999 52.8113 45.553 53.0227 44.6371C53.2342 43.7211 53.7064 43.0091 54.42 42.4965ZM65.0869 41.9623L63.6112 48.3542C63.0353 50.8486 64.0185 52.9024 66.5324 53.4828C67.8575 53.7887 69.0358 53.486 70.0823 52.5987L69.7583 54.0018L72.0189 54.5237L74.4213 44.1174L72.1023 43.582L70.7661 49.3698C70.4017 50.9482 69.2234 51.7846 67.7618 51.4472C66.2223 51.0918 65.7008 49.8835 66.0607 48.3245L67.4059 42.4977L65.0869 41.9623ZM75.1332 55.2427L77.4522 55.778L81.1144 39.9153L78.7954 39.3799L75.1332 55.2427ZM88.1292 50.8126C87.9943 51.3972 87.5955 51.613 86.9524 51.4646L85.6663 51.1676C83.8344 50.7447 81.1646 50.9289 80.6067 53.3453L80.5797 53.4622C80.3728 54.3586 80.5331 55.1756 81.0652 55.8937C81.5973 56.6118 82.3678 57.0976 83.3811 57.3316C84.7842 57.6555 85.919 57.3633 86.8095 56.4399L86.4811 57.8625L88.7611 58.3889L90.2908 51.7632C90.4573 51.0422 90.4843 50.3916 90.3719 49.8114C90.0573 48.2404 88.9136 47.2374 86.9649 46.7875C84.8407 46.2971 83.1572 46.8321 81.9293 48.4165L83.4687 49.8393C84.2514 48.8499 85.2543 48.5068 86.443 48.7812C87.7486 49.0826 88.3272 49.9551 88.1292 50.8126ZM87.4529 53.6532C87.093 55.2122 85.8547 55.9527 84.2762 55.5882C83.2823 55.3588 82.7502 54.6407 82.9482 53.7832C83.0517 53.335 83.347 53.0337 83.8147 52.8749C84.302 52.7205 84.8011 52.6921 85.2883 52.8046L87.5294 53.322L87.4529 53.6532ZM99.8678 49.9511C99.7404 49.8806 99.5695 49.8207 99.3162 49.7622C98.0495 49.4697 96.9596 49.8339 96.0466 50.8547L96.429 49.1983L94.1685 48.6764L91.766 59.0826L94.085 59.618L95.3042 54.3369C95.7226 52.5246 96.8965 51.7077 98.6698 52.1171C98.9232 52.1756 99.133 52.2446 99.3189 52.3286L99.8678 49.9511Z" fill="black"/>
</g>
<defs>
<clipPath id="clip0_0_1309">
<rect width="111" height="125" fill="white" transform="translate(0 0.350586)"/>
</clipPath>
</defs>
</svg>
