<svg width="65" height="66" viewBox="0 0 65 66" fill="none" xmlns="http://www.w3.org/2000/svg">
<path fill-rule="evenodd" clip-rule="evenodd" d="M24.002 32.0029C24.1203 32.0922 24.1727 32.1319 24.2524 32.1915C24.0282 32.4146 23.8087 32.6331 23.5866 32.8545C23.6612 32.9078 23.7168 32.9476 23.7875 32.9979C23.5625 33.215 23.346 33.4239 23.1188 33.6429C23.1845 33.6923 23.2373 33.7317 23.2961 33.7757C23.18 33.9284 23.0755 34.1013 22.9419 34.2296C22.8487 34.3189 22.7121 34.3404 22.601 34.4035C22.4827 34.4707 22.6863 34.6993 22.5663 34.8444C22.4518 34.9823 22.3146 35.0895 22.1427 35.2077C22.2451 35.2874 22.2948 35.3266 22.3793 35.3927C22.1544 35.6165 21.9359 35.8341 21.7146 36.0545C21.7854 36.1036 21.8428 36.1429 21.8995 36.1823C21.6364 36.4729 21.374 36.7633 21.0944 37.0727C21.1907 37.1438 21.2443 37.1835 21.2987 37.2236C21.0403 37.5205 20.78 37.8193 20.5081 38.1321C20.6171 38.2161 20.668 38.2554 20.7082 38.2861C20.4422 38.5876 20.1828 38.8818 19.9125 39.1879C20.0125 39.2564 20.0697 39.2959 20.1249 39.3338C19.8619 39.6258 19.6003 39.9172 19.3219 40.2268C19.4182 40.2971 19.4725 40.3365 19.536 40.3829C19.2751 40.6686 19.0142 40.954 18.7429 41.2514C18.8297 41.3446 18.8861 41.4052 18.9804 41.5067C18.7078 41.6499 18.3908 41.7071 18.3133 42.1193C18.3625 42.1531 18.4199 42.1928 18.4881 42.2399C18.2585 42.4326 18.0318 42.6239 17.7877 42.8291C17.894 42.9439 17.9502 43.0049 18.0534 43.1166C17.6122 43.2319 17.3334 43.5582 17.1501 44.0175C17.2068 44.0576 17.2629 44.0972 17.3432 44.1534C17.2935 44.2001 17.2635 44.2682 17.2167 44.2664C16.9512 44.2546 16.819 44.3914 16.7646 44.7485C16.7587 44.7873 16.7166 44.8134 16.6825 44.8181C16.6316 44.8245 16.5372 44.772 16.5235 44.8053C16.4618 44.959 16.4214 45.1571 16.2296 45.0769C16.0306 44.9938 15.8483 44.762 15.6406 44.6708C15.5937 44.6503 15.5452 44.4833 15.5113 44.4126C15.3163 44.3941 15.1514 44.3784 14.9037 44.3549C15.1164 44.0212 15.2783 43.7674 15.4583 43.4856C15.224 43.4278 15.1708 43.5634 15.1053 43.7306C15.0601 43.8455 14.8981 43.8475 14.7954 43.8966C14.5323 43.4794 14.7398 43.3438 14.8265 43.2178C15.4107 42.3706 15.8659 41.3803 16.3531 40.4271C16.8767 39.4026 17.3127 38.2809 17.8676 37.2935C18.2379 36.6341 18.5555 35.9177 18.9405 35.2798C19.3749 34.5606 19.7345 33.7565 20.1947 33.0703C20.4918 32.6268 20.7108 32.0983 21.0151 31.6584C21.3038 31.2412 21.5752 30.7854 21.8251 30.3213C22.0954 29.8185 22.3818 29.3358 22.6804 28.8692C23.2382 27.9969 23.7808 27.1062 24.3491 26.2454C24.7228 25.6797 25.0736 25.0783 25.4346 24.4934C25.9619 23.6393 26.5332 22.8397 27.049 21.9699C27.4969 21.2146 28.048 20.5805 28.5192 19.8507C28.9107 19.2449 29.3299 18.6754 29.7347 18.0872C30.4612 17.0303 31.1869 15.9724 31.9268 14.9323C32.4021 14.2645 32.9048 13.628 33.355 12.9293C34.0281 11.8853 34.8016 10.9727 35.5011 9.96643C35.9189 9.36451 36.3377 8.76674 36.7808 8.19706C37.3231 7.50072 37.7986 6.71429 38.3569 6.04057C39.1912 5.03301 39.9553 3.9356 40.7483 2.87506C41.345 2.07736 41.9841 1.33466 42.4753 0.402776C42.543 0.274656 42.6907 0.235258 42.7914 0.162057C43.1443 0.589022 42.6786 0.656892 42.8888 1.04878C42.9505 0.959404 42.9924 0.868622 43.0567 0.813907C43.1245 0.756135 43.2136 0.733174 43.3454 0.670044C43.387 0.866828 43.4157 1.00158 43.4445 1.13727C43.5521 1.17795 43.6749 1.09837 43.7856 1.37326C43.8411 1.51062 43.7196 1.7405 43.9721 1.79864C43.9729 1.82115 43.9792 1.84874 43.9733 1.86491C43.9307 1.97824 43.8947 2.09959 43.8395 2.19886C43.5553 2.71074 43.3082 3.27274 42.9679 3.71047C42.5023 4.30994 42.1141 5.00177 41.664 5.61737C40.9879 6.54172 40.3082 7.46115 39.6411 8.3967C39.2181 8.98981 38.8146 9.60773 38.4 10.2179C38.4692 10.2657 38.5267 10.3057 38.5842 10.3457C38.5811 10.3708 38.5856 10.4077 38.5738 10.4161C38.553 10.4314 37.9771 10.8926 37.9443 10.9326C37.7535 11.1644 37.562 11.3957 37.3608 11.6392C37.4645 11.7148 37.519 11.7545 37.6561 11.8542C37.5314 11.8755 37.4717 11.8932 37.4076 11.8943C37.3372 11.8957 37.227 11.8369 37.196 11.882C36.9903 12.1786 36.8013 12.4961 36.606 12.8092C36.6768 12.8611 36.7306 12.9004 36.8695 13.0024C36.742 13.022 36.6816 13.0379 36.6174 13.0391C36.5472 13.0407 36.4381 12.9835 36.4069 13.0287C36.2016 13.3251 36.0126 13.6418 35.8171 13.954C35.8886 14.007 35.9424 14.0467 36.0828 14.1504C35.9522 14.1683 35.8917 14.1828 35.8273 14.1838C35.7572 14.185 35.6491 14.1305 35.6177 14.1758C35.4127 14.4714 35.224 14.7876 35.0285 15.0994C35.1009 15.1533 35.1538 15.1927 35.2964 15.2986C35.1628 15.3151 35.0991 15.354 35.0378 15.3232C34.9243 15.2664 34.8743 15.2756 34.808 15.3795C34.4397 15.9566 34.0506 16.5081 33.6612 17.0788C33.7347 17.1312 33.7903 17.1707 33.8492 17.2126C33.8623 17.5658 33.4051 17.0295 33.4249 17.4823C33.4328 17.6635 33.2077 17.7544 33.0726 17.9046C33.1646 17.9739 33.217 18.0131 33.2676 18.0512C33.2639 18.0878 33.2648 18.1324 33.2533 18.1657C33.2488 18.1791 32.8056 18.3724 32.794 18.3892C32.5144 18.7972 32.2348 19.2048 31.95 19.6206C32.0355 19.6799 32.093 19.7199 32.1519 19.7606C31.7738 19.9488 31.6304 20.0878 31.4097 20.4816C31.4684 20.5222 31.5256 20.562 31.5823 20.6009C31.5701 20.6374 31.5676 20.7061 31.543 20.7102C30.9541 20.8051 30.7868 21.5164 30.41 21.9202C30.2115 22.1331 30.0878 22.4548 29.9299 22.7278C29.9971 22.7769 30.0511 22.8165 30.1081 22.8582C30.0846 22.9004 30.0744 22.9605 30.0466 22.9626C29.5916 22.9979 29.3755 23.4398 29.1738 23.8197C28.9139 24.3097 28.514 24.6303 28.3465 25.2281C28.3855 25.2566 28.4403 25.2961 28.5488 25.3747L27.8613 25.7039C27.9038 25.8331 27.9286 25.9088 27.9604 26.0048C27.9519 26.2977 27.4447 26.0185 27.6308 26.6193C27.5372 26.6641 27.4215 26.7055 27.3204 26.7736C27.2698 26.808 27.2002 26.9086 27.2181 26.9492C27.2964 27.1267 27.2534 27.1691 27.1668 27.2352C27.0465 27.3263 26.7361 27.2188 26.9154 27.6687C26.925 27.693 26.8488 27.7464 26.8084 27.7795C26.6858 27.8804 26.4031 27.8044 26.575 28.228C26.441 28.3164 26.3069 28.4045 26.1769 28.49C26.185 28.6072 26.2344 28.7833 26.193 28.8271C26.0926 28.934 25.9503 28.9803 25.8248 29.0506C25.9996 29.4939 25.6793 29.4137 25.5736 29.5315C25.5793 29.5858 25.5756 29.6161 25.5847 29.6272C25.6007 29.6466 25.6252 29.6521 25.645 29.6683C25.6779 29.6951 25.7095 29.7258 25.7924 29.8004L25.1593 30.1036C25.2774 30.1934 25.3291 30.2323 25.3832 30.2736C25.4372 30.5851 25.0228 30.316 25.1066 30.6935C25.19 31.0698 24.8757 30.9244 24.7713 31.0592C24.6606 31.2027 24.5511 31.348 24.425 31.5136C24.4215 31.485 24.4188 31.5151 24.4279 31.5259C24.4441 31.5452 24.4684 31.5508 24.4879 31.5668C24.5203 31.5935 24.5519 31.6245 24.6344 31.7L24.002 32.0029Z" fill="black"/>
<path fill-rule="evenodd" clip-rule="evenodd" d="M55.2942 43.5827C57.2853 43.1716 56.8363 42.9806 56.893 43.2209C57.0553 43.2335 57.2192 43.2462 57.4623 43.2652C57.3921 43.4993 57.3479 43.6472 57.303 43.7964C57.3426 43.8246 57.3981 43.8641 57.4539 43.9039C57.4441 43.9396 57.4449 44.0057 57.4214 44.0138C56.8392 44.2134 56.4487 44.7664 55.864 44.9725C55.2777 45.1794 54.6931 45.4179 54.1917 45.7882C53.7831 46.0894 53.3502 46.3295 52.9133 46.5704C52.7784 46.6445 52.577 46.5144 52.4792 46.7424C52.4061 46.9132 52.1679 46.9186 52.0029 46.9976L51.4593 47.2579C51.2945 47.3369 51.1295 47.4149 50.9652 47.4949C50.8014 47.5741 50.6381 47.6548 50.4769 47.7394C50.465 47.7454 50.4699 47.7849 50.4598 47.8707C50.6295 47.8281 50.7726 47.7919 50.9158 47.7554C50.931 47.7889 50.9461 47.8222 50.9613 47.8553C50.7927 47.9445 50.6253 48.0363 50.455 48.1214C50.2753 48.2117 50.0935 48.297 49.9111 48.3815C49.8801 48.396 49.8355 48.4205 49.8085 48.3986C49.4409 48.0994 49.2582 48.2456 49.1101 48.56C49.0544 48.6778 48.889 48.6807 48.7737 48.7359C47.2249 49.4777 45.6742 50.2154 44.1303 50.9668C43.9622 51.0487 43.7047 51.0109 43.6975 51.357C43.6969 51.3724 43.6635 51.3888 43.6506 51.3795C43.3879 51.188 43.4139 51.6491 43.2379 51.5655C43.0107 51.458 42.9293 51.5346 42.8638 51.7433C42.8441 51.8072 42.6988 51.7794 42.6061 51.7576C42.4764 51.7269 42.4324 51.6196 42.4752 51.4865C42.4428 51.4626 42.4051 51.4194 42.3794 51.4197C42.3446 51.4206 42.293 51.4453 42.2949 51.4768C42.3005 51.5719 42.3517 51.6895 42.342 51.7712C42.3293 51.88 42.2999 52.0127 42.2342 52.0459C42.1211 52.1029 41.9085 52.0203 41.8566 52.124C41.7731 52.291 41.6836 52.318 41.5114 52.2964C41.3941 52.2818 41.3276 52.4843 41.2148 52.5418C40.7605 52.7742 40.297 52.9874 39.8477 53.2026C39.7467 53.1081 39.6614 53.0283 39.5764 52.949C39.5544 53.0612 39.5327 53.1737 39.4917 53.3836C39.336 53.5525 38.8639 53.4229 38.9154 54.0463C38.8071 53.9718 38.7067 53.9028 38.6174 53.8414C38.3091 54.2012 37.9428 54.4072 37.4674 54.3841C37.2131 54.8556 36.6897 54.8016 36.3417 55.0882C36.2814 54.9404 36.2241 54.7677 36.2088 54.7673C36.016 54.7594 36.1467 54.9691 36.1747 55.1383L35.6511 55.3891C35.679 55.5154 35.7011 55.6156 35.7248 55.7218C35.6931 55.7148 35.6571 55.7215 35.6312 55.698C35.429 55.5169 35.2241 55.501 35.1457 55.6627C34.9626 56.0421 34.5971 56.0627 34.3094 56.2332C34.0616 56.38 33.7926 56.4863 33.5822 56.7261C33.7528 56.6754 33.9234 56.6249 34.0938 56.5739C33.7556 56.7975 33.5249 57.3045 33.0058 56.9163C32.8365 57.0505 32.7136 57.184 32.563 57.2614C32.095 57.5013 31.6165 57.7203 31.1522 57.9427C31.1866 58.0894 31.2098 58.1895 31.245 58.339C31.0741 58.1873 30.9348 58.0637 30.7956 57.94C30.8646 58.1701 30.893 58.4296 30.6781 58.3439C30.4508 58.2533 30.4185 58.4056 30.3023 58.5143C30.0898 58.7129 29.7954 58.7846 29.5759 59.0139C29.7132 58.9854 29.8505 58.957 29.9951 58.9275C29.9989 58.9879 30.0156 59.0573 30.0019 59.0642C29.6421 59.2432 29.2908 59.4428 28.9126 59.5807C28.6336 59.6823 28.2861 59.6172 28.0428 59.8167C28.0034 59.8493 27.9692 59.8907 27.9665 60.0003C28.1092 59.9591 28.2518 59.9175 28.3946 59.8759C28.0134 60.1411 27.6938 60.513 27.1604 60.4688C26.9243 60.4492 26.7367 60.6495 26.554 60.839C26.6617 60.8307 26.7695 60.8223 26.8809 60.8137C26.8843 60.8624 26.9019 60.9321 26.8882 60.9389C26.7266 61.0231 26.5603 61.0974 26.3952 61.1744C26.1492 60.8876 26.2514 61.4396 26.0136 61.2875C25.8589 61.1888 25.8353 61.6065 25.5359 61.4346C25.373 61.3416 25.1843 61.5727 25.0487 61.7619C25.1907 61.7322 25.333 61.7031 25.484 61.6716C25.479 61.7352 25.4892 61.8011 25.4712 61.8104C25.2269 61.9344 24.9702 62.0342 24.7335 62.1729C24.2715 62.443 23.7819 62.6736 23.3799 63.04C23.163 63.2374 22.9222 63.3721 22.6946 63.5402C22.4992 63.6841 22.3469 63.9041 22.478 64.3934C22.3922 64.4344 22.2273 64.5792 22.1804 64.5246C21.9757 64.2856 21.7388 64.3639 21.5758 64.1521C21.4219 63.9517 21.3114 63.9202 21.1448 63.8726C20.8087 63.7764 20.5663 63.4006 20.4988 62.9534C20.3818 62.8757 20.2635 62.7976 20.1478 62.7208C20.1237 62.663 20.0811 62.6 20.0837 62.5618C20.11 62.1425 20.2454 61.8694 20.5129 61.6702C20.9511 61.3439 21.3118 60.8837 21.8248 60.683C21.9777 60.2734 22.3717 60.2885 22.6468 60.0941C22.8622 59.9424 23.0549 59.7495 23.2769 59.6108C23.4938 59.4749 23.8062 59.4709 23.949 59.253C24.1547 58.9398 24.4489 58.8261 24.7457 58.7254C25.1274 58.5961 25.3498 58.2071 25.71 58.0511C26.0786 57.8908 26.5008 57.8029 26.7851 57.5126C27.3337 56.9523 28.1177 56.873 28.7006 56.4109C29.4233 55.8379 30.328 55.6251 31.0502 55.0801C32.0227 54.3456 33.1752 53.9977 34.2124 53.4081C34.3394 53.3359 34.4764 53.283 34.6068 53.217C34.7167 53.1616 34.8618 53.1519 34.8426 52.9215C35.0194 53.1398 35.0171 52.8077 35.1767 52.8772C35.2745 52.9198 35.359 52.6942 35.4669 52.6197C35.5877 52.5369 35.728 52.489 35.8598 52.4259L36.2057 52.2602L36.6012 52.0708L36.9966 51.8815L37.3426 51.7158C37.4744 51.6526 37.5998 51.5739 37.7396 51.5302C37.9049 51.4788 38.0184 51.3235 38.2613 51.4197C38.3783 51.466 38.4673 51.1922 38.5983 51.1221C39.0015 50.9075 39.4245 50.7324 39.8279 50.5181C39.9782 50.4387 40.2076 50.4756 40.2137 50.1528C40.2175 49.941 40.5061 50.3794 40.5134 50.0617C40.5155 49.9615 40.7145 49.8497 40.7643 49.8972C41.0458 50.1653 40.9484 49.6004 41.1399 49.7568C41.4112 49.9779 41.3339 49.6019 41.4475 49.5609C41.5117 49.5375 41.5866 49.5386 41.6565 49.528C41.779 49.5101 42.0033 49.5438 42.0062 49.4647C42.0178 49.1417 42.2971 49.319 42.398 49.149C42.5022 48.9724 42.7342 48.9425 42.9141 48.8564C46.1427 47.3091 49.3757 45.7702 52.597 44.207C53.0265 43.9985 53.5528 43.9561 53.82 43.4404C54.1828 43.6333 54.2414 43.1982 54.4716 43.1069C55.1848 42.8241 55.8625 42.4622 56.6015 42.1083C56.6349 42.2418 56.7036 42.4239 56.6804 42.4396C56.3557 42.657 56.0901 42.97 55.7209 43.1211C54.9769 43.4261 54.265 43.8022 53.5419 44.1531C53.5159 44.1659 53.513 44.2268 53.4991 44.2654C53.5446 44.2756 53.5933 44.2973 53.6347 44.2944C53.7383 44.2867 53.901 44.4212 53.9092 44.1749C53.9111 44.111 54.0313 44.1069 54.0971 44.0754C55.0514 43.6184 56.0055 43.1614 55.2942 43.5827C53.5908 44.4456 53.5793 44.417 53.568 44.3886C53.3838 44.397 53.192 44.384 53.0183 44.4218C52.9264 44.4419 52.417 44.7211 52.334 44.7404C52.2631 44.7567 52.1462 44.7663 52.1429 44.8287C52.1259 45.1381 51.9064 45.1186 51.7529 45.1928C49.4152 46.3198 47.0749 47.4414 44.7302 48.5534C44.5927 48.6189 44.4911 48.809 44.263 48.6529C44.2195 48.6231 44.1238 48.6443 44.1204 48.6815C44.0932 49.0094 43.8323 48.9521 43.6758 49.0619C43.3552 49.2865 42.9261 49.3052 42.6948 49.7101C42.6294 49.8244 42.4338 49.7985 42.2909 49.8138C42.0156 49.8433 41.7535 49.8953 41.6058 50.1757C41.5541 50.2736 41.3482 50.0978 41.3834 50.3406C41.1365 50.15 40.9436 50.2923 40.8774 50.4359C40.767 50.676 40.4963 50.451 40.3952 50.6366C40.3771 50.6695 40.3326 50.6831 40.3304 50.7222C40.3194 50.9079 40.245 50.9024 40.0952 50.8622C39.95 50.8234 39.7767 50.8758 39.6979 50.9909C39.5958 51.1404 39.455 51.2853 39.3297 51.3024C39.135 51.3291 39.0272 51.4708 38.8775 51.5538C37.705 52.2012 36.4199 52.6143 35.3245 53.4268C34.5068 54.033 33.4795 54.2337 32.6661 54.8815C31.926 55.4702 30.9589 55.6383 30.2129 56.2537C29.6249 56.7391 28.823 56.8343 28.2538 57.3898C27.9898 57.6474 27.5883 57.6905 27.281 57.8894C26.9992 58.0722 26.6534 58.1034 26.4203 58.4269C26.2029 58.7284 25.7889 58.7771 25.4642 58.9425C25.4141 58.9682 25.3777 59.0219 25.335 59.0628C25.4531 59.1371 25.5158 59.1106 25.5752 59.0779C26.1404 58.7682 26.7382 58.5346 27.254 58.1128C27.8734 57.6064 28.6953 57.4798 29.3147 56.9344C29.8895 56.4283 30.7457 56.4232 31.2589 55.7771C31.3311 55.6862 31.5767 55.9932 31.5324 55.6619C31.7626 55.8676 31.7321 55.5466 31.834 55.4936C32.6323 55.0785 33.5218 54.8428 34.1992 54.188C34.29 54.1002 34.4376 53.9933 34.5437 54.0561C34.7842 54.1985 34.6961 53.8386 34.8524 53.8527C34.9822 53.8644 35.086 53.7559 35.2013 53.7007C35.8608 53.3849 36.5243 53.0776 37.1765 52.7477C37.3443 52.6628 37.5916 52.6942 37.623 52.3692C37.6266 52.333 37.7593 52.3817 37.8266 52.3741C37.9158 52.3641 38.0725 52.3714 38.0727 52.3122C38.0737 52.0784 38.2075 52.2181 38.2953 52.1999C38.3826 52.1817 38.4016 51.9882 38.4869 51.9474C38.6245 51.8815 38.7334 51.696 38.9575 51.8821C38.9676 51.6577 39.1174 51.6331 39.2417 51.5757C39.3678 51.5174 39.4756 51.3845 39.6684 51.5581C39.6511 51.2941 39.8266 51.297 39.9511 51.2366C40.7734 50.8379 41.6132 50.4751 42.4182 50.042C43.2103 49.6155 44.1315 49.44 44.7793 48.7297C44.9501 48.8323 45.04 48.69 45.1577 48.6509C45.3098 48.6009 45.4123 48.4357 45.5579 48.3649C45.7265 48.2831 45.8675 48.1033 46.1225 48.2616C46.1502 47.9053 46.4302 47.95 46.6139 47.8606C48.7838 46.8069 50.9618 45.7695 53.1367 44.7257C53.2955 44.6496 53.4473 44.5583 55.2942 43.5827Z" fill="black"/>
<path fill-rule="evenodd" clip-rule="evenodd" d="M28.227 43.3705C28.2552 43.6497 28.2675 43.7683 28.2831 43.922L28.7558 43.6956C28.7489 43.6715 28.7421 43.6473 28.7351 43.6235C28.6802 43.6266 28.624 43.6261 28.5706 43.6334C28.5187 43.6403 28.47 43.6555 28.4072 43.6701C28.3699 43.573 28.3062 43.462 28.3202 43.4349C28.3888 43.2983 28.4602 43.1557 28.5629 43.0675C28.7931 42.8696 29.0463 42.7089 29.2823 42.5203C29.3994 42.4262 29.4991 42.3028 29.602 42.1976C29.9135 42.4709 29.5751 42.4923 29.6497 42.6838C30.0855 42.7147 30.1636 42.1214 30.536 42.0454C30.2731 42.063 29.9943 42.0452 29.8411 42.3733C29.831 42.275 29.7902 42.1455 29.8171 42.0854C29.8721 41.9623 29.9572 41.8674 30.0423 41.7788C30.1815 41.6343 30.4516 41.7179 30.5116 41.4298C30.5586 41.205 30.8322 41.315 30.869 41.0205C30.8874 40.8723 31.1338 40.8693 31.2947 40.7923C31.3707 41.2903 31.0698 41.223 30.9191 41.362C30.7832 41.4873 30.6721 41.652 30.6034 41.8851C30.9378 41.663 31.3119 41.499 31.5953 41.2018C31.8643 40.9192 32.0919 40.5748 32.3881 40.307C32.1469 40.3979 31.9054 40.4889 31.6643 40.5798L31.6191 40.4853C32.0486 40.1301 32.4784 39.7747 32.908 39.4198C32.9331 39.4577 32.958 39.4961 32.9829 39.5342C32.7997 39.7373 32.6167 39.9407 32.434 40.1436C32.6659 40.0828 32.9693 40.1644 33.0367 39.7913C33.4956 39.6074 33.7496 39.0364 34.3121 39.0224L34.5604 39.5407C34.5068 39.6374 34.3269 39.4903 34.3271 39.714C34.327 39.82 34.0886 39.7114 34.1692 39.9768C34.1911 40.0486 34.1528 40.1968 34.1317 40.19C33.783 40.0805 33.6813 40.4726 33.4224 40.5361C33.3415 40.5558 33.2423 40.5269 33.1325 40.5191C33.1729 40.638 33.2234 40.7872 33.2741 40.9371C33.0471 40.8203 33.0611 41.3041 32.7854 41.0557C32.8133 41.1782 32.8362 41.2781 32.8671 41.4138C32.6419 41.3996 32.3797 41.28 32.2631 41.5568C32.317 41.5978 32.3689 41.6373 32.4985 41.736C32.1605 41.8184 31.8683 41.8901 31.5663 41.964C31.537 42.2109 31.5094 42.4405 31.4881 42.6203C31.3311 42.692 31.1285 42.4354 31.0827 42.748C31.047 42.9923 30.888 43.1723 30.7432 43.3204C30.6503 43.4156 30.4899 43.4231 30.3482 43.4284C30.2476 43.4319 30.2485 43.6066 30.0709 43.513C29.8849 43.4152 30.0502 43.7276 30.0321 43.8397C30.0149 43.944 29.9774 44.0732 29.9087 44.0969C29.6328 44.191 29.4911 44.5263 29.1887 44.5649C29.173 44.5668 29.1484 44.5413 29.1282 44.5284C29.0658 45.1159 28.5577 45.1151 28.3679 45.5065C28.2095 45.8332 27.7869 45.7105 27.7278 46.1466C27.1339 46.7262 26.4709 47.2035 25.9835 47.9414C25.5252 48.0642 25.3497 48.6239 24.9774 48.8929C24.6337 49.142 24.3107 49.4761 24.062 49.8556C23.6117 50.542 22.9352 50.9096 22.5619 51.6911C22.3047 51.721 22.2656 51.9871 22.2153 52.2715C22.1874 52.4288 22.0409 52.5021 21.9634 52.5945C21.623 52.4321 21.3298 52.1376 21.0325 52.1294C20.9511 51.8514 20.8686 51.5708 20.7706 51.2373C21.1829 50.694 21.5674 50.048 22.1024 49.5947C22.35 49.3847 22.497 49.0127 22.7419 48.798C23.0466 48.5307 23.3011 48.1854 23.6161 47.9462C23.9526 47.69 24.2124 47.3292 24.5131 47.0276C24.6985 46.8413 24.8912 46.6428 25.0864 46.4863C25.4173 46.2216 25.6496 45.8187 25.9988 45.5839C26.2089 45.4428 26.3528 45.1842 26.537 44.9936C26.6625 44.8632 26.9048 44.9336 26.9569 44.6676C27.001 44.4414 27.328 44.5852 27.292 44.2443C27.6052 44.189 27.7784 43.8911 28.0141 43.7018C28.0755 43.6527 28.1092 43.5578 28.227 43.3705Z" fill="black"/>
</svg>
