<svg width="129" height="147" viewBox="0 0 129 147" fill="none" xmlns="http://www.w3.org/2000/svg">
<path fill-rule="evenodd" clip-rule="evenodd" d="M88.1653 119.382C82.0316 126.303 75.1526 132.399 68.0484 138.222C67.498 137.912 68.116 137.683 67.9675 137.394C67.674 137.15 67.0847 137.857 66.8463 137.024C66.6269 136.258 66.9946 135.825 67.4107 135.388C69.6008 133.087 72.3311 131.38 74.372 128.882C75.0704 128.028 75.5805 126.889 76.8633 126.422C77.653 126.134 77.8119 124.915 78.6072 124.297C79.1051 123.91 79.4916 123.285 80.0477 122.846C82.2628 121.101 83.8637 118.885 84.8586 116.244C85.0376 115.768 85.3598 115.38 85.8168 115.487C87.063 115.776 88.4269 115.593 89.348 116.998C90.0164 118.019 89.9077 118.751 89.4056 119.631C88.1953 121.75 86.4674 123.443 84.7619 125.14C82.7671 127.126 80.6168 128.95 78.555 130.862C75.7819 133.433 72.8225 135.77 69.9532 138.218C69.6803 138.451 69.334 138.99 68.9726 138.615C68.7006 138.333 69.1675 137.957 69.4287 137.723C71.076 136.244 72.7894 134.848 74.5292 133.475C76.1966 132.16 77.7076 130.634 79.2101 129.124C81.6384 126.683 84.2092 124.384 86.5042 121.811C87.1583 121.077 87.8111 120.331 88.1653 119.382Z" fill="black"/>
<path fill-rule="evenodd" clip-rule="evenodd" d="M103.716 86.5887C104.628 86.1867 104.919 87.2705 105.105 87.5246C105.609 88.2119 106.757 87.9498 106.844 88.627C106.976 89.6524 107.584 90.6533 106.913 91.7998C105.616 94.0178 104.018 96.0046 102.482 98.0421C101.368 99.5191 100.281 101.021 98.8969 102.273C98.2795 102.831 97.6185 103.292 96.7869 103.433C95.9339 103.578 95.2604 103.424 94.6966 102.602C94.2793 101.994 93.6628 101.502 93.3076 100.824C92.9692 100.178 92.7356 99.5347 93.4873 98.9799C94.0149 98.5909 94.1173 97.9231 94.4674 97.4121C95.8744 95.3589 96.8329 92.9987 98.6771 91.2458C100.045 89.9455 101.196 88.4603 102.374 86.9963C102.711 86.577 103.069 86.0569 103.716 86.5887Z" fill="black"/>
<path fill-rule="evenodd" clip-rule="evenodd" d="M51.8736 90.8976C52.1566 90.5471 52.3387 90.3219 52.5146 90.1043C52.43 89.8993 52.2825 89.9685 52.1433 89.9701C51.8576 89.9739 51.6302 90.4581 51.3631 90.1687C51.0398 89.8186 51.6191 89.6583 51.6671 89.3591C51.2679 89.146 51.0137 89.6416 50.6625 89.5632C50.3461 88.5911 50.8072 88.0003 51.5074 87.3919C53.4099 85.7388 55.1584 83.9341 56.5751 81.826C57.1098 81.03 58.3472 80.9026 58.6414 79.8912C59.0148 78.6082 59.9171 77.6493 60.8411 76.9081C62.4368 75.6279 63.189 73.82 64.3487 72.2745C64.675 71.8397 64.5675 71.1676 65.1559 70.8972C65.346 70.8098 65.669 70.5813 65.704 70.8563C65.8251 71.7964 66.6128 71.5701 67.1367 71.861C68.1089 72.4011 68.0402 73.4781 67.9012 74.4043C67.6818 75.8638 66.9059 77.1243 65.9926 78.233C62.4968 82.4785 58.6949 86.4313 54.3826 89.8617C53.7257 90.3844 53.074 91.0865 51.8736 90.8976Z" fill="black"/>
<path fill-rule="evenodd" clip-rule="evenodd" d="M61.3081 114.002C61.7512 113.315 62.1954 112.59 62.6745 111.888C65.7095 107.438 69.1939 103.355 72.842 99.4031C74.2406 97.8881 75.7614 96.4821 76.9663 94.7884C77.3112 94.3031 77.7854 93.9743 78.2746 94.7199C78.3899 94.8958 78.5984 95.0172 78.7798 95.142C79.9867 95.9712 80.2338 97.1328 79.4438 98.4077C78.634 99.7158 77.5074 100.75 76.4043 101.793C71.7377 106.206 67.2375 110.77 63.3584 115.911C62.8667 116.562 62.7813 116.539 62.4114 115.843C62.3712 115.768 62.2685 115.693 62.1844 115.679C61.1933 115.506 61.2954 114.773 61.3081 114.002Z" fill="black"/>
<path fill-rule="evenodd" clip-rule="evenodd" d="M108.682 67.5865C110.152 65.6431 112.049 64.3622 113.422 62.6135C114.811 60.8459 116.36 59.1983 117.467 57.2111C116.232 58.7111 115.001 60.2147 113.762 61.7114C112.339 63.4283 110.713 64.9419 109.101 66.4776C108.293 67.248 107.674 67.032 107.178 66.3555C106.693 65.6944 106.788 64.8254 107.526 64.3996C109.028 63.5322 110.101 62.1967 110.932 60.8254C112.38 58.4372 114.348 56.3915 115.472 53.7935C115.731 53.1947 116.325 52.784 116.603 52.1144C116.917 51.361 117.137 50.7026 116.944 49.8707C116.833 49.3876 116.428 48.6827 117.047 48.3426C117.553 48.0642 118.218 47.9388 118.795 48.4706C119.015 48.6733 119.412 48.6854 119.729 48.7822C121.583 49.3467 122.361 50.8619 121.576 52.6746C120.524 55.1053 118.939 57.2178 117.309 59.2864C115.173 61.9973 112.938 64.6182 110.26 66.8249C109.865 67.1504 109.505 67.5306 108.682 67.5865Z" fill="black"/>
<path fill-rule="evenodd" clip-rule="evenodd" d="M64.0569 30.0464C66.5896 30.7305 67.0559 32.0447 65.6354 33.9162C64.5247 35.3797 63.0214 36.4284 61.5569 37.49C58.1385 39.9677 54.6394 42.3264 51.0076 44.4893C50.1193 45.0185 49.2051 45.048 48.2658 45.0809C47.938 45.0921 47.2136 45.0934 47.31 44.8363C47.5083 44.3108 47.0979 43.6752 47.7404 43.2282C50.6098 41.2323 53.2935 38.9917 56.0329 36.8244C57.2406 35.8687 58.5247 35.0065 59.7056 34.0199C60.504 33.3524 61.3332 32.6222 61.0435 31.3578C61.0087 31.2068 61.138 30.8697 61.2058 30.8659C62.296 30.8002 63.1865 29.8965 64.0569 30.0464Z" fill="black"/>
<path fill-rule="evenodd" clip-rule="evenodd" d="M22.7793 80.4887C21.0862 81.602 19.8001 83.1631 18.1275 84.2721C17.6349 84.5986 17.0824 84.8485 16.6348 85.226C15.8959 85.8498 15.5036 85.1183 15.2155 84.7823C14.9357 84.4565 14.9208 83.8697 15.4261 83.4536C17.4894 81.7543 19.3124 79.7775 20.9529 77.7083C22.1222 76.233 23.7126 75.0926 24.4831 73.2178C24.7752 72.5082 25.5048 71.7944 26.004 71.0459C26.6714 70.0452 27.1924 71.1613 27.7719 71.3597C27.8633 71.391 27.8724 71.6869 27.9581 71.7082C28.3229 71.8005 28.7847 70.9324 29.0385 71.6885C29.3827 72.7146 29.7792 73.7018 29.03 74.8815C27.8402 76.7539 26.3599 78.334 24.7957 79.8549C22.6749 81.9169 20.6447 84.0957 18.0198 85.5628C17.8263 85.6709 17.6416 85.7969 17.4408 85.8894C17.2338 85.9849 16.9739 86.0443 16.8388 85.8224C16.667 85.54 16.8608 85.306 17.1073 85.1944C19.2605 84.2217 20.6989 82.372 22.4257 80.8773C22.5568 80.7636 22.662 80.6188 22.7793 80.4887Z" fill="black"/>
<path fill-rule="evenodd" clip-rule="evenodd" d="M76.0679 55.84C75.3857 56.2079 74.6481 56.5017 74.0361 56.9624C73.322 57.4997 72.6898 57.4902 72.0198 56.9931C71.6217 56.6969 71.8416 56.2551 71.9644 55.9687C72.2808 55.2317 72.8928 54.7626 73.7071 54.6881C73.9017 54.6704 74.1325 54.8761 74.2179 54.5555C74.6334 52.9891 76.2296 52.5235 77.1555 51.4276C77.4396 51.0918 77.8748 50.8172 78.218 50.4866C79.2201 49.5214 80.1226 48.423 81.711 48.3762C82.081 48.3654 82.7061 48.2043 82.6605 47.6342C82.5212 45.8954 83.9173 45.1331 84.8637 44.125C86.4189 42.469 88.2105 41.045 89.703 39.3214C89.8714 39.1271 90.0236 38.8274 90.3146 38.9883C90.678 39.1897 90.0693 39.3971 90.285 39.6731C90.8396 39.5447 91.4528 38.9609 91.9089 39.9657C92.0716 40.3244 92.5595 39.9227 92.8168 39.6571C93.0125 39.4553 93.2175 39.2709 93.4687 39.5251C93.7724 39.8328 93.4028 39.9702 93.2558 40.1384C90.5763 43.2061 87.5554 45.9172 84.4668 48.5576C81.7468 50.8832 79.0271 53.2093 76.3076 55.5342C76.2284 55.6356 76.1482 55.7376 76.0679 55.84Z" fill="black"/>
<path fill-rule="evenodd" clip-rule="evenodd" d="M53.7683 63.3027C52.0714 64.8375 50.366 66.3675 48.557 67.7792C50.3857 67.0452 52.9315 64.887 53.7683 63.3027ZM52.1745 59.8553C52.577 59.8465 51.2775 60.8889 52.5083 60.3648C52.5412 60.3507 52.6037 60.3324 52.6134 60.3451C53.1443 61.0452 53.7425 61.1742 54.5265 60.7025C54.7322 60.5788 55.6064 62.3135 55.5224 62.7343C55.3954 63.3693 55.0792 63.9181 54.6581 64.3911C52.2811 67.0623 49.4133 69.0425 46.1022 70.3795C44.4802 71.0348 43.0941 70.5445 41.8839 69.4087C41.2341 68.7985 41.3687 68.3106 42.1628 67.8708C42.9985 67.4083 43.8122 66.8984 44.5959 66.3522C45.5003 65.722 46.3143 64.9822 47.2771 64.41C48.5416 63.6589 49.2698 62.3082 50.3147 61.294C50.8922 60.7344 51.4246 60.1522 52.1745 59.8553Z" fill="black"/>
<path fill-rule="evenodd" clip-rule="evenodd" d="M21.2292 49.575C21.5313 49.0786 21.7132 48.7801 21.9904 48.3249C21.6998 48.4467 21.5379 48.4638 21.4666 48.5533C20.8875 49.2779 20.2847 48.8888 19.8361 48.484C19.3559 48.0508 19.3834 47.3705 19.7542 46.8769C20.3591 46.0713 21.0185 45.2896 21.752 44.601C22.7641 43.6507 23.8587 42.7636 24.6736 41.648C25.525 40.483 26.5974 39.4149 26.6932 37.8026C26.7381 37.0415 27.4542 36.7791 28.0341 37.2509C28.3489 37.5078 28.6758 37.5759 29.0345 37.653C31.3074 38.1419 32.0393 40.0428 30.5943 41.9509C28.5571 44.64 25.891 46.6603 23.1615 48.5888C22.6398 48.9573 22.1988 49.5155 21.2292 49.575Z" fill="black"/>
<path fill-rule="evenodd" clip-rule="evenodd" d="M115.624 24.3458C115.853 23.5436 115.278 22.97 115.356 22.3016C116.386 22.4321 116.868 23.139 116.788 24.3064C116.701 25.5748 116.027 26.5838 115.183 27.3876C113.388 29.0973 111.767 30.9802 109.551 32.2787C108.684 32.7865 107.913 33.7777 107.026 34.4353C104.497 36.3113 101.903 38.0996 99.3278 39.913C98.8106 40.2773 98.2405 40.547 97.6227 40.7092C97.3065 40.7924 97.0267 40.7555 96.8263 40.4819C96.6112 40.1878 96.7171 39.9142 96.943 39.6834C97.2791 39.3399 97.5979 38.9677 97.9794 38.6821C101.51 36.0413 105.098 33.4736 108.569 30.7577C109.921 29.6994 111.108 28.3849 112.071 26.9376C112.516 26.2689 112.466 25.3912 112.589 24.5956C112.623 24.3789 112.406 24.0136 112.821 23.9556C113.618 23.8434 114.298 23.7038 113.918 22.6031C113.831 22.3528 114.187 22.328 114.415 22.3835C114.822 22.4825 115.287 22.6137 115.2 23.1296C115.119 23.6029 115.318 23.9078 115.624 24.3458Z" fill="black"/>
<path fill-rule="evenodd" clip-rule="evenodd" d="M83.7442 74.709C83.9321 74.9357 84.0538 75.0021 84.2213 74.7827C84.8314 73.9831 85.3901 73.1292 86.096 72.4239C86.5227 71.9977 86.7387 70.9407 87.7741 71.5434C87.9387 71.6391 87.9624 71.4056 87.9158 71.2574C87.8069 70.911 87.9819 70.7253 88.2526 70.531C88.7143 70.2 88.9363 69.755 89.0018 69.1491C89.1219 68.0301 90.0096 67.7067 90.874 68.4107C90.9778 68.4956 91.1393 68.7309 91.1698 68.6596C91.8898 66.9764 92.2165 69.5516 92.8308 68.8073C93.0565 69.1266 93.1107 69.4706 93.0421 69.8591C92.8848 70.7495 92.3316 71.3901 91.7344 72.0044C89.4714 74.3319 86.6952 75.9298 83.8785 77.4543C83.2002 77.8219 82.3775 77.6311 81.621 77.6496C81.177 77.6604 81.0257 77.2545 80.9571 76.8868C80.8634 76.3829 81.111 76.3993 81.4445 76.6164C81.7078 75.828 82.3804 75.4136 82.9736 74.9203C83.2348 74.7032 83.4443 74.4121 83.7442 74.709Z" fill="black"/>
<path fill-rule="evenodd" clip-rule="evenodd" d="M39.966 110.139C40.0368 110.228 40.1073 110.317 40.1777 110.407C40.9006 109.739 41.6273 109.075 42.3399 108.397C42.4229 108.317 42.5815 108.177 42.438 108.028C42.338 107.924 42.1391 107.849 42.0581 107.988C41.543 108.88 40.4775 109.25 39.966 110.139ZM46.3212 101.384C46.7564 101.015 46.7403 100.18 47.7455 100.382C48.4723 100.529 48.2508 100.839 48.1526 101.207C48.7818 101.317 48.7316 100.521 49.3145 100.522C49.274 101.569 48.6565 102.417 48.4464 103.378C48.4322 103.404 48.4196 103.434 48.4079 103.466C47.4693 103.917 47.0306 104.85 46.382 105.579C46.1143 105.88 45.9419 106.279 45.6432 106.537C43.239 108.611 41.1018 110.975 38.5858 112.935C36.6139 114.471 34.7752 116.177 32.7232 117.616C32.2514 117.947 31.81 118.33 30.9231 118.572C31.8022 117.658 32.4713 116.964 33.14 116.269C33.1202 116.299 33.1015 116.329 33.0836 116.361C34.5219 115.74 35.394 114.419 36.7002 113.608C36.4317 113.221 36.2454 113.5 36.0692 113.49C35.7677 113.472 35.6394 113.246 35.5947 112.97C35.5725 112.835 35.5116 112.629 35.717 112.631C36.628 112.64 36.6131 111.878 36.7882 111.324C36.9819 110.712 37.4101 110.461 37.9689 110.314C38.8298 110.088 39.4358 109.602 39.5977 108.677C39.7807 108.518 39.9633 108.359 40.1462 108.201C41.0695 108.019 42.7589 106.383 42.8967 105.537C43.3688 105.638 43.7891 104.805 44.2932 105.458C44.3412 106.03 44.3816 106.306 45.0434 105.787C45.8794 105.132 46.0796 103.989 47.0194 103.455C47.159 103.377 47.1944 103.214 47.0677 103.081C46.9032 102.908 46.6968 102.947 46.615 103.132C46.26 103.933 45.4353 104.342 45.0202 105.083C44.8447 105.395 44.6757 105.665 44.2551 105.481C44.4037 103.861 45.8797 103.122 46.6428 101.909C46.7438 101.749 47.2743 102.397 47.194 101.743C47.155 101.425 46.7557 101.164 46.3212 101.384Z" fill="black"/>
<path fill-rule="evenodd" clip-rule="evenodd" d="M41.085 23.3068C41.465 22.7632 41.4414 22.1741 41.3887 21.6005C41.3609 21.2987 41.3402 21.0698 41.6998 21.0439C42.028 21.0202 42.1561 21.2808 42.2013 21.5386C42.3166 22.1955 42.0747 22.8285 41.7641 23.342C40.5795 25.3025 38.9318 26.8382 37.0585 28.1392C36.5026 28.5249 35.8812 28.8426 35.4022 29.3076C34.5316 30.1528 33.4319 30.1657 32.3716 30.2224C31.8764 30.2492 31.9529 29.615 31.9474 29.2612C31.9446 29.0587 32.1809 28.7308 32.378 28.6661C34.2826 28.0404 35.0726 26.1353 36.5525 25.0097C37.0402 24.6388 37.1283 23.6453 37.7628 23.1496C38.264 22.7578 38.6277 22.1975 39.3778 22.1477C39.8104 22.1194 39.647 21.5284 39.9074 21.2729C40.0411 21.1417 40.1478 20.9694 40.3503 20.9966C40.552 21.0235 40.7532 21.2559 40.6846 21.3712C40.2238 22.1456 41.1559 22.6242 41.085 23.3068Z" fill="black"/>
<path fill-rule="evenodd" clip-rule="evenodd" d="M76.0694 55.8403C76.1497 55.7379 76.2299 55.6359 76.3091 55.5345C78.0686 54.6614 79.6221 53.4566 81.1398 52.2498C83.2278 50.5897 85.2001 48.7739 87.1263 46.925C88.7564 45.3601 90.6472 44.068 91.997 42.1999C92.5448 41.4417 93.2848 40.814 94.3706 40.487C94.2493 41.8172 93.2213 42.4147 92.5144 43.1857C90.652 45.2179 88.519 46.9658 86.4096 48.7283C82.6039 51.9079 78.9294 55.2651 74.585 57.7404C74.3365 57.8819 74.1078 58.1069 73.6738 57.8358C74.2579 56.8902 75.3891 56.6147 76.0694 55.8403Z" fill="black"/>
<path fill-rule="evenodd" clip-rule="evenodd" d="M30.3384 59.666C30.844 59.4695 30.5701 58.4995 31.1808 58.809C31.7013 59.0733 31.3217 59.6927 31.0688 60.0825C29.5006 62.4959 27.2815 63.9983 24.4842 64.622C24.0605 64.7165 23.4416 64.8683 23.2452 64.2265C23.0704 63.6574 23.6221 63.4876 23.9734 63.2548C25.4461 62.2774 26.868 61.2577 27.6229 59.569C27.8123 59.1448 28.2146 59.0813 28.621 59.0295C28.7629 59.0113 28.9145 58.9601 29.0328 58.8814C29.9682 58.2583 30.5323 58.3172 30.3384 59.666Z" fill="black"/>
<path fill-rule="evenodd" clip-rule="evenodd" d="M39.7526 113.035C40.2238 111.75 41.5443 111.325 42.4311 110.463C43.0879 109.826 43.6884 109.063 44.5745 108.655C44.795 108.553 44.9558 108.242 45.2085 108.489C45.4095 108.685 45.3854 108.968 45.1576 109.179C43.7863 110.447 42.4364 111.741 40.9122 112.83C40.5523 113.087 40.1266 112.963 39.7288 113.001L39.7526 113.035Z" fill="black"/>
<path fill-rule="evenodd" clip-rule="evenodd" d="M39.7294 113C39.7859 113.328 39.8695 113.641 39.5357 113.908C37.644 115.423 35.7751 116.968 33.7095 118.249C33.5497 118.349 33.3969 118.644 33.1686 118.373C33.024 118.2 33.1199 118.019 33.2832 117.897C35.3862 116.332 37.4518 114.721 39.4395 113.01C39.4955 112.962 39.6465 113.024 39.7532 113.034L39.7294 113Z" fill="black"/>
<path fill-rule="evenodd" clip-rule="evenodd" d="M48.4079 103.466C48.4191 103.434 48.4322 103.404 48.446 103.377C48.7645 102.948 49.283 102.67 49.4012 102.087C49.4433 101.879 49.4939 101.582 49.7981 101.692C50.0698 101.791 49.9631 102.039 49.8796 102.253C49.1369 104.152 47.9811 105.804 46.7565 107.408C46.5462 107.683 46.0842 107.916 45.7862 107.666C45.4333 107.37 45.8447 107.053 46.0501 106.858C47.0722 105.886 47.7297 104.671 48.4079 103.466Z" fill="black"/>
<path fill-rule="evenodd" clip-rule="evenodd" d="M33.085 116.362C33.1028 116.33 33.1216 116.299 33.1417 116.27C32.5643 116.61 31.7381 116.535 31.4336 117.365C31.3833 117.502 30.8881 117.92 30.6116 117.506C30.3486 117.113 30.8008 116.894 31.0501 116.759C32.1771 116.148 33.1482 115.378 33.9025 114.196C34.1397 114.692 34.585 115.093 33.7671 115.399C33.3277 115.563 33.3508 116.067 33.085 116.362Z" fill="black"/>
<path fill-rule="evenodd" clip-rule="evenodd" d="M40.1464 108.201C39.9635 108.36 39.7804 108.519 39.5979 108.678C39.4073 108.76 39.2167 108.841 39.0265 108.923C38.9811 108.87 38.9365 108.817 38.8915 108.763C39.4264 108.214 39.9617 107.666 40.4966 107.117C40.5672 107.163 40.6376 107.209 40.7081 107.256C40.521 107.571 40.3336 107.886 40.1464 108.201Z" fill="black"/>
<path fill-rule="evenodd" clip-rule="evenodd" d="M45.7535 101.83C45.7656 102.628 45.0935 102.975 44.657 103.471C44.2289 103.957 43.7611 104.409 43.3103 104.876C43.2778 104.568 43.3692 104.328 43.5978 104.096C44.3307 103.355 45.0371 102.587 45.7535 101.83Z" fill="black"/>
</svg>
