<svg width="84" height="104" viewBox="0 0 84 104" fill="none" xmlns="http://www.w3.org/2000/svg">
<path fill-rule="evenodd" clip-rule="evenodd" d="M70.6497 83.8472C67.2528 90.6458 63.0887 96.9481 58.688 103.082C58.185 102.953 58.6269 102.639 58.4476 102.442C58.1626 102.31 57.8453 102.997 57.4787 102.386C57.1416 101.825 57.3414 101.403 57.5787 100.967C58.828 98.6752 60.6322 96.7393 61.721 94.3221C62.0936 93.4955 62.2565 92.4833 63.1754 91.8393C63.7411 91.4432 63.6078 90.4413 64.1077 89.7816C64.4206 89.3683 64.5945 88.7902 64.9426 88.3239C66.3299 86.4673 67.1293 84.3673 67.3572 82.0591C67.3982 81.6435 67.5714 81.2671 67.9568 81.2544C69.0077 81.2191 70.0515 80.7837 71.0815 81.7033C71.8292 82.371 71.8987 82.9757 71.6872 83.7808C71.1772 85.7203 70.1656 87.4318 69.1729 89.1421C68.0116 91.1423 66.6928 93.0483 65.4627 95.0043C63.8082 97.6351 61.956 100.119 60.1991 102.673C60.0319 102.916 59.8718 103.418 59.5051 103.197C59.2292 103.031 59.5199 102.633 59.6774 102.392C60.6705 100.867 61.7337 99.395 62.8228 97.9352C63.8666 96.5362 64.7415 95.0036 65.6131 93.4854C67.0215 91.0312 68.5732 88.6593 69.8477 86.1285C70.2109 85.407 70.5705 84.6762 70.6497 83.8472Z" fill="white"/>
<path fill-rule="evenodd" clip-rule="evenodd" d="M76.0174 54.5075C76.6557 53.9945 77.1173 54.7929 77.3191 54.955C77.865 55.3935 78.7208 54.9413 78.9339 55.4603C79.2566 56.2462 79.9526 56.9113 79.6638 57.9642C79.1058 60.0007 78.2601 61.9178 77.4738 63.862C76.9038 65.2714 76.3606 66.6945 75.528 67.9831C75.1566 68.5575 74.7299 69.0641 74.0998 69.3529C73.4535 69.6493 72.8861 69.6705 72.2636 69.1377C71.803 68.7435 71.2091 68.4847 70.7827 68.0214C70.3768 67.5809 70.0545 67.1199 70.5333 66.5196C70.8693 66.0986 70.8086 65.5467 70.9778 65.0666C71.658 63.1375 71.9168 61.06 73.008 59.2762C73.8171 57.9531 74.415 56.5293 75.0388 55.1165C75.2174 54.712 75.3903 54.2231 76.0174 54.5075Z" fill="white"/>
<path fill-rule="evenodd" clip-rule="evenodd" d="M35.7808 68.9551C35.9308 68.6167 36.0275 68.3991 36.1209 68.1889C36.0101 68.0442 35.9077 68.1305 35.7975 68.1614C35.5716 68.2252 35.494 68.658 35.2204 68.4851C34.8894 68.2759 35.3151 68.0254 35.2896 67.7777C34.9273 67.6934 34.831 68.1409 34.5355 68.1534C34.0776 67.449 34.318 66.8819 34.7444 66.2501C35.903 64.5332 36.9071 62.7286 37.5833 60.7538C37.8385 60.0082 38.7936 59.6439 38.8121 58.7784C38.8356 57.6806 39.3479 56.7274 39.9237 55.9425C40.9181 54.5868 41.1306 52.9917 41.7225 51.5182C41.889 51.1036 41.6608 50.5929 42.0703 50.2532C42.2026 50.1434 42.4104 49.8933 42.4967 50.1041C42.7928 50.8246 43.37 50.4774 43.8477 50.597C44.7344 50.8189 44.909 51.6884 44.9956 52.4532C45.1319 53.6585 44.7841 54.8241 44.2949 55.8985C42.4229 60.0122 40.2456 63.9587 37.5521 67.5991C37.1418 68.1537 36.7738 68.8497 35.7808 68.9551Z" fill="white"/>
<path fill-rule="evenodd" clip-rule="evenodd" d="M48.1852 85.2894C48.3907 84.6491 48.5891 83.979 48.8201 83.32C50.2829 79.1421 52.1804 75.16 54.2358 71.2468C55.0237 69.7467 55.9319 68.3071 56.5281 66.7063C56.6987 66.2477 57.0052 65.8858 57.5521 66.3736C57.681 66.4888 57.8724 66.5408 58.0429 66.6012C59.1774 67.0028 59.6205 67.8723 59.2647 69.0524C58.9001 70.2631 58.2256 71.3233 57.5719 72.3862C54.8062 76.882 52.2046 81.4624 50.2187 86.3681C49.9669 86.9899 49.8941 86.9892 49.4526 86.5158C49.4046 86.4644 49.3072 86.4272 49.2374 86.4336C48.4138 86.5071 48.339 85.9034 48.1852 85.2894Z" fill="white"/>
<path fill-rule="evenodd" clip-rule="evenodd" d="M75.917 38.3662C76.6711 36.5106 77.9039 35.0905 78.6223 33.4101C79.3485 31.7117 80.2278 30.0743 80.6837 28.2614C80.0227 29.7148 79.3653 31.1701 78.6999 32.6218C77.9358 34.2874 76.9668 35.8348 76.0144 37.3966C75.5363 38.1802 74.9994 38.1403 74.4613 37.7088C73.9358 37.2872 73.8267 36.5771 74.3216 36.0822C75.3298 35.074 75.8969 33.7858 76.2652 32.5205C76.9064 30.3167 78.0338 28.2741 78.3735 25.9727C78.4518 25.4422 78.8355 24.99 78.9144 24.3991C79.003 23.7344 79.0376 23.165 78.7079 22.5455C78.5169 22.1856 78.0455 21.7123 78.4642 21.3107C78.8066 20.982 79.3082 20.741 79.879 21.0405C80.0969 21.1546 80.4145 21.0797 80.6867 21.0891C82.2788 21.1429 83.2185 22.1803 82.9811 23.7861C82.6628 25.9395 81.8541 27.9535 81 29.9424C79.881 32.5487 78.6643 35.1046 77.0081 37.4258C76.7637 37.7683 76.5589 38.1466 75.917 38.3662Z" fill="white"/>
<path fill-rule="evenodd" clip-rule="evenodd" d="M32.5098 18.0593C34.6658 18.0636 35.3155 19.0077 34.5859 20.7955C34.0155 22.1935 33.0453 23.3457 32.1086 24.4999C29.9219 27.1939 27.646 29.8105 25.2231 32.3C24.6305 32.909 23.911 33.1269 23.1724 33.3528C22.9146 33.4314 22.3398 33.5865 22.3616 33.3619C22.4073 32.9026 21.9463 32.4853 22.3613 31.9938C24.2145 29.7991 25.8683 27.4497 27.5819 25.1466C28.3373 24.131 29.1733 23.1735 29.9008 22.1391C30.3926 21.4394 30.8956 20.6834 30.3967 19.7413C30.3369 19.6288 30.3678 19.3337 30.4208 19.3163C31.2723 19.0322 31.7869 18.1254 32.5098 18.0593Z" fill="white"/>
<path fill-rule="evenodd" clip-rule="evenodd" d="M10.4699 66.8806C9.36269 68.1245 8.67377 69.6373 7.58197 70.8735C7.26034 71.2374 6.87492 71.5534 6.59996 71.9482C6.14605 72.6005 5.67905 72.1033 5.3789 71.8978C5.08749 71.6987 4.95084 71.2361 5.26341 70.7983C6.53986 69.0105 7.56653 67.0535 8.42868 65.062C9.04307 63.6422 10.063 62.3986 10.2759 60.7465C10.3568 60.121 10.7842 59.3992 11.0212 58.6989C11.3381 57.7625 11.9891 58.5377 12.4914 58.572C12.5706 58.5773 12.6408 58.8103 12.7133 58.809C13.0225 58.8046 13.2045 58.0173 13.5667 58.5636C14.0582 59.3049 14.583 60.0042 14.2392 61.1C13.693 62.8394 12.854 64.4087 11.9357 65.9487C10.6908 68.0366 9.54264 70.198 7.77099 71.921C7.64039 72.0479 7.52053 72.1872 7.38087 72.3034C7.23684 72.4232 7.04312 72.5256 6.88869 72.3782C6.69228 72.1906 6.79636 71.9636 6.96825 71.8226C8.47065 70.5925 9.219 68.8182 10.2718 67.2644C10.3518 67.1462 10.4045 67.0089 10.4699 66.8806Z" fill="white"/>
<path fill-rule="evenodd" clip-rule="evenodd" d="M47.5283 35.9803C47.065 36.4174 46.5419 36.8075 46.1542 37.3034C45.7016 37.8819 45.1977 38.0088 44.5601 37.7566C44.1811 37.6062 44.2617 37.2087 44.2982 36.9553C44.3926 36.3029 44.7787 35.8003 45.4092 35.568C45.5599 35.5126 45.7869 35.6268 45.7865 35.3542C45.7832 34.0223 46.9512 33.3132 47.4531 32.2463C47.6072 31.9193 47.8943 31.6087 48.0964 31.2733C48.6866 30.294 49.1694 29.2301 50.4203 28.8551C50.7117 28.7678 51.1737 28.5069 51.0162 28.0641C50.5358 26.7134 51.4819 25.8113 52.0187 24.8098C52.901 23.1644 54.0204 21.653 54.8385 19.9672C54.9309 19.7772 54.9879 19.507 55.2532 19.5728C55.5845 19.6554 55.1454 19.9495 55.3754 20.1227C55.7883 19.9028 56.1509 19.3089 56.7267 20.0096C56.9322 20.2597 57.234 19.837 57.3817 19.5714C57.4942 19.3696 57.6177 19.1796 57.8712 19.328C58.1777 19.5076 57.9135 19.6953 57.8326 19.8601C56.3581 22.8653 54.5367 25.6599 52.6465 28.4129C50.982 30.8376 49.3178 33.2625 47.6535 35.6865C47.6123 35.7839 47.5703 35.8819 47.5283 35.9803Z" fill="white"/>
<path fill-rule="evenodd" clip-rule="evenodd" d="M31.4115 46.6467C30.3909 48.226 29.3625 49.8033 28.2268 51.3087C29.5223 50.3371 31.0842 48.0823 31.4115 46.6467ZM29.4141 44.2491C29.7317 44.1565 28.922 45.2603 29.7875 44.5825C29.8106 44.5644 29.8563 44.5365 29.8667 44.5446C30.4371 44.9874 30.9394 44.9626 31.4614 44.4214C31.5984 44.2793 32.6613 45.4705 32.6842 45.8224C32.7184 46.3535 32.5841 46.8564 32.3504 47.3214C31.0317 49.9475 29.1764 52.1294 26.8324 53.895C25.6842 54.7602 24.4796 54.6659 23.2773 54.0216C22.6317 53.6755 22.6347 53.2595 23.1715 52.7414C23.7366 52.1966 24.2741 51.6188 24.78 51.0185C25.3639 50.3259 25.8527 49.5654 26.4953 48.9064C27.3393 48.0412 27.6301 46.8141 28.2438 45.7868C28.5832 45.2197 28.882 44.6443 29.4141 44.2491Z" fill="white"/>
<path fill-rule="evenodd" clip-rule="evenodd" d="M2.66479 42.6709C2.79908 42.2126 2.87999 41.937 3.00321 41.5167C2.79841 41.6751 2.67352 41.7231 2.63592 41.8094C2.3304 42.5077 1.76906 42.3271 1.3269 42.1012C0.853518 41.8594 0.730641 41.3135 0.919993 40.8428C1.22887 40.0747 1.58608 39.3139 2.02186 38.6112C2.62316 37.6416 3.30335 36.7046 3.71294 35.6457C4.141 34.5398 4.76512 33.4638 4.49822 32.1635C4.37198 31.5498 4.88464 31.1892 5.44532 31.4403C5.74982 31.5773 6.02378 31.5619 6.32493 31.5468C8.23323 31.4514 9.2186 32.8048 8.4773 34.6268C7.43217 37.1948 5.74546 39.3656 3.98891 41.477C3.65318 41.8806 3.42186 42.4174 2.66479 42.6709Z" fill="white"/>
<path fill-rule="evenodd" clip-rule="evenodd" d="M72.2282 2.56468C72.2396 1.87912 71.6611 1.54607 71.5812 0.998831C72.4266 0.883341 72.9594 1.34195 73.1444 2.28569C73.3451 3.31101 73.0245 4.25543 72.5256 5.07293C71.464 6.81202 70.5781 8.65149 69.0951 10.1536C68.515 10.7411 68.1138 11.6919 67.5494 12.4026C65.9409 14.4298 64.2619 16.4012 62.6034 18.3884C62.2704 18.7876 61.8752 19.123 61.4193 19.3831C61.186 19.5164 60.956 19.5466 60.7388 19.3721C60.5054 19.1844 60.5313 18.9447 60.6616 18.7134C60.8553 18.3692 61.0292 18.006 61.2712 17.6981C63.5122 14.8508 65.814 12.0494 67.9919 9.15509C68.8403 8.02737 69.5027 6.73144 69.9593 5.37778C70.1701 4.75231 69.9442 4.06607 69.8727 3.40838C69.8535 3.22909 69.6034 2.98535 69.9204 2.85106C70.529 2.59255 71.039 2.33706 70.5035 1.54406C70.3816 1.36377 70.6586 1.26842 70.8513 1.26406C71.1958 1.256 71.5923 1.26137 71.6329 1.68943C71.6698 2.08224 71.8924 2.282 72.2282 2.56468Z" fill="white"/>
<path fill-rule="evenodd" clip-rule="evenodd" d="M57.6361 49.3246C57.8335 49.4646 57.9443 49.4915 58.0306 49.2817C58.3448 48.5172 58.6067 47.7205 59.0169 47.0105C59.265 46.5814 59.2117 45.6964 60.1618 45.9546C60.3129 45.9955 60.282 45.8052 60.2135 45.6974C60.0533 45.4456 60.1527 45.261 60.3263 45.0491C60.6224 44.6882 60.704 44.2877 60.6271 43.7928C60.4844 42.8789 61.1203 42.4334 61.9563 42.8084C62.0566 42.8538 62.2349 43.0062 62.244 42.9431C62.4575 41.4538 63.2646 43.4285 63.594 42.7071C63.8411 42.9125 63.9572 43.1741 63.9854 43.497C64.0499 44.2373 63.7471 44.8635 63.4036 45.4782C62.1023 47.8071 60.2383 49.6661 58.3267 51.4753C57.8664 51.9115 57.1728 51.935 56.5762 52.1105C56.226 52.2136 56.0195 51.9235 55.8869 51.6462C55.7053 51.2662 55.9054 51.2266 56.2163 51.328C56.2576 50.6461 56.7034 50.1741 57.0694 49.6564C57.2305 49.4284 57.3349 49.1528 57.6361 49.3246Z" fill="white"/>
<path fill-rule="evenodd" clip-rule="evenodd" d="M30.4229 86.7619C30.4981 86.8176 30.573 86.8733 30.6479 86.9291C31.0796 86.2452 31.5154 85.564 31.9368 84.8737C31.9858 84.7931 32.0818 84.6478 31.9361 84.5598C31.8347 84.4987 31.6608 84.4812 31.6262 84.6095C31.407 85.427 30.6398 85.947 30.4229 86.7619ZM33.6042 78.461C33.8711 78.0753 33.6807 77.4159 34.5217 77.3629C35.1297 77.3243 35.02 77.618 35.0203 77.9309C35.543 77.8839 35.3339 77.2628 35.7968 77.1396C35.9875 77.9799 35.6777 78.7843 35.7153 79.5918C35.7096 79.6156 35.7059 79.6418 35.7035 79.67C35.0542 80.2273 34.9045 81.0613 34.5446 81.7777C34.3962 82.0738 34.3441 82.427 34.1618 82.6953C32.6947 84.8537 31.5008 87.1843 29.9205 89.2756C28.682 90.9147 27.5852 92.6598 26.2624 94.2387C25.9582 94.6017 25.6893 94.9995 25.0367 95.3799C25.5403 94.468 25.9237 93.7744 26.3067 93.0808C26.2973 93.1083 26.2889 93.1365 26.2816 93.1657C27.2911 92.3664 27.7024 91.1322 28.5669 90.211C28.2714 89.9608 28.1828 90.2217 28.0408 90.2513C27.7977 90.3013 27.6476 90.1489 27.5536 89.9397C27.5073 89.8373 27.415 89.6862 27.5785 89.6442C28.3037 89.4579 28.1298 88.8563 28.1509 88.3792C28.1744 87.8518 28.4611 87.562 28.8734 87.3264C29.5086 86.9634 29.8863 86.4488 29.8181 85.6803C29.9296 85.5154 30.0407 85.3502 30.1522 85.1854C30.8465 84.845 31.8396 83.1868 31.7691 82.4861C32.1652 82.4656 32.3217 81.7149 32.8609 82.1266C33.0207 82.5704 33.1113 82.7806 33.5263 82.2279C34.0507 81.5303 33.9664 80.5802 34.599 79.9567C34.693 79.8644 34.6866 79.7281 34.5577 79.6492C34.3901 79.5465 34.2347 79.6217 34.2092 79.7862C34.0977 80.4972 33.53 80.9972 33.3581 81.6737C33.2852 81.959 33.2084 82.2088 32.8354 82.1524C32.6087 80.8347 33.6233 79.9346 33.9711 78.8095C34.0171 78.6605 34.5761 79.062 34.3733 78.5604C34.2746 78.3157 33.9023 78.1941 33.6042 78.461Z" fill="white"/>
<path fill-rule="evenodd" clip-rule="evenodd" d="M12.8392 17.5954C13.0252 17.083 12.8812 16.6204 12.7174 16.1762C12.6311 15.9426 12.566 15.7653 12.846 15.6683C13.1014 15.5796 13.2586 15.7593 13.3492 15.9543C13.5805 16.4512 13.5231 17.0052 13.3858 17.4789C12.8624 19.2871 11.8811 20.8567 10.6708 22.2879C10.3115 22.7123 9.88581 23.0967 9.60447 23.5677C9.09315 24.4238 8.22293 24.6679 7.39334 24.9385C7.00591 25.0651 6.93171 24.5453 6.85214 24.2657C6.80682 24.1055 6.92466 23.795 7.06735 23.7017C8.44619 22.7999 8.66811 21.1195 9.60346 19.9112C9.91166 19.5131 9.77032 18.7056 10.1685 18.1772C10.4831 17.7595 10.6526 17.2375 11.2375 17.0384C11.5749 16.9239 11.3194 16.4895 11.4718 16.2313C11.55 16.0987 11.598 15.9392 11.7646 15.9177C11.9304 15.8962 12.1396 16.0379 12.1097 16.144C11.9086 16.8568 12.7503 17.0384 12.8392 17.5954Z" fill="white"/>
<path fill-rule="evenodd" clip-rule="evenodd" d="M47.5287 35.9798C47.5707 35.8814 47.6127 35.7834 47.6539 35.686C48.8649 34.6187 49.8419 33.3319 50.79 32.051C52.0943 30.2891 53.2738 28.4282 54.4095 26.5508C55.3707 24.9617 56.5968 23.5339 57.271 21.7639C57.5446 21.0454 57.9985 20.3898 58.7908 19.8992C58.9775 20.981 58.2886 21.6739 57.8914 22.4364C56.8453 24.4457 55.5238 26.2869 54.2242 28.1347C51.8795 31.4682 49.6767 34.9148 46.7545 37.8038C46.5873 37.969 46.4537 38.1963 46.0515 38.0734C46.314 37.1985 47.1534 36.7392 47.5287 35.9798Z" fill="white"/>
<path fill-rule="evenodd" clip-rule="evenodd" d="M12.0422 48.7435C12.4017 48.4799 11.978 47.7682 12.5286 47.884C12.998 47.9831 12.8284 48.5555 12.7106 48.9187C11.979 51.1681 10.5371 52.8327 8.44917 53.9228C8.13291 54.088 7.67396 54.3401 7.38154 53.8725C7.12168 53.4578 7.52356 53.2057 7.75286 52.9462C8.71406 51.8571 9.6259 50.7451 9.86595 49.2441C9.92605 48.867 10.2319 48.7311 10.5435 48.6035C10.6522 48.5588 10.7617 48.486 10.8389 48.3984C11.4489 47.7047 11.9092 47.6315 12.0422 48.7435Z" fill="white"/>
<path fill-rule="evenodd" clip-rule="evenodd" d="M30.8662 89.1055C30.967 87.9851 31.9248 87.3667 32.4455 86.4945C32.8313 85.8485 33.1458 85.1156 33.7622 84.6026C33.9157 84.4751 33.9771 84.1937 34.2303 84.3361C34.4317 84.4495 34.4727 84.6792 34.3367 84.8951C33.5178 86.1933 32.7215 87.5074 31.7432 88.6962C31.5122 88.9769 31.1479 88.9692 30.84 89.0833L30.8662 89.1055Z" fill="white"/>
<path fill-rule="evenodd" clip-rule="evenodd" d="M30.8397 89.0838C30.9542 89.3319 31.0872 89.5626 30.879 89.8456C29.6996 91.4507 28.5447 93.0747 27.1776 94.5314C27.0718 94.6442 27.0134 94.9115 26.7744 94.7443C26.623 94.6382 26.6606 94.474 26.7643 94.3427C28.1008 92.653 29.3978 90.9344 30.6118 89.1537C30.646 89.1036 30.779 89.1204 30.8659 89.106L30.8397 89.0838Z" fill="white"/>
<path fill-rule="evenodd" clip-rule="evenodd" d="M35.7026 79.6704C35.7046 79.6422 35.7086 79.6157 35.714 79.5918C35.8755 79.1832 36.228 78.8525 36.1978 78.3644C36.187 78.1905 36.1639 77.9434 36.4287 77.9662C36.6654 77.9867 36.6335 78.2066 36.6127 78.3939C36.4271 80.0595 35.861 81.617 35.2302 83.1509C35.1217 83.4141 34.8045 83.6968 34.5147 83.5618C34.1716 83.402 34.4308 83.0629 34.5523 82.8642C35.157 81.8755 35.4205 80.7712 35.7026 79.6704Z" fill="white"/>
<path fill-rule="evenodd" clip-rule="evenodd" d="M26.2818 93.1653C26.2892 93.1364 26.2976 93.1082 26.3074 93.0807C25.9213 93.4731 25.2495 93.5893 25.1843 94.3131C25.1736 94.4327 24.8694 94.8698 24.5619 94.6002C24.2695 94.344 24.5817 94.0734 24.7509 93.9133C25.5157 93.1891 26.1227 92.3709 26.4702 91.2724C26.764 91.6155 27.2028 91.8395 26.6186 92.2561C26.3047 92.4801 26.4302 92.8752 26.2818 93.1653Z" fill="white"/>
<path fill-rule="evenodd" clip-rule="evenodd" d="M30.1517 85.1853C30.0403 85.3501 29.9288 85.5153 29.8177 85.6802C29.6837 85.7856 29.5498 85.8907 29.4161 85.9961C29.3688 85.9635 29.3221 85.931 29.2751 85.8984C29.583 85.3488 29.8912 84.7995 30.1991 84.25C30.2649 84.2714 30.3307 84.2933 30.3965 84.3151C30.3149 84.6048 30.2333 84.8952 30.1517 85.1853Z" fill="white"/>
<path fill-rule="evenodd" clip-rule="evenodd" d="M33.2466 78.9354C33.4259 79.5662 32.9663 79.9849 32.7252 80.4714C32.4888 80.9484 32.2135 81.4064 31.955 81.873C31.8637 81.6357 31.8852 81.4255 32.0175 81.1932C32.4415 80.4485 32.839 79.6891 33.2466 78.9354Z" fill="white"/>
</svg>
