<svg width="170" height="150" viewBox="0 0 170 150" fill="none" xmlns="http://www.w3.org/2000/svg">
<path d="M-21.495 138.374C-21.304 126.134 -13.9145 113.057 -0.435867 111.135C9.88096 109.664 22.5951 112.748 30.7942 118.147C34.909 120.857 40.6094 127.235 34.909 131.366C27.0656 137.05 13.1646 127.108 9.39841 116.318C3.80255 100.286 8.67422 83.7448 20.0438 71.4271C34.1482 56.1467 59.143 41.4943 80.1026 50.2498C89.876 54.3325 94.9406 60.4565 98.2948 70.2377C100.965 78.0244 102.785 87.8781 96.5498 94.82C86.2879 106.245 72.434 96.7173 65.9422 86.586C52.7875 66.0566 59.8789 35.6985 80.551 22.9766C98.6833 11.8177 120.182 6.93338 141.04 4.14358" stroke="black" stroke-width="3" stroke-linecap="round"/>
</svg>
