<svg width="1800" height="982" viewBox="0 0 1800 982" fill="none" xmlns="http://www.w3.org/2000/svg">
<path d="M1798.18 980.244L1762.03 980.545L1725.35 979.588L1688.67 981.174L1652.01 981.764L1615.33 980.296L1578.65 979.392L1541.97 980.571L1505.29 981.174L1468.63 981.109L1431.95 979.601L1395.27 980.06L1358.59 979.732L1321.91 979.457L1285.23 982L1248.57 980.807L1211.89 979.51L1175.22 980.362L1138.54 981.227L1101.88 980.82L1065.2 980.322L1028.52 981.62L991.842 980.204L955.178 979.772L918.499 981.489L881.819 979.444L845.155 981.476L808.476 981.463L771.796 980.86H735.117L698.438 981.214L661.758 979.785L625.079 979.968L588.399 980.807L551.72 981.502L515.041 981.135L478.361 980.008L441.682 980.794L405.003 981.659L368.323 981.069L331.644 980.217L294.965 980.925L258.285 980.204L221.606 979.431L184.911 981.646L148.232 980.283L111.553 979.706L74.858 980.689L38.1635 981.699L1.80217 980.414L0.802643 949.113L2.31707 917.524L1.45388 885.935L0.424037 854.346L2.63513 822.757L1.34786 791.168L1.10555 759.579L2.93799 727.99L2.71083 696.401L2.42309 664.799L1.3327 633.21L2.89256 601.621L0.757212 570.031L1.90819 538.443L1.54474 506.84L0.318062 475.251L2.75626 443.662L0.075749 412.06L1.43872 380.471L1.96878 348.869L2.69567 317.28L0.893505 285.678L2.96831 254.089L0 222.5L0.0454309 190.897L0.075749 159.308L2.78654 127.706L0.832961 96.104L0.938936 64.515L1.36302 32.8998L0.56033 0.498091L38.1484 1.21891L74.8278 0.196484L111.507 0.393129L148.171 2.37237L184.851 1.953L221.53 1.15347L258.209 0.576653L294.889 0.524172L331.553 0.589773L368.232 1.96612L404.912 0L441.591 0.183364L478.271 1.37619L514.95 0.45873L551.614 1.25827L588.294 0.616014L624.958 0.969941L661.637 0.353768L698.301 0.930581L734.981 0.760177L771.66 2.12341L808.339 2.47717L845.004 0.0654415L881.683 1.33683L918.362 0.288326L955.026 0.380008L991.706 1.08786L1028.39 0.43249L1065.06 2.47717L1101.74 0.117923L1138.42 2.45109L1175.1 2.07093L1211.78 2.50342L1248.46 2.17573L1285.14 1.1141L1321.82 1.08786L1358.5 0.786417L1395.18 2.31989L1431.86 1.16643L1468.54 0.393129L1505.22 0.694575L1541.9 1.46803L1578.58 1.8874L1615.27 0.511051L1651.95 1.34995L1688.64 0.327687L1725.32 0.353768L1762.02 1.717L1799.44 0.668495L1799.94 32.8867L1800 64.4757L1799.62 96.0647L1799.97 127.654L1798.23 159.243L1798.74 190.832L1797.32 222.421L1797.79 254.01L1798.76 285.599V317.201L1798.06 348.79L1799.24 380.379L1798.76 411.968L1797.62 443.557L1797.89 475.16L1799.91 506.749L1797.44 538.351L1799.3 569.94L1798.64 601.529L1797.85 633.131L1798.86 664.72L1797.85 696.322L1799.61 727.911L1798.05 759.5L1799.03 791.103L1797.94 822.691L1798.14 854.294L1797.44 885.896L1797.52 917.498L1798.09 949.1L1798.18 980.244Z" fill="#0F0F0F"/>
</svg>
