<svg width="65" height="66" viewBox="0 0 65 66" fill="none" xmlns="http://www.w3.org/2000/svg">
<path fill-rule="evenodd" clip-rule="evenodd" d="M24.0039 32.0033C24.1223 32.0926 24.1747 32.1322 24.2543 32.1919C24.0301 32.415 23.8107 32.6334 23.5886 32.8548C23.6631 32.9081 23.7188 32.948 23.7894 32.9982C23.5644 33.2154 23.348 33.4243 23.1207 33.6432C23.1865 33.6926 23.2393 33.7321 23.298 33.7761C23.1819 33.9288 23.0774 34.1016 22.9439 34.23C22.8507 34.3193 22.7141 34.3408 22.6029 34.4038C22.4847 34.471 22.6882 34.6997 22.5683 34.8447C22.4537 34.9826 22.3165 35.0899 22.1447 35.208C22.247 35.2878 22.2968 35.3269 22.3813 35.3931C22.1563 35.6169 21.9378 35.8345 21.7165 36.0548C21.7873 36.1039 21.8447 36.1433 21.9015 36.1826C21.6383 36.4733 21.3759 36.7636 21.0964 37.0731C21.1926 37.1441 21.2462 37.1839 21.3006 37.224C21.0422 37.5208 20.7819 37.8197 20.51 38.1325C20.6191 38.2164 20.67 38.2557 20.7101 38.2865C20.4442 38.588 20.1847 38.8822 19.9145 39.1882C20.0144 39.2568 20.0717 39.2962 20.1268 39.3342C19.8639 39.6262 19.6022 39.9176 19.3239 40.2272C19.4202 40.2975 19.4745 40.3369 19.5379 40.3832C19.2771 40.6689 19.0161 40.9544 18.7449 41.2517C18.8316 41.3449 18.888 41.4055 18.9824 41.5071C18.7097 41.6503 18.3927 41.7075 18.3153 42.1196C18.3644 42.1534 18.4218 42.1932 18.4901 42.2403C18.2605 42.433 18.0338 42.6242 17.7897 42.8294C17.8959 42.9443 17.9521 43.0053 18.0554 43.117C17.6141 43.2323 17.3353 43.5586 17.1521 44.0179C17.2087 44.058 17.2649 44.0975 17.3451 44.1538C17.2954 44.2004 17.2655 44.2686 17.2187 44.2668C16.9531 44.255 16.8209 44.3918 16.7666 44.7489C16.7606 44.7876 16.7185 44.8138 16.6845 44.8185C16.6336 44.8249 16.5391 44.7723 16.5254 44.8056C16.4637 44.9594 16.4233 45.1575 16.2315 45.0773C16.0326 44.9942 15.8503 44.7624 15.6425 44.6712C15.5957 44.6507 15.5471 44.4836 15.5133 44.4129C15.3183 44.3944 15.1534 44.3788 14.9057 44.3553C15.1183 44.0216 15.2803 43.7677 15.4603 43.4859C15.226 43.4282 15.1728 43.5638 15.1073 43.731C15.062 43.8459 14.9 43.8478 14.7974 43.897C14.5343 43.4798 14.7417 43.3442 14.8285 43.2182C15.4126 42.3709 15.8678 41.3806 16.3551 40.4274C16.8787 39.403 17.3146 38.2812 17.8695 37.2939C18.2398 36.6345 18.5574 35.9181 18.9424 35.2802C19.3768 34.5609 19.7364 33.7568 20.1966 33.0706C20.4938 32.6271 20.7128 32.0986 21.017 31.6588C21.3058 31.2415 21.5772 30.7857 21.827 30.3216C22.0974 29.8189 22.3838 29.3362 22.6823 28.8696C23.2402 27.9972 23.7828 27.1065 24.3511 26.2458C24.7248 25.6801 25.0756 25.0787 25.4365 24.4938C25.9639 23.6396 26.5351 22.84 27.051 21.9702C27.4988 21.215 28.05 20.5809 28.5212 19.8511C28.9127 19.2453 29.3318 18.6758 29.7366 18.0875C30.4631 17.0307 31.1889 15.9727 31.9287 14.9327C32.404 14.2649 32.9067 13.6283 33.3569 12.9297C34.0301 11.8857 34.8036 10.9731 35.503 9.96679C35.9209 9.36487 36.3397 8.76711 36.7828 8.19742C37.3251 7.50109 37.8006 6.71465 38.3588 6.04093C39.1932 5.03338 39.9573 3.93596 40.7502 2.87542C41.347 2.07773 41.9861 1.33502 42.4773 0.403142C42.545 0.275022 42.6926 0.235624 42.7933 0.162423C43.1462 0.589389 42.6806 0.657258 42.8908 1.04915C42.9525 0.95977 42.9944 0.868989 43.0587 0.814273C43.1264 0.756501 43.2155 0.73354 43.3473 0.670411C43.389 0.867194 43.4176 1.00194 43.4465 1.13764C43.554 1.17832 43.6768 1.09874 43.7875 1.37363C43.8431 1.51098 43.7216 1.74087 43.9741 1.799C43.9749 1.82151 43.9812 1.8491 43.9753 1.86527C43.9326 1.9786 43.8967 2.09996 43.8415 2.19923C43.5572 2.71111 43.3101 3.2731 42.9699 3.71084C42.5042 4.3103 42.1161 5.00214 41.6659 5.61774C40.9899 6.54209 40.3102 7.46152 39.643 8.39707C39.2201 8.99018 38.8165 9.6081 38.4019 10.2183C38.4712 10.2661 38.5287 10.3061 38.5862 10.3461C38.583 10.3712 38.5876 10.408 38.5758 10.4165C38.555 10.4317 37.979 10.893 37.9462 10.933C37.7554 11.1647 37.564 11.3961 37.3627 11.6396C37.4665 11.7151 37.5209 11.7548 37.658 11.8545C37.5334 11.8759 37.4737 11.8936 37.4096 11.8947C37.3391 11.8961 37.229 11.8373 37.198 11.8824C36.9923 12.179 36.8033 12.4965 36.6079 12.8095C36.6787 12.8615 36.7326 12.9008 36.8715 13.0028C36.744 13.0223 36.6836 13.0382 36.6193 13.0395C36.5492 13.041 36.44 12.9839 36.4088 13.0291C36.2035 13.3255 36.0146 13.6422 35.819 13.9544C35.8906 14.0074 35.9443 14.047 36.0847 14.1508C35.9542 14.1686 35.8936 14.1832 35.8292 14.1841C35.7591 14.1853 35.651 14.1309 35.6197 14.1761C35.4146 14.4717 35.2259 14.788 35.0304 15.0997C35.1028 15.1537 35.1558 15.1931 35.2983 15.299C35.1647 15.3155 35.1011 15.3544 35.0398 15.3236C34.9263 15.2668 34.8763 15.2759 34.8099 15.3798C34.4417 15.9569 34.0525 16.5085 33.6631 17.0792C33.7366 17.1316 33.7923 17.1711 33.8511 17.2129C33.8643 17.5662 33.407 17.0298 33.4268 17.4826C33.4347 17.6639 33.2097 17.7548 33.0745 17.905C33.1665 17.9742 33.219 18.0135 33.2696 18.0516C33.2659 18.0881 33.2668 18.1328 33.2553 18.1661C33.2508 18.1795 32.8075 18.3728 32.7959 18.3896C32.5163 18.7976 32.2368 19.2052 31.952 19.6209C32.0374 19.6803 32.0949 19.7203 32.1539 19.761C31.7757 19.9492 31.6323 20.0882 31.4117 20.482C31.4703 20.5225 31.5275 20.5623 31.5843 20.6013C31.5721 20.6377 31.5696 20.7065 31.545 20.7105C30.956 20.8054 30.7887 21.5167 30.412 21.9206C30.2135 22.1335 30.0898 22.4552 29.9319 22.7282C29.9991 22.7773 30.053 22.8169 30.11 22.8586C30.0865 22.9008 30.0763 22.9609 30.0485 22.963C29.5936 22.9983 29.3775 23.4402 29.1758 23.82C28.9158 24.3101 28.5159 24.6307 28.3484 25.2285C28.3875 25.2569 28.4423 25.2965 28.5508 25.375L27.8632 25.7043C27.9057 25.8335 27.9306 25.9092 27.9623 26.0052C27.9539 26.298 27.4466 26.0189 27.6327 26.6197C27.5392 26.6645 27.4234 26.7059 27.3223 26.774C27.2717 26.8084 27.2022 26.9089 27.2201 26.9496C27.2984 27.1271 27.2554 27.1695 27.1687 27.2356C27.0485 27.3266 26.738 27.2192 26.9174 27.6691C26.927 27.6934 26.8507 27.7468 26.8104 27.7798C26.6877 27.8808 26.405 27.8047 26.5769 28.2283C26.4429 28.3168 26.3088 28.4049 26.1788 28.4904C26.187 28.6075 26.2364 28.7837 26.1949 28.8275C26.0945 28.9343 25.9522 28.9807 25.8267 29.051C26.0016 29.4943 25.6812 29.4141 25.5756 29.5319C25.5813 29.5861 25.5775 29.6164 25.5866 29.6276C25.6026 29.647 25.6271 29.6525 25.6469 29.6687C25.6798 29.6955 25.7114 29.7261 25.7944 29.8007L25.1613 30.104C25.2794 30.1937 25.331 30.2327 25.3851 30.274C25.4391 30.5855 25.0247 30.3164 25.1085 30.6939C25.192 31.0701 24.8776 30.9248 24.7732 31.0596C24.6625 31.203 24.5531 31.3483 24.4269 31.5139C24.4235 31.4853 24.4207 31.5155 24.4299 31.5262C24.4461 31.5456 24.4704 31.5512 24.4899 31.5672C24.5223 31.5939 24.5538 31.6249 24.6363 31.7004L24.0039 32.0033Z" fill="black"/>
<path fill-rule="evenodd" clip-rule="evenodd" d="M55.2922 43.5828C57.2834 43.1717 56.8344 42.9807 56.891 43.221C57.0534 43.2336 57.2172 43.2463 57.4604 43.2653C57.3902 43.4994 57.346 43.6473 57.3011 43.7965C57.3407 43.8247 57.3962 43.8642 57.452 43.904C57.4421 43.9397 57.443 44.0058 57.4194 44.0139C56.8372 44.2135 56.4467 44.7665 55.862 44.9726C55.2757 45.1795 54.6911 45.418 54.1897 45.7883C53.7812 46.0895 53.3483 46.3296 52.9113 46.5705C52.7765 46.6446 52.5751 46.5144 52.4772 46.7425C52.4041 46.9133 52.1659 46.9187 52.001 46.9977L51.4574 47.258C51.2926 47.337 51.1275 47.415 50.9633 47.495C50.7994 47.5742 50.6361 47.6549 50.4749 47.7395C50.4631 47.7455 50.468 47.785 50.4578 47.8708C50.6275 47.8282 50.7707 47.792 50.9139 47.7555C50.9291 47.789 50.9441 47.8223 50.9593 47.8554C50.7907 47.9446 50.6234 48.0364 50.453 48.1215C50.2734 48.2117 50.0915 48.2971 49.9091 48.3816C49.8782 48.3961 49.8335 48.4206 49.8066 48.3987C49.439 48.0994 49.2563 48.2457 49.1081 48.5601C49.0524 48.6779 48.8871 48.6808 48.7718 48.736C47.223 49.4777 45.6723 50.2155 44.1283 50.9669C43.9603 51.0488 43.7028 51.011 43.6956 51.3571C43.6949 51.3725 43.6615 51.3889 43.6486 51.3796C43.3859 51.1881 43.4119 51.6492 43.2359 51.5656C43.0088 51.458 42.9274 51.5347 42.8619 51.7434C42.8422 51.8073 42.6969 51.7795 42.6042 51.7577C42.4744 51.727 42.4304 51.6196 42.4732 51.4866C42.4408 51.4627 42.4032 51.4195 42.3775 51.4198C42.3427 51.4207 42.291 51.4454 42.2929 51.4769C42.2986 51.572 42.3498 51.6896 42.3401 51.7713C42.3273 51.8801 42.2979 52.0128 42.2322 52.046C42.1191 52.103 41.9066 52.0204 41.8546 52.1241C41.7712 52.2911 41.6816 52.3181 41.5094 52.2965C41.3921 52.2819 41.3257 52.4844 41.2128 52.5419C40.7586 52.7743 40.295 52.9875 39.8457 53.2027C39.7447 53.1082 39.6595 53.0283 39.5745 52.9491C39.5524 53.0613 39.5307 53.1737 39.4897 53.3837C39.3341 53.5525 38.8619 53.423 38.9135 54.0464C38.8052 53.9719 38.7048 53.9028 38.6154 53.8415C38.3072 54.2013 37.9409 54.4073 37.4655 54.3842C37.2111 54.8557 36.6878 54.8016 36.3398 55.0883C36.2795 54.9405 36.2222 54.7678 36.2068 54.7674C36.014 54.7595 36.1448 54.9692 36.1727 55.1384L35.6491 55.3892C35.6771 55.5154 35.6992 55.6157 35.7229 55.7218C35.6912 55.7148 35.6552 55.7215 35.6292 55.6981C35.427 55.517 35.2222 55.5011 35.1438 55.6628C34.9606 56.0422 34.5951 56.0628 34.3074 56.2333C34.0596 56.3801 33.7907 56.4864 33.5803 56.7262C33.7508 56.6755 33.9215 56.625 34.0919 56.574C33.7536 56.7976 33.523 57.3046 33.0038 56.9164C32.8345 57.0506 32.7116 57.1841 32.561 57.2615C32.093 57.5014 31.6146 57.7204 31.1502 57.9428C31.1846 58.0895 31.2078 58.1896 31.2431 58.3391C31.0721 58.1874 30.9329 58.0637 30.7936 57.9401C30.8626 58.1702 30.891 58.4296 30.6761 58.344C30.4488 58.2534 30.4166 58.4057 30.3004 58.5144C30.0878 58.713 29.7934 58.7847 29.574 59.014C29.7113 58.9855 29.8485 58.9571 29.9931 58.9276C29.9969 58.988 30.0136 59.0574 30 59.0643C29.6402 59.2433 29.2888 59.4429 28.9106 59.5808C28.6316 59.6824 28.2841 59.6173 28.0409 59.8168C28.0014 59.8494 27.9673 59.8908 27.9645 60.0004C28.1073 59.9592 28.2499 59.9176 28.3926 59.876C28.0115 60.1412 27.6918 60.5131 27.1584 60.4688C26.9223 60.4493 26.7347 60.6496 26.552 60.8391C26.6597 60.8308 26.7676 60.8224 26.8789 60.8138C26.8824 60.8624 26.8999 60.9321 26.8863 60.939C26.7246 61.0231 26.5583 61.0975 26.3932 61.1745C26.1473 60.8877 26.2494 61.4397 26.0116 61.2876C25.8569 61.1889 25.8334 61.6066 25.534 61.4347C25.3711 61.3417 25.1824 61.5728 25.0467 61.762C25.1888 61.7323 25.3311 61.7032 25.4821 61.6717C25.4771 61.7353 25.4872 61.8012 25.4692 61.8105C25.225 61.9345 24.9683 62.0342 24.7316 62.1729C24.2696 62.4431 23.78 62.6737 23.3779 63.0401C23.1611 63.2375 22.9202 63.3722 22.6927 63.5403C22.4972 63.6842 22.3449 63.9042 22.476 64.3935C22.3903 64.4345 22.2253 64.5793 22.1784 64.5247C21.9737 64.2857 21.7368 64.364 21.5738 64.1521C21.4199 63.9518 21.3094 63.9203 21.1428 63.8727C20.8068 63.7765 20.5644 63.4007 20.4969 62.9535C20.3799 62.8758 20.2616 62.7977 20.1458 62.7209C20.1217 62.6631 20.0791 62.6001 20.0818 62.5619C20.1081 62.1426 20.2434 61.8695 20.5109 61.6703C20.9491 61.344 21.3098 60.8838 21.8229 60.6831C21.9758 60.2735 22.3697 60.2886 22.6449 60.0942C22.8602 59.9425 23.0529 59.7496 23.2749 59.6109C23.4918 59.475 23.8042 59.471 23.947 59.2531C24.1528 58.9399 24.4469 58.8262 24.7438 58.7255C25.1254 58.5962 25.3479 58.2071 25.7081 58.0512C26.0766 57.8908 26.4989 57.803 26.7831 57.5127C27.3317 56.9524 28.1158 56.8731 28.6987 56.411C29.4213 55.8379 30.3261 55.6252 31.0483 55.0802C32.0207 54.3457 33.1732 53.9978 34.2104 53.4082C34.3375 53.336 34.4744 53.2831 34.6049 53.2171C34.7147 53.1617 34.8599 53.152 34.8407 52.9216C35.0174 53.1399 35.0151 52.8078 35.1748 52.8773C35.2725 52.9199 35.3571 52.6943 35.4649 52.6198C35.5858 52.537 35.726 52.4891 35.8578 52.426L36.2038 52.2603L36.5992 52.0709L36.9947 51.8816L37.3406 51.7159C37.4724 51.6527 37.5979 51.574 37.7377 51.5303C37.903 51.4789 38.0165 51.3236 38.2594 51.4198C38.3763 51.4661 38.4654 51.1923 38.5963 51.1222C38.9995 50.9076 39.4225 50.7325 39.8259 50.5182C39.9762 50.4388 40.2056 50.4757 40.2118 50.1529C40.2155 49.9411 40.5042 50.3795 40.5114 50.0618C40.5136 49.9616 40.7125 49.8498 40.7623 49.8973C41.0438 50.1654 40.9465 49.6005 41.1379 49.7569C41.4092 49.978 41.3319 49.602 41.4456 49.561C41.5097 49.5376 41.5847 49.5387 41.6545 49.5281C41.777 49.5102 42.0013 49.5439 42.0042 49.4648C42.0158 49.1418 42.2951 49.3191 42.396 49.149C42.5002 48.9725 42.7322 48.9426 42.9121 48.8565C46.1407 47.3092 49.3738 45.7703 52.595 44.2071C53.0245 43.9986 53.5508 43.9562 53.8181 43.4405C54.1808 43.6334 54.2394 43.1983 54.4697 43.107C55.1828 42.8242 55.8606 42.4623 56.5996 42.1084C56.633 42.2419 56.7017 42.424 56.6785 42.4397C56.3537 42.6571 56.0881 42.9701 55.7189 43.1212C54.9749 43.4262 54.263 43.8023 53.5399 44.1532C53.514 44.166 53.511 44.2268 53.4972 44.2655C53.5427 44.2757 53.5914 44.2974 53.6328 44.2945C53.7363 44.2868 53.8991 44.4213 53.9072 44.175C53.9092 44.1111 54.0294 44.107 54.0952 44.0755C55.0494 43.6185 56.0035 43.1615 55.2922 43.5828C53.5889 44.4457 53.5774 44.4171 53.566 44.3887C53.3819 44.3971 53.19 44.3841 53.0164 44.4219C52.9244 44.442 52.415 44.7211 52.332 44.7405C52.2611 44.7568 52.1442 44.7664 52.1409 44.8288C52.1239 45.1382 51.9044 45.1187 51.7509 45.1929C49.4132 46.3199 47.0729 47.4415 44.7283 48.5535C44.5907 48.619 44.4892 48.8091 44.2611 48.653C44.2176 48.6232 44.1219 48.6444 44.1185 48.6816C44.0912 49.0095 43.8304 48.9522 43.6739 49.062C43.3533 49.2866 42.9242 49.3053 42.6928 49.7102C42.6275 49.8245 42.4318 49.7986 42.2889 49.8139C42.0137 49.8434 41.7515 49.8954 41.6038 50.1758C41.5522 50.2737 41.3463 50.0979 41.3814 50.3407C41.1345 50.1501 40.9417 50.2924 40.8754 50.436C40.765 50.676 40.4943 50.451 40.3933 50.6366C40.3752 50.6696 40.3306 50.6832 40.3284 50.7223C40.3175 50.908 40.2431 50.9024 40.0932 50.8623C39.948 50.8235 39.7747 50.8759 39.6959 50.991C39.5939 51.1405 39.4531 51.2854 39.3277 51.3025C39.133 51.3292 39.0252 51.4709 38.8755 51.5539C37.703 52.2013 36.4179 52.6144 35.3225 53.4269C34.5048 54.0331 33.4775 54.2338 32.6641 54.8816C31.9241 55.4703 30.9569 55.6383 30.211 56.2538C29.6229 56.7392 28.821 56.8344 28.2518 57.3898C27.9878 57.6475 27.5863 57.6906 27.279 57.8895C26.9972 58.0723 26.6515 58.1035 26.4183 58.427C26.201 58.7285 25.787 58.7772 25.4623 58.9426C25.4122 58.9683 25.3757 59.022 25.3331 59.0628C25.4512 59.1372 25.5138 59.1107 25.5733 59.078C26.1384 58.7683 26.7363 58.5347 27.252 58.1129C27.8715 57.6065 28.6933 57.4799 29.3128 56.9345C29.8876 56.4284 30.7437 56.4233 31.257 55.7771C31.3292 55.6863 31.5747 55.9933 31.5304 55.662C31.7606 55.8677 31.7302 55.5467 31.832 55.4936C32.6303 55.0786 33.5198 54.8429 34.1972 54.1881C34.288 54.1003 34.4356 53.9934 34.5417 54.0562C34.7822 54.1986 34.6941 53.8386 34.8504 53.8528C34.9802 53.8645 35.0841 53.756 35.1994 53.7008C35.8588 53.385 36.5224 53.0777 37.1746 52.7478C37.3423 52.6629 37.5897 52.6943 37.621 52.3693C37.6246 52.3331 37.7574 52.3818 37.8246 52.3742C37.9139 52.3642 38.0705 52.3715 38.0707 52.3123C38.0718 52.0785 38.2055 52.2182 38.2933 52.2C38.3807 52.1818 38.3997 51.9883 38.4849 51.9475C38.6225 51.8816 38.7314 51.6961 38.9556 51.8821C38.9656 51.6578 39.1154 51.6332 39.2397 51.5758C39.3658 51.5175 39.4736 51.3846 39.6664 51.5582C39.6492 51.2942 39.8247 51.297 39.9491 51.2367C40.7715 50.838 41.6112 50.4752 42.4163 50.0421C43.2084 49.6156 44.1296 49.4401 44.7773 48.7298C44.9481 48.8324 45.038 48.6901 45.1557 48.651C45.3079 48.601 45.4104 48.4358 45.5559 48.365C45.7245 48.2832 45.8655 48.1034 46.1206 48.2617C46.1483 47.9054 46.4282 47.95 46.6119 47.8607C48.7819 46.807 50.9598 45.7695 53.1348 44.7258C53.2936 44.6497 53.4453 44.5584 55.2922 43.5828Z" fill="black"/>
<path fill-rule="evenodd" clip-rule="evenodd" d="M28.2289 43.3705C28.2572 43.6497 28.2695 43.7684 28.2851 43.922L28.7578 43.6956C28.7509 43.6715 28.744 43.6473 28.7371 43.6236C28.6822 43.6267 28.626 43.6261 28.5726 43.6334C28.5206 43.6403 28.472 43.6555 28.4092 43.6701C28.3718 43.573 28.3082 43.462 28.3222 43.4349C28.3907 43.2983 28.4622 43.1557 28.5648 43.0675C28.7951 42.8696 29.0482 42.709 29.2842 42.5203C29.4014 42.4262 29.501 42.3028 29.604 42.1976C29.9155 42.471 29.5771 42.4923 29.6516 42.6839C30.0875 42.7147 30.1655 42.1214 30.538 42.0455C30.2751 42.063 29.9962 42.0453 29.8431 42.3733C29.833 42.2751 29.7921 42.1455 29.8191 42.0854C29.874 41.9624 29.9592 41.8674 30.0442 41.7788C30.1835 41.6344 30.4535 41.7179 30.5135 41.4299C30.5605 41.205 30.8341 41.315 30.8709 41.0205C30.8894 40.8724 31.1358 40.8694 31.2966 40.7924C31.3726 41.2904 31.0718 41.223 30.921 41.362C30.7851 41.4873 30.6741 41.652 30.6054 41.8851C30.9397 41.6631 31.3139 41.499 31.5973 41.2018C31.8663 40.9192 32.0939 40.5748 32.39 40.307C32.1489 40.3979 31.9074 40.4889 31.6663 40.5798L31.621 40.4853C32.0505 40.1301 32.4803 39.7747 32.91 39.4198C32.9351 39.4578 32.9599 39.4962 32.9848 39.5342C32.8017 39.7373 32.6187 39.9407 32.4359 40.1436C32.6678 40.0829 32.9713 40.1645 33.0386 39.7913C33.4975 39.6074 33.7515 39.0365 34.3141 39.0225L34.5623 39.5407C34.5088 39.6375 34.3289 39.4904 34.329 39.714C34.3289 39.82 34.0906 39.7114 34.1711 39.9768C34.193 40.0487 34.1548 40.1968 34.1337 40.19C33.785 40.0805 33.6832 40.4726 33.4243 40.5361C33.3435 40.5558 33.2443 40.527 33.1344 40.5191C33.1749 40.638 33.2254 40.7872 33.276 40.9371C33.0491 40.8203 33.063 41.3041 32.7874 41.0558C32.8153 41.1782 32.8381 41.2781 32.8691 41.4139C32.6438 41.3997 32.3816 41.28 32.265 41.5568C32.319 41.5978 32.3709 41.6373 32.5004 41.7361C32.1625 41.8184 31.8703 41.8901 31.5682 41.964C31.5389 42.211 31.5114 42.4406 31.49 42.6204C31.3331 42.692 31.1304 42.4355 31.0846 42.748C31.049 42.9924 30.89 43.1723 30.7451 43.3205C30.6523 43.4156 30.4918 43.4231 30.3501 43.4284C30.2495 43.4319 30.2505 43.6066 30.0728 43.513C29.8869 43.4152 30.0521 43.7277 30.034 43.8398C30.0169 43.944 29.9793 44.0732 29.9107 44.0969C29.6348 44.1911 29.4931 44.5263 29.1906 44.5649C29.175 44.5668 29.1503 44.5413 29.1301 44.5285C29.0678 45.116 28.5596 45.1152 28.3699 45.5065C28.2114 45.8333 27.7889 45.7105 27.7298 46.1466C27.1358 46.7262 26.4728 47.2035 25.9855 47.9414C25.5271 48.0642 25.3516 48.6239 24.9794 48.893C24.6357 49.142 24.3127 49.4761 24.064 49.8556C23.6137 50.542 22.9372 50.9096 22.5638 51.6911C22.3067 51.7211 22.2676 51.9871 22.2172 52.2716C22.1894 52.4288 22.0428 52.5022 21.9653 52.5945C21.625 52.4321 21.3317 52.1377 21.0344 52.1295C20.953 51.8515 20.8705 51.5708 20.7726 51.2374C21.1849 50.6941 21.5694 50.048 22.1044 49.5947C22.3519 49.3847 22.499 49.0127 22.7439 48.798C23.0485 48.5307 23.3031 48.1854 23.6181 47.9462C23.9546 47.6901 24.2144 47.3292 24.5151 47.0276C24.7005 46.8413 24.8932 46.6428 25.0884 46.4863C25.4192 46.2216 25.6516 45.8187 26.0007 45.5839C26.2109 45.4428 26.3548 45.1843 26.539 44.9936C26.6644 44.8632 26.9068 44.9336 26.9589 44.6677C27.003 44.4414 27.33 44.5853 27.294 44.2444C27.6072 44.189 27.7803 43.8911 28.016 43.7019C28.0774 43.6528 28.1111 43.5578 28.2289 43.3705Z" fill="black"/>
</svg>
