<svg width="129" height="147" viewBox="0 0 129 147" fill="none" xmlns="http://www.w3.org/2000/svg">
<path fill-rule="evenodd" clip-rule="evenodd" d="M88.1663 119.382C82.0326 126.303 75.1536 132.399 68.0494 138.222C67.499 137.912 68.117 137.683 67.9685 137.394C67.6749 137.15 67.0857 137.857 66.8472 137.024C66.6279 136.258 66.9955 135.825 67.4117 135.388C69.6018 133.087 72.3321 131.38 74.373 128.882C75.0713 128.028 75.5815 126.889 76.8643 126.422C77.654 126.134 77.8128 124.915 78.6082 124.297C79.1061 123.91 79.4926 123.285 80.0486 122.846C82.2638 121.101 83.8647 118.885 84.8596 116.244C85.0386 115.768 85.3607 115.38 85.8178 115.487C87.064 115.776 88.4279 115.593 89.3489 116.998C90.0174 118.019 89.9087 118.751 89.4065 119.631C88.1963 121.75 86.4684 123.443 84.7629 125.14C82.768 127.126 80.6178 128.95 78.556 130.862C75.7829 133.433 72.8234 135.77 69.9542 138.218C69.6812 138.451 69.3349 138.99 68.9736 138.615C68.7016 138.333 69.1685 137.957 69.4297 137.723C71.0769 136.244 72.7904 134.848 74.5302 133.475C76.1976 132.16 77.7086 130.634 79.2111 129.124C81.6394 126.683 84.2102 124.384 86.5051 121.811C87.1593 121.077 87.8121 120.331 88.1663 119.382Z" fill="white"/>
<path fill-rule="evenodd" clip-rule="evenodd" d="M103.716 86.5887C104.628 86.1867 104.919 87.2705 105.105 87.5246C105.609 88.2119 106.757 87.9498 106.844 88.627C106.976 89.6524 107.584 90.6533 106.913 91.7998C105.616 94.0178 104.018 96.0046 102.482 98.0421C101.368 99.5191 100.281 101.021 98.8969 102.273C98.2795 102.831 97.6185 103.292 96.7869 103.433C95.9339 103.578 95.2604 103.424 94.6966 102.602C94.2793 101.994 93.6628 101.502 93.3076 100.824C92.9692 100.178 92.7356 99.5347 93.4873 98.9799C94.0149 98.5909 94.1173 97.9231 94.4674 97.4121C95.8744 95.3589 96.8329 92.9987 98.6771 91.2458C100.045 89.9455 101.196 88.4603 102.374 86.9963C102.711 86.577 103.069 86.0569 103.716 86.5887Z" fill="white"/>
<path fill-rule="evenodd" clip-rule="evenodd" d="M51.8746 90.8976C52.1576 90.5471 52.3397 90.3219 52.5156 90.1043C52.431 89.8993 52.2834 89.9685 52.1443 89.9701C51.8586 89.9739 51.6312 90.4581 51.364 90.1687C51.0408 89.8186 51.6201 89.6583 51.6681 89.3591C51.2689 89.146 51.0147 89.6416 50.6635 89.5632C50.3471 88.5911 50.8082 88.0003 51.5083 87.3919C53.4108 85.7388 55.1594 83.9341 56.576 81.826C57.1108 81.03 58.3481 80.9026 58.6424 79.8912C59.0158 78.6082 59.9181 77.6493 60.8421 76.9081C62.4378 75.6279 63.1899 73.82 64.3497 72.2745C64.676 71.8397 64.5685 71.1676 65.1569 70.8972C65.3469 70.8098 65.67 70.5813 65.705 70.8563C65.8261 71.7964 66.6138 71.5701 67.1376 71.861C68.1099 72.4011 68.0412 73.4781 67.9022 74.4043C67.6828 75.8638 66.9069 77.1243 65.9936 78.233C62.4978 82.4785 58.6959 86.4313 54.3836 89.8617C53.7267 90.3844 53.075 91.0865 51.8746 90.8976Z" fill="white"/>
<path fill-rule="evenodd" clip-rule="evenodd" d="M61.3081 114.002C61.7512 113.315 62.1954 112.59 62.6745 111.888C65.7095 107.438 69.1939 103.355 72.842 99.4031C74.2406 97.8881 75.7614 96.4821 76.9663 94.7884C77.3112 94.3031 77.7854 93.9743 78.2746 94.7199C78.3899 94.8958 78.5984 95.0172 78.7798 95.142C79.9867 95.9712 80.2338 97.1328 79.4438 98.4077C78.634 99.7158 77.5074 100.75 76.4043 101.793C71.7377 106.206 67.2375 110.77 63.3584 115.911C62.8667 116.562 62.7813 116.539 62.4114 115.843C62.3712 115.768 62.2685 115.693 62.1844 115.679C61.1933 115.506 61.2954 114.773 61.3081 114.002Z" fill="white"/>
<path fill-rule="evenodd" clip-rule="evenodd" d="M108.682 67.5865C110.152 65.6431 112.049 64.3622 113.422 62.6135C114.811 60.8459 116.36 59.1983 117.467 57.2111C116.232 58.7111 115.001 60.2147 113.762 61.7114C112.339 63.4283 110.713 64.9419 109.101 66.4776C108.293 67.248 107.674 67.032 107.178 66.3555C106.693 65.6944 106.788 64.8254 107.526 64.3996C109.028 63.5322 110.101 62.1967 110.932 60.8254C112.38 58.4372 114.348 56.3915 115.472 53.7935C115.731 53.1947 116.325 52.784 116.603 52.1144C116.917 51.361 117.137 50.7026 116.944 49.8707C116.833 49.3876 116.428 48.6827 117.047 48.3426C117.553 48.0642 118.218 47.9388 118.795 48.4706C119.015 48.6733 119.412 48.6854 119.729 48.7822C121.583 49.3467 122.361 50.8619 121.576 52.6746C120.524 55.1053 118.939 57.2178 117.309 59.2864C115.173 61.9973 112.938 64.6182 110.26 66.8249C109.865 67.1504 109.505 67.5306 108.682 67.5865Z" fill="white"/>
<path fill-rule="evenodd" clip-rule="evenodd" d="M64.0569 30.0464C66.5896 30.7305 67.0559 32.0447 65.6354 33.9162C64.5247 35.3797 63.0214 36.4284 61.5569 37.49C58.1385 39.9677 54.6394 42.3264 51.0076 44.4893C50.1193 45.0185 49.2051 45.048 48.2658 45.0809C47.938 45.0921 47.2136 45.0934 47.31 44.8363C47.5083 44.3108 47.0979 43.6752 47.7404 43.2282C50.6098 41.2323 53.2935 38.9917 56.0329 36.8244C57.2406 35.8687 58.5247 35.0065 59.7056 34.0199C60.504 33.3524 61.3332 32.6222 61.0435 31.3578C61.0087 31.2068 61.138 30.8697 61.2058 30.8659C62.296 30.8002 63.1865 29.8965 64.0569 30.0464Z" fill="white"/>
<path fill-rule="evenodd" clip-rule="evenodd" d="M22.7803 80.4887C21.0872 81.602 19.801 83.1631 18.1285 84.2721C17.6358 84.5986 17.0833 84.8485 16.6358 85.226C15.8969 85.8498 15.5046 85.1183 15.2165 84.7823C14.9367 84.4565 14.9218 83.8697 15.4271 83.4536C17.4904 81.7543 19.3134 79.7775 20.9539 77.7083C22.1232 76.233 23.7136 75.0926 24.4841 73.2178C24.7762 72.5082 25.5058 71.7944 26.005 71.0459C26.6724 70.0452 27.1933 71.1613 27.7729 71.3597C27.8643 71.391 27.8734 71.6869 27.9591 71.7082C28.3239 71.8005 28.7857 70.9324 29.0394 71.6885C29.3837 72.7146 29.7802 73.7018 29.031 74.8815C27.8412 76.7539 26.3609 78.334 24.7967 79.8549C22.6759 81.9169 20.6457 84.0957 18.0208 85.5628C17.8273 85.6709 17.6425 85.7969 17.4418 85.8894C17.2348 85.9849 16.9748 86.0443 16.8397 85.8224C16.668 85.54 16.8618 85.306 17.1082 85.1944C19.2615 84.2217 20.6999 82.372 22.4267 80.8773C22.5578 80.7636 22.663 80.6188 22.7803 80.4887Z" fill="white"/>
<path fill-rule="evenodd" clip-rule="evenodd" d="M76.0689 55.84C75.3867 56.2079 74.649 56.5017 74.0371 56.9624C73.323 57.4997 72.6908 57.4902 72.0208 56.9931C71.6227 56.6969 71.8426 56.2551 71.9654 55.9687C72.2817 55.2317 72.8938 54.7626 73.708 54.6881C73.9027 54.6704 74.1335 54.8761 74.2189 54.5555C74.6344 52.9891 76.2305 52.5235 77.1565 51.4276C77.4406 51.0918 77.8758 50.8172 78.2189 50.4866C79.2211 49.5214 80.1236 48.423 81.712 48.3762C82.082 48.3654 82.7071 48.2043 82.6615 47.6342C82.5222 45.8954 83.9183 45.1331 84.8646 44.125C86.4198 42.469 88.2114 41.045 89.704 39.3214C89.8723 39.1271 90.0245 38.8274 90.3155 38.9883C90.679 39.1897 90.0702 39.3971 90.286 39.6731C90.8406 39.5447 91.4538 38.9609 91.9099 39.9657C92.0726 40.3244 92.5605 39.9227 92.8177 39.6571C93.0135 39.4553 93.2185 39.2709 93.4697 39.5251C93.7734 39.8328 93.4038 39.9702 93.2567 40.1384C90.5772 43.2061 87.5564 45.9172 84.4678 48.5576C81.7478 50.8832 79.028 53.2093 76.3086 55.5342C76.2294 55.6356 76.1492 55.7376 76.0689 55.84Z" fill="white"/>
<path fill-rule="evenodd" clip-rule="evenodd" d="M53.7693 63.3027C52.0724 64.8375 50.367 66.3675 48.5579 67.7792C50.3867 67.0452 52.9325 64.887 53.7693 63.3027ZM52.1755 59.8553C52.5779 59.8465 51.2785 60.8889 52.5093 60.3648C52.5422 60.3507 52.6046 60.3324 52.6143 60.3451C53.1453 61.0452 53.7434 61.1742 54.5275 60.7025C54.7332 60.5788 55.6074 62.3135 55.5234 62.7343C55.3964 63.3693 55.0802 63.9181 54.6591 64.3911C52.282 67.0623 49.4143 69.0425 46.1032 70.3795C44.4812 71.0348 43.0951 70.5445 41.8849 69.4087C41.2351 68.7985 41.3696 68.3106 42.1637 67.8708C42.9995 67.4083 43.8132 66.8984 44.5969 66.3522C45.5012 65.722 46.3153 64.9822 47.2781 64.41C48.5426 63.6589 49.2708 62.3082 50.3156 61.294C50.8932 60.7344 51.4256 60.1522 52.1755 59.8553Z" fill="white"/>
<path fill-rule="evenodd" clip-rule="evenodd" d="M21.2311 49.575C21.5333 49.0786 21.7152 48.7801 21.9924 48.3249C21.7018 48.4467 21.5399 48.4638 21.4685 48.5533C20.8895 49.2779 20.2866 48.8888 19.8381 48.484C19.3578 48.0508 19.3853 47.3705 19.7561 46.8769C20.3611 46.0713 21.0205 45.2896 21.754 44.601C22.7661 43.6507 23.8606 42.7636 24.6755 41.648C25.5269 40.483 26.5994 39.4149 26.6952 37.8026C26.7401 37.0415 27.4562 36.7791 28.0361 37.2509C28.3508 37.5078 28.6777 37.5759 29.0364 37.653C31.3094 38.1419 32.0413 40.0428 30.5962 41.9509C28.5591 44.64 25.8929 46.6603 23.1634 48.5888C22.6417 48.9573 22.2008 49.5155 21.2311 49.575Z" fill="white"/>
<path fill-rule="evenodd" clip-rule="evenodd" d="M115.625 24.3458C115.854 23.5436 115.279 22.97 115.357 22.3016C116.387 22.4321 116.869 23.139 116.789 24.3064C116.702 25.5748 116.028 26.5838 115.184 27.3876C113.389 29.0973 111.768 30.9802 109.552 32.2787C108.685 32.7865 107.914 33.7777 107.027 34.4353C104.498 36.3113 101.904 38.0996 99.3287 39.913C98.8116 40.2773 98.2415 40.547 97.6237 40.7092C97.3075 40.7924 97.0277 40.7555 96.8273 40.4819C96.6122 40.1878 96.7181 39.9142 96.944 39.6834C97.2801 39.3399 97.5989 38.9677 97.9803 38.6821C101.511 36.0413 105.099 33.4736 108.57 30.7577C109.922 29.6994 111.109 28.3849 112.072 26.9376C112.517 26.2689 112.467 25.3912 112.59 24.5956C112.624 24.3789 112.407 24.0136 112.822 23.9556C113.619 23.8434 114.299 23.7038 113.919 22.6031C113.832 22.3528 114.188 22.328 114.416 22.3835C114.823 22.4825 115.288 22.6137 115.201 23.1296C115.12 23.6029 115.319 23.9078 115.625 24.3458Z" fill="white"/>
<path fill-rule="evenodd" clip-rule="evenodd" d="M83.7451 74.709C83.9331 74.9357 84.0548 75.0021 84.2223 74.7827C84.8324 73.9831 85.3911 73.1292 86.0969 72.4239C86.5237 71.9977 86.7396 70.9407 87.7751 71.5434C87.9397 71.6391 87.9634 71.4056 87.9168 71.2574C87.8079 70.911 87.9828 70.7253 88.2536 70.531C88.7153 70.2 88.9373 69.755 89.0028 69.1491C89.1229 68.0301 90.0106 67.7067 90.875 68.4107C90.9787 68.4956 91.1403 68.7309 91.1708 68.6596C91.8908 66.9764 92.2175 69.5516 92.8318 68.8073C93.0575 69.1266 93.1117 69.4706 93.0431 69.8591C92.8857 70.7495 92.3326 71.3901 91.7354 72.0044C89.4724 74.3319 86.6961 75.9298 83.8795 77.4543C83.2012 77.8219 82.3785 77.6311 81.622 77.6496C81.178 77.6604 81.0267 77.2545 80.9581 76.8868C80.8643 76.3829 81.112 76.3993 81.4455 76.6164C81.7087 75.828 82.3814 75.4136 82.9746 74.9203C83.2358 74.7032 83.4453 74.4121 83.7451 74.709Z" fill="white"/>
<path fill-rule="evenodd" clip-rule="evenodd" d="M39.967 110.139C40.0378 110.228 40.1083 110.317 40.1787 110.407C40.9015 109.739 41.6283 109.075 42.3409 108.397C42.4239 108.317 42.5825 108.177 42.4389 108.028C42.339 107.924 42.1401 107.849 42.0591 107.988C41.5439 108.88 40.4785 109.25 39.967 110.139ZM46.3222 101.384C46.7574 101.015 46.7413 100.18 47.7465 100.382C48.4733 100.529 48.2517 100.839 48.1536 101.207C48.7828 101.317 48.7326 100.521 49.3155 100.522C49.275 101.569 48.6574 102.417 48.4473 103.378C48.4331 103.404 48.4205 103.434 48.4089 103.466C47.4702 103.917 47.0316 104.85 46.3829 105.579C46.1153 105.88 45.9429 106.279 45.6441 106.537C43.24 108.611 41.1028 110.975 38.5868 112.935C36.6149 114.471 34.7762 116.177 32.7242 117.616C32.2524 117.947 31.811 118.33 30.9241 118.572C31.8032 117.658 32.4722 116.964 33.1409 116.269C33.1212 116.299 33.1025 116.329 33.0846 116.361C34.5229 115.74 35.395 114.419 36.7012 113.608C36.4327 113.221 36.2464 113.5 36.0702 113.49C35.7687 113.472 35.6403 113.246 35.5957 112.97C35.5735 112.835 35.5126 112.629 35.718 112.631C36.629 112.64 36.614 111.878 36.7892 111.324C36.9829 110.712 37.4111 110.461 37.9699 110.314C38.8308 110.088 39.4368 109.602 39.5987 108.677C39.7816 108.518 39.9643 108.359 40.1472 108.201C41.0705 108.019 42.7599 106.383 42.8977 105.537C43.3698 105.638 43.7901 104.805 44.2942 105.458C44.3422 106.03 44.3826 106.306 45.0443 105.787C45.8804 105.132 46.0806 103.989 47.0204 103.455C47.1599 103.377 47.1954 103.214 47.0687 103.081C46.9041 102.908 46.6978 102.947 46.616 103.132C46.261 103.933 45.4363 104.342 45.0212 105.083C44.8457 105.395 44.6767 105.665 44.256 105.481C44.4047 103.861 45.8806 103.122 46.6438 101.909C46.7448 101.749 47.2753 102.397 47.1949 101.743C47.156 101.425 46.7567 101.164 46.3222 101.384Z" fill="white"/>
<path fill-rule="evenodd" clip-rule="evenodd" d="M41.086 23.3068C41.466 22.7632 41.4424 22.1741 41.3897 21.6005C41.3619 21.2987 41.3412 21.0698 41.7008 21.0439C42.029 21.0202 42.1571 21.2808 42.2022 21.5386C42.3176 22.1955 42.0757 22.8285 41.7651 23.342C40.5804 25.3025 38.9327 26.8382 37.0595 28.1392C36.5036 28.5249 35.8822 28.8426 35.4032 29.3076C34.5326 30.1528 33.4329 30.1657 32.3726 30.2224C31.8774 30.2492 31.9538 29.615 31.9484 29.2612C31.9456 29.0587 32.1819 28.7308 32.379 28.6661C34.2836 28.0404 35.0736 26.1353 36.5535 25.0097C37.0411 24.6388 37.1293 23.6453 37.7637 23.1496C38.265 22.7578 38.6287 22.1975 39.3788 22.1477C39.8114 22.1194 39.6479 21.5284 39.9084 21.2729C40.0421 21.1417 40.1488 20.9694 40.3512 20.9966C40.5529 21.0235 40.7542 21.2559 40.6856 21.3712C40.2248 22.1456 41.1569 22.6242 41.086 23.3068Z" fill="white"/>
<path fill-rule="evenodd" clip-rule="evenodd" d="M76.0704 55.8403C76.1507 55.7379 76.2309 55.6359 76.3101 55.5345C78.0695 54.6614 79.6231 53.4566 81.1408 52.2498C83.2287 50.5897 85.201 48.7739 87.1272 46.925C88.7574 45.3601 90.6482 44.068 91.9979 42.1999C92.5458 41.4417 93.2858 40.814 94.3715 40.487C94.2503 41.8172 93.2223 42.4147 92.5154 43.1857C90.653 45.2179 88.52 46.9658 86.4106 48.7283C82.6048 51.9079 78.9304 55.2651 74.586 57.7404C74.3375 57.8819 74.1088 58.1069 73.6748 57.8358C74.2589 56.8902 75.3901 56.6147 76.0704 55.8403Z" fill="white"/>
<path fill-rule="evenodd" clip-rule="evenodd" d="M30.3384 59.666C30.844 59.4695 30.5701 58.4995 31.1808 58.809C31.7013 59.0733 31.3217 59.6927 31.0688 60.0825C29.5006 62.4959 27.2815 63.9983 24.4842 64.622C24.0605 64.7165 23.4416 64.8683 23.2452 64.2265C23.0704 63.6574 23.6221 63.4876 23.9734 63.2548C25.4461 62.2774 26.868 61.2577 27.6229 59.569C27.8123 59.1448 28.2146 59.0813 28.621 59.0295C28.7629 59.0113 28.9145 58.9601 29.0328 58.8814C29.9682 58.2583 30.5323 58.3172 30.3384 59.666Z" fill="white"/>
<path fill-rule="evenodd" clip-rule="evenodd" d="M39.7536 113.035C40.2248 111.75 41.5453 111.325 42.432 110.463C43.0889 109.826 43.6894 109.063 44.5755 108.655C44.796 108.553 44.9568 108.242 45.2095 108.489C45.4105 108.685 45.3863 108.968 45.1585 109.179C43.7872 110.447 42.4374 111.741 40.9131 112.83C40.5533 113.087 40.1276 112.963 39.7298 113.001L39.7536 113.035Z" fill="white"/>
<path fill-rule="evenodd" clip-rule="evenodd" d="M39.7304 113C39.7868 113.328 39.8705 113.641 39.5367 113.908C37.6449 115.423 35.7761 116.968 33.7105 118.249C33.5507 118.349 33.3978 118.644 33.1695 118.373C33.025 118.2 33.1209 118.019 33.2842 117.897C35.3872 116.332 37.4528 114.721 39.4405 113.01C39.4965 112.962 39.6475 113.024 39.7542 113.034L39.7304 113Z" fill="white"/>
<path fill-rule="evenodd" clip-rule="evenodd" d="M48.4098 103.466C48.4211 103.434 48.4341 103.404 48.448 103.377C48.7664 102.948 49.2849 102.67 49.4031 102.087C49.4453 101.879 49.4959 101.582 49.8 101.692C50.0718 101.791 49.965 102.039 49.8816 102.253C49.1388 104.152 47.983 105.804 46.7585 107.408C46.5481 107.683 46.0862 107.916 45.7882 107.666C45.4352 107.37 45.8466 107.053 46.0521 106.858C47.0741 105.886 47.7316 104.671 48.4098 103.466Z" fill="white"/>
<path fill-rule="evenodd" clip-rule="evenodd" d="M33.087 116.362C33.1048 116.33 33.1235 116.299 33.1436 116.27C32.5662 116.61 31.7401 116.535 31.4355 117.365C31.3853 117.502 30.8901 117.92 30.6136 117.506C30.3505 117.113 30.8027 116.894 31.052 116.759C32.179 116.148 33.1501 115.378 33.9045 114.196C34.1417 114.692 34.5869 115.093 33.7691 115.399C33.3296 115.563 33.3528 116.067 33.087 116.362Z" fill="white"/>
<path fill-rule="evenodd" clip-rule="evenodd" d="M40.1474 108.201C39.9644 108.36 39.7814 108.519 39.5989 108.678C39.4082 108.76 39.2177 108.841 39.0275 108.923C38.9821 108.87 38.9375 108.817 38.8925 108.763C39.4274 108.214 39.9626 107.666 40.4976 107.117C40.5682 107.163 40.6386 107.209 40.7091 107.256C40.522 107.571 40.3346 107.886 40.1474 108.201Z" fill="white"/>
<path fill-rule="evenodd" clip-rule="evenodd" d="M45.7545 101.83C45.7665 102.628 45.0945 102.975 44.658 103.471C44.2299 103.957 43.7621 104.409 43.3113 104.876C43.2787 104.568 43.3702 104.328 43.5988 104.096C44.3317 103.355 45.0381 102.587 45.7545 101.83Z" fill="white"/>
</svg>
