<svg width="60" height="60" viewBox="0 0 60 60" fill="none" xmlns="http://www.w3.org/2000/svg">
<path fill-rule="evenodd" clip-rule="evenodd" d="M22.149 29.6073C22.2579 29.6874 22.3061 29.7229 22.3794 29.7764C22.169 29.982 21.9631 30.1832 21.7547 30.3872C21.8233 30.4349 21.8745 30.4706 21.9395 30.5157C21.7285 30.7158 21.5254 30.9084 21.3122 31.1102C21.3728 31.1545 21.4213 31.1899 21.4753 31.2293C21.366 31.3696 21.2672 31.5281 21.142 31.6464C21.0545 31.7287 20.9276 31.7497 20.8238 31.8083C20.7134 31.8708 20.8998 32.0769 20.7869 32.2103C20.6792 32.3371 20.5508 32.4362 20.3901 32.5456C20.4842 32.6172 20.53 32.6523 20.6077 32.7116C20.3966 32.9179 20.1915 33.1184 19.9839 33.3213C20.0491 33.3653 20.1019 33.4006 20.1541 33.4358C19.9069 33.7033 19.6604 33.9705 19.3978 34.2553C19.4863 34.319 19.5356 34.3546 19.5856 34.3906C19.3428 34.6636 19.0981 34.9386 18.8425 35.2263C18.9428 35.3016 18.9896 35.3369 19.0265 35.3644C18.7766 35.6419 18.5328 35.9125 18.2788 36.1941C18.3708 36.2555 18.4235 36.2908 18.4742 36.3248C18.2272 36.5935 17.9813 36.8617 17.7198 37.1466C17.8084 37.2096 17.8584 37.2449 17.9167 37.2865C17.6717 37.5494 17.4266 37.8121 17.1717 38.0858C17.2512 38.1698 17.303 38.2244 17.3894 38.3158C17.1349 38.4492 16.8402 38.5046 16.764 38.8808C16.8092 38.911 16.862 38.9466 16.9249 38.9888C16.7098 39.1667 16.4975 39.3433 16.2688 39.5328C16.3662 39.6362 16.4177 39.6912 16.5123 39.7919C16.1017 39.9015 15.8396 40.2017 15.6647 40.6219C15.7168 40.6578 15.7685 40.6933 15.8423 40.7436C15.7957 40.7866 15.7672 40.8491 15.7238 40.8479C15.4776 40.8399 15.3535 40.9659 15.2993 41.2917C15.2933 41.3271 15.254 41.3513 15.2223 41.356C15.1751 41.3624 15.088 41.3155 15.0749 41.346C15.016 41.4866 14.9764 41.6675 14.7994 41.5965C14.6157 41.5229 14.449 41.3137 14.2572 41.2329C14.214 41.2147 14.1707 41.0631 14.14 40.9991C13.9593 40.9843 13.8065 40.9717 13.5769 40.953C13.7777 40.6468 13.9307 40.4139 14.1007 40.1554C13.8839 40.1053 13.8331 40.2293 13.7706 40.3823C13.7274 40.4874 13.577 40.4909 13.4813 40.5367C13.2416 40.1596 13.4355 40.0339 13.5174 39.9182C14.0683 39.1404 14.5011 38.2337 14.9633 37.3604C15.4599 36.4219 15.8763 35.3957 16.4016 34.4906C16.7521 33.8861 17.0544 33.2303 17.4184 32.6453C17.829 31.9856 18.1711 31.2495 18.6054 30.6197C18.8858 30.2126 19.0946 29.729 19.3815 29.3252C19.6538 28.9421 19.9105 28.5241 20.1472 28.0988C20.4033 27.6381 20.6742 27.1955 20.9561 26.7673C21.4829 25.9669 21.9958 25.15 22.5322 24.3601C22.8849 23.8409 23.2167 23.2895 23.5578 22.753C24.0561 21.9695 24.5946 21.2352 25.0824 20.4376C25.5059 19.745 26.024 19.1617 26.4689 18.4921C26.8385 17.9362 27.2335 17.4131 27.6153 16.8731C28.3005 15.9028 28.9851 14.9317 29.6825 13.9766C30.1306 13.3634 30.6037 12.7784 31.0288 12.1373C31.6644 11.1794 32.3917 10.34 33.0513 9.41617C33.4454 8.86355 33.8403 8.31471 34.2574 7.79119C34.7679 7.15127 35.2174 6.43 35.7425 5.81051C36.5273 4.88406 37.2479 3.87652 37.9948 2.90225C38.5569 2.16944 39.1577 1.48627 39.6233 0.632373C39.6875 0.514972 39.8249 0.477528 39.9191 0.409794C40.242 0.794901 39.8092 0.861648 40.0001 1.21632C40.0583 1.13427 40.0981 1.05115 40.1584 1.00064C40.2218 0.947305 40.3047 0.925449 40.4277 0.866557C40.4642 1.04533 40.4894 1.16775 40.5147 1.29103C40.6141 1.32693 40.7289 1.25316 40.8286 1.50233C40.8787 1.62684 40.7636 1.83748 40.9972 1.88775C40.9977 1.90824 41.0032 1.9333 40.9976 1.9481C40.9568 2.05176 40.9222 2.16266 40.8699 2.25365C40.6008 2.72285 40.3656 3.23729 40.0453 3.63955C39.6069 4.19044 39.2394 4.82463 38.8153 5.39004C38.1783 6.23904 37.5379 7.08359 36.909 7.94269C36.5103 8.48734 36.1293 9.05437 35.7382 9.61448C35.802 9.65724 35.8549 9.69308 35.9078 9.72891C35.9046 9.75178 35.9084 9.78533 35.8974 9.79315C35.878 9.80725 35.3387 10.2334 35.3079 10.2702C35.1284 10.4833 34.9483 10.696 34.759 10.9199C34.8544 10.9876 34.9045 11.0232 35.0307 11.1125C34.9148 11.1333 34.8592 11.15 34.7998 11.1518C34.7344 11.1538 34.6328 11.1014 34.6035 11.1428C34.4096 11.4151 34.2309 11.7062 34.0463 11.9934C34.1114 12.04 34.161 12.0752 34.2888 12.1666C34.1703 12.1858 34.1141 12.2009 34.0544 12.2027C33.9893 12.2049 33.8887 12.154 33.8593 12.1955C33.6656 12.4676 33.487 12.758 33.3022 13.0444C33.368 13.0919 33.4175 13.1275 33.5467 13.2205C33.4254 13.2381 33.369 13.252 33.3093 13.2536C33.2442 13.2554 33.1445 13.2069 33.1149 13.2485C32.9215 13.5199 32.7431 13.8099 32.5584 14.0959C32.6251 14.1443 32.6738 14.1796 32.8049 14.2745C32.6807 14.2909 32.6213 14.327 32.5647 14.2997C32.4601 14.2491 32.4136 14.258 32.3509 14.3533C32.0031 14.8828 31.6362 15.3893 31.2689 15.9131C31.3365 15.9601 31.3878 15.9954 31.4419 16.0329C31.4504 16.3545 31.0318 15.8709 31.0454 16.283C31.0508 16.448 30.841 16.5332 30.7141 16.6715C30.7987 16.7335 30.8469 16.7687 30.8934 16.8029C30.8897 16.8362 30.89 16.8768 30.879 16.9073C30.8747 16.9195 30.4614 17.1003 30.4505 17.1157C30.1867 17.4902 29.923 17.8644 29.6544 18.2461C29.7331 18.2992 29.786 18.335 29.8402 18.3715C29.4874 18.5469 29.3529 18.675 29.144 19.036C29.198 19.0723 29.2506 19.108 29.3028 19.1428C29.2911 19.1761 29.2881 19.2388 29.2652 19.2427C28.7178 19.3354 28.555 19.985 28.2012 20.3568C28.0148 20.5528 27.8966 20.8471 27.7472 21.0974C27.8091 21.1414 27.8587 21.1769 27.9111 21.2142C27.8889 21.2529 27.8788 21.3078 27.853 21.3099C27.4305 21.3469 27.2253 21.7517 27.0342 22.0997C26.7878 22.5488 26.4134 22.845 26.2516 23.3912C26.2875 23.4167 26.338 23.4521 26.4378 23.5225L25.7964 23.8297C25.8345 23.9469 25.8568 24.0156 25.8852 24.1027C25.8743 24.3695 25.4066 24.1206 25.5729 24.6658C25.4856 24.7076 25.3778 24.7465 25.2832 24.8096C25.2359 24.8415 25.1703 24.9338 25.1865 24.9707C25.2573 25.1314 25.217 25.1705 25.1358 25.2317C25.0233 25.3158 24.7364 25.2213 24.8981 25.6291C24.9067 25.6511 24.8354 25.7006 24.7976 25.7311C24.6828 25.8243 24.4212 25.7581 24.5762 26.142C24.451 26.224 24.3257 26.3057 24.2041 26.3849C24.2105 26.4915 24.2544 26.6515 24.2155 26.6918C24.1212 26.7901 23.9887 26.8338 23.8715 26.8992C24.0291 27.3011 23.7327 27.2314 23.6334 27.3398C23.6381 27.3892 23.6343 27.4168 23.6427 27.4269C23.6573 27.4444 23.6799 27.4491 23.6981 27.4637C23.7284 27.4878 23.7574 27.5153 23.8336 27.5824L23.2429 27.8652C23.3516 27.9457 23.3991 27.9807 23.4488 28.0177C23.4956 28.3008 23.114 28.0602 23.1878 28.403C23.2612 28.7448 22.9711 28.6158 22.8728 28.7397C22.7686 28.8715 22.6655 29.0049 22.5467 29.1571C22.5438 29.1311 22.5409 29.1586 22.5493 29.1683C22.5641 29.1857 22.5866 29.1906 22.6045 29.205C22.6343 29.2289 22.6632 29.2568 22.739 29.3247L22.149 29.6073Z" fill="white"/>
<path fill-rule="evenodd" clip-rule="evenodd" d="M51.057 39.821C52.9087 39.4255 52.4941 39.2563 52.5441 39.4745C52.6946 39.4844 52.8465 39.4941 53.0719 39.5089C53.0043 39.7229 52.9617 39.858 52.9185 39.9943C52.9549 40.0196 53.006 40.055 53.0573 40.0906C53.0478 40.1233 53.0479 40.1834 53.026 40.1911C52.4837 40.3791 52.1155 40.8868 51.5709 41.0807C51.0247 41.2754 50.4798 41.4988 50.0107 41.8413C49.6285 42.12 49.2243 42.3432 48.8163 42.5672C48.6905 42.6361 48.505 42.5198 48.4118 42.7285C48.3421 42.8848 48.1211 42.8922 47.9672 42.9659L47.4601 43.2088C47.3064 43.2824 47.1524 43.3552 46.9992 43.4299C46.8463 43.5037 46.694 43.5789 46.5435 43.6577C46.5325 43.6633 46.5366 43.6992 46.5262 43.7775C46.6841 43.7369 46.8173 43.7024 46.9506 43.6676C46.9643 43.698 46.9779 43.7281 46.9917 43.7582C46.8343 43.8412 46.6781 43.9265 46.5191 44.0058C46.3515 44.0899 46.1819 44.1696 46.0118 44.2485C45.9829 44.262 45.9412 44.2848 45.9164 44.2652C45.5785 43.9965 45.4075 44.1316 45.2667 44.4195C45.2138 44.5274 45.0603 44.5318 44.9528 44.5833C43.508 45.2752 42.0614 45.9636 40.621 46.6642C40.4642 46.7406 40.2257 46.7089 40.2154 47.0242C40.2146 47.0383 40.1835 47.0535 40.1716 47.0452C39.9299 46.8735 39.9491 47.2932 39.7867 47.219C39.5771 47.1234 39.5008 47.1941 39.4378 47.3848C39.4188 47.4433 39.2843 47.4195 39.1986 47.4006C39.0785 47.374 39.0388 47.2767 39.0799 47.1551C39.0501 47.1337 39.0157 47.0947 38.9918 47.0953C38.9595 47.0964 38.9113 47.1195 38.9127 47.1481C38.917 47.2347 38.9632 47.3413 38.9534 47.4158C38.9404 47.515 38.9117 47.6362 38.8504 47.6671C38.7449 47.7202 38.5486 47.6473 38.4992 47.7423C38.4201 47.8952 38.3367 47.9208 38.1771 47.9029C38.0685 47.8909 38.0047 48.076 37.8994 48.1296C37.4755 48.346 37.0431 48.5451 36.624 48.7458C36.5313 48.6609 36.453 48.5891 36.375 48.5178C36.3534 48.6202 36.332 48.7228 36.2918 48.9145C36.1456 49.0699 35.7089 48.9569 35.7501 49.5241C35.6504 49.4574 35.558 49.3956 35.4758 49.3407C35.1859 49.6716 34.8439 49.8631 34.4031 49.8471C34.1622 50.2792 33.6771 50.2355 33.3512 50.5003C33.2969 50.3664 33.2455 50.2096 33.2313 50.2094C33.0525 50.2043 33.1716 50.3939 33.1957 50.5477L32.7073 50.7816C32.7319 50.8963 32.7513 50.9874 32.7722 51.0838C32.7429 51.0778 32.7094 51.0843 32.6855 51.0632C32.4999 50.9004 32.31 50.8881 32.2355 51.0362C32.0616 51.3837 31.7222 51.4063 31.4535 51.5646C31.2221 51.701 30.9714 51.8006 30.7737 52.0212C30.9324 51.9732 31.0913 51.9255 31.2499 51.8772C30.9337 52.0844 30.7144 52.5486 30.2368 52.2006C30.0783 52.3246 29.9629 52.4474 29.8223 52.5195C29.3856 52.743 28.9394 52.9475 28.5062 53.1549C28.5366 53.2882 28.557 53.3791 28.5882 53.5149C28.4312 53.3786 28.3033 53.2674 28.1754 53.1563C28.237 53.3651 28.2606 53.6011 28.0621 53.5254C27.8522 53.4452 27.8206 53.5843 27.7117 53.6846C27.5124 53.8676 27.2385 53.9361 27.0324 54.1472C27.1601 54.1198 27.2878 54.0925 27.4222 54.0641C27.4251 54.1191 27.4399 54.1821 27.4272 54.1885C27.0914 54.3554 26.7633 54.5409 26.411 54.6705C26.151 54.7659 25.8293 54.7103 25.6015 54.8946C25.5646 54.9248 25.5325 54.9628 25.5288 55.0627C25.6616 55.0236 25.7944 54.9842 25.9273 54.9448C25.5708 55.1904 25.2703 55.5325 24.7759 55.4978C24.5571 55.4825 24.3809 55.6669 24.2094 55.8415C24.3094 55.8328 24.4096 55.824 24.5129 55.8149C24.5156 55.8592 24.5312 55.9225 24.5184 55.9289C24.3676 56.0072 24.2125 56.0767 24.0585 56.1486C23.8334 55.89 23.9222 56.3916 23.7032 56.2556C23.5608 56.1674 23.5345 56.548 23.2585 56.3947C23.1084 56.3117 22.9309 56.5242 22.803 56.6979C22.9351 56.6694 23.0675 56.6414 23.2079 56.6111C23.2026 56.6691 23.2113 56.7289 23.1944 56.7376C22.9666 56.8531 22.7273 56.9467 22.5062 57.0755C22.0748 57.3265 21.6181 57.5417 21.2411 57.8796C21.0379 58.0617 20.813 58.1869 20.6001 58.3424C20.4172 58.4756 20.2736 58.6775 20.39 59.1217C20.31 59.16 20.1555 59.2936 20.1126 59.2444C19.9251 59.0289 19.7045 59.1027 19.5556 58.9115C19.4149 58.7307 19.3127 58.7031 19.1587 58.6615C18.8479 58.5775 18.627 58.2378 18.5691 57.8312C18.4614 57.7618 18.3524 57.6919 18.2459 57.6231C18.2241 57.5708 18.1852 57.5139 18.1881 57.479C18.217 57.0969 18.3454 56.8467 18.5957 56.6625C19.0057 56.3607 19.3453 55.9377 19.8234 55.7495C19.9696 55.3749 20.335 55.3844 20.5923 55.2044C20.7937 55.064 20.9745 54.8863 21.1819 54.7576C21.3846 54.6316 21.6745 54.6246 21.8093 54.4247C22.0035 54.1373 22.2776 54.0305 22.5541 53.9357C22.9096 53.8139 23.1201 53.4572 23.4559 53.3114C23.7996 53.1614 24.1922 53.0769 24.4591 52.8096C24.9739 52.2934 25.7022 52.2129 26.248 51.7859C26.9245 51.2564 27.7661 51.053 28.4419 50.549C29.352 49.8698 30.4249 49.5407 31.3935 48.9927C31.5121 48.9257 31.6397 48.876 31.7615 48.8146C31.864 48.7629 31.9987 48.7525 31.9834 48.5429C32.1451 48.7398 32.1464 48.4374 32.2938 48.4991C32.3841 48.5368 32.4649 48.3305 32.5658 48.2614C32.6787 48.1847 32.8094 48.1397 32.9323 48.0808L33.255 47.9262L33.6239 47.7496L33.9928 47.5729L34.3156 47.4183C34.4385 47.3594 34.5557 47.2864 34.6859 47.2451C34.8398 47.1966 34.9468 47.0539 35.1711 47.1389C35.2791 47.1799 35.3647 46.9296 35.4869 46.8644C35.8632 46.6647 36.2576 46.5007 36.6341 46.3012C36.7744 46.2273 36.9868 46.2585 36.9959 45.9645C37.0017 45.7715 37.2648 46.1677 37.2749 45.8783C37.278 45.787 37.4638 45.6831 37.5094 45.7259C37.7677 45.967 37.6834 45.4536 37.8594 45.5939C38.1088 45.7925 38.041 45.4509 38.1469 45.4123C38.2067 45.3903 38.2762 45.3905 38.3411 45.3801C38.4549 45.3626 38.6627 45.3908 38.6662 45.3187C38.6804 45.0245 38.9377 45.183 39.0331 45.0271C39.1316 44.8651 39.3472 44.8355 39.515 44.7551C42.5268 43.3117 45.5427 41.8759 48.5479 40.4182C48.9486 40.2237 49.4374 40.1796 49.6908 39.7071C50.0253 39.8789 50.0843 39.482 50.2989 39.3964C50.9635 39.1313 51.5961 38.7945 52.2855 38.4644C52.3151 38.5856 52.3769 38.7507 52.3552 38.7653C52.0516 38.9667 51.8019 39.2546 51.4578 39.3961C50.7643 39.6817 50.0998 40.0318 49.4252 40.3591C49.4009 40.371 49.3976 40.4265 49.3843 40.4618C49.4264 40.4706 49.4714 40.4899 49.5098 40.4868C49.606 40.4786 49.7555 40.5995 49.7657 40.375C49.7682 40.3168 49.8798 40.3118 49.9412 40.2824C50.8313 39.8561 51.7214 39.4298 51.057 39.821C49.4675 40.6249 49.4571 40.599 49.4469 40.5733C49.276 40.5828 49.0981 40.5731 48.9366 40.6093C48.851 40.6286 48.3755 40.8882 48.2983 40.9067C48.2323 40.9224 48.1238 40.9323 48.12 40.9892C48.101 41.2711 47.8975 41.2558 47.7543 41.325C45.5735 42.3761 43.3903 43.4223 41.2032 44.4599C41.0749 44.5211 40.9787 44.6952 40.7687 44.5556C40.7287 44.5288 40.6396 44.5492 40.6361 44.583C40.6073 44.882 40.3659 44.8326 40.2196 44.9342C39.9197 45.1422 39.5215 45.1637 39.3025 45.535C39.2406 45.6398 39.0594 45.6183 38.9267 45.6337C38.671 45.6634 38.4272 45.7136 38.2872 45.9706C38.2383 46.0603 38.0491 45.9023 38.0791 46.1231C37.8521 45.9521 37.6717 46.0837 37.6086 46.2152C37.5037 46.435 37.2549 46.233 37.1592 46.4031C37.1421 46.4333 37.1006 46.4461 37.0981 46.4817C37.086 46.651 37.017 46.6467 36.8784 46.6118C36.7441 46.578 36.5828 46.6275 36.5085 46.7332C36.4122 46.8705 36.28 47.0039 36.1636 47.0208C35.9826 47.0472 35.8811 47.1774 35.7413 47.2545C34.6467 47.8565 33.45 48.2464 32.4251 48.998C31.66 49.5587 30.7047 49.7524 29.9432 50.351C29.2504 50.895 28.3513 51.0583 27.6527 51.6267C27.1019 52.075 26.357 52.1702 25.823 52.6821C25.5753 52.9196 25.2023 52.9631 24.9151 53.1475C24.6517 53.317 24.3307 53.349 24.1109 53.6461C23.906 53.923 23.5214 53.9717 23.2184 54.1258C23.1717 54.1498 23.1373 54.1991 23.0973 54.2367C23.206 54.3031 23.2645 54.2783 23.32 54.2479C23.8476 53.9599 24.4048 53.7408 24.8877 53.3512C25.4678 52.8834 26.2316 52.7595 26.8121 52.2562C27.3508 51.7892 28.1452 51.7755 28.6282 51.1815C28.6961 51.098 28.9207 51.375 28.8831 51.0738C29.0945 51.2587 29.0697 50.9666 29.1647 50.9172C29.9098 50.5308 30.7375 50.3067 31.373 49.7032C31.4581 49.6223 31.5962 49.5233 31.694 49.5794C31.9156 49.7065 31.8377 49.3796 31.9826 49.3909C32.1028 49.4002 32.2003 49.3003 32.3079 49.2487C32.9231 48.9541 33.542 48.6673 34.1506 48.3599C34.3071 48.2808 34.5362 48.3068 34.5688 48.0105C34.5725 47.9774 34.6952 48.0203 34.7576 48.0127C34.8406 48.0027 34.9858 48.0077 34.9866 47.9537C34.9901 47.7408 35.1127 47.8666 35.1943 47.8491C35.2756 47.8316 35.2953 47.6552 35.3748 47.6171C35.5031 47.5556 35.6061 47.3856 35.8121 47.5526C35.8238 47.3482 35.9631 47.3242 36.079 47.2706C36.1966 47.2162 36.298 47.094 36.4751 47.2501C36.4619 47.0098 36.6246 47.0106 36.7408 46.9543C37.5079 46.5824 38.2909 46.2431 39.0424 45.8402C39.7818 45.4434 40.6384 45.2737 41.2468 44.62C41.4042 44.7116 41.4892 44.5811 41.5988 44.5442C41.7404 44.4971 41.8373 44.3455 41.9731 44.2795C42.1304 44.2032 42.2631 44.038 42.4981 44.1795C42.5276 43.8547 42.7868 43.8924 42.9582 43.809C44.9826 42.8264 47.0143 41.8585 49.0432 40.8849C49.1914 40.8139 49.3331 40.7291 51.057 39.821Z" fill="white"/>
<path fill-rule="evenodd" clip-rule="evenodd" d="M25.9504 39.9147C25.9736 40.1687 25.9837 40.2766 25.9966 40.4164L26.4376 40.2052C26.4314 40.1833 26.4253 40.1614 26.4191 40.1398C26.3681 40.1432 26.316 40.1433 26.2664 40.1505C26.2181 40.1573 26.1728 40.1717 26.1144 40.1857C26.0808 40.0976 26.0229 39.9972 26.0362 39.9724C26.1012 39.8472 26.169 39.7166 26.2652 39.6352C26.4809 39.4525 26.7175 39.3035 26.9384 39.1292C27.0482 39.0423 27.1419 38.9289 27.2385 38.8319C27.5246 39.0776 27.2104 39.1006 27.2776 39.2743C27.6816 39.2978 27.7604 38.7566 28.1067 38.6835C27.8626 38.7022 27.6041 38.689 27.4585 38.9894C27.4502 38.9001 27.4136 38.7825 27.4393 38.7275C27.4916 38.6148 27.5716 38.5274 27.6515 38.4459C27.7822 38.3128 28.0318 38.386 28.0905 38.1231C28.1365 37.9178 28.3892 38.0151 28.4265 37.7465C28.4451 37.6114 28.6738 37.606 28.8238 37.5342C28.8891 37.9869 28.6107 37.9288 28.4693 38.057C28.3419 38.1725 28.2371 38.3237 28.1709 38.5367C28.4835 38.331 28.8323 38.1776 29.0984 37.9039C29.351 37.6437 29.5658 37.3276 29.8434 37.0806C29.6187 37.1659 29.3937 37.2514 29.169 37.3367L29.1281 37.2511C29.5303 36.9231 29.9329 36.5949 30.3352 36.2671C30.3581 36.3014 30.3808 36.3361 30.4035 36.3705C30.2314 36.5574 30.0594 36.7445 29.8877 36.9313C30.1035 36.8735 30.3842 36.9446 30.4507 36.604C30.8784 36.4317 31.1201 35.909 31.6422 35.8903L31.867 36.3597C31.8163 36.4483 31.6509 36.3163 31.6487 36.52C31.6475 36.6165 31.4275 36.5201 31.4994 36.761C31.519 36.8262 31.4819 36.9615 31.4624 36.9556C31.14 36.8595 31.0415 37.2177 30.8006 37.2783C30.7254 37.2971 30.6337 37.2719 30.5318 37.2658C30.5681 37.3737 30.6134 37.5091 30.6587 37.6451C30.4494 37.5411 30.4572 37.9815 30.2041 37.7583C30.2287 37.8695 30.2489 37.9602 30.2761 38.0835C30.0673 38.073 29.8253 37.9668 29.7142 38.2201C29.7638 38.2569 29.8116 38.2923 29.9307 38.3809C29.6163 38.4595 29.3444 38.5278 29.0634 38.5984C29.0336 38.8236 29.0056 39.033 28.9839 39.1969C28.8375 39.2639 28.6522 39.0324 28.6064 39.3175C28.5708 39.5404 28.4213 39.706 28.2854 39.8425C28.1982 39.9301 28.0493 39.9387 27.9178 39.9449C27.8244 39.9492 27.8234 40.1083 27.6596 40.0249C27.4881 39.9379 27.6381 40.2207 27.6201 40.3229C27.6031 40.4181 27.5669 40.5361 27.503 40.5585C27.246 40.6471 27.111 40.9539 26.8299 40.9923C26.8154 40.9942 26.7928 40.9712 26.7742 40.9597C26.7101 41.4954 26.2387 41.5001 26.0585 41.8585C25.908 42.1578 25.5173 42.0505 25.4578 42.4482C24.9006 42.9824 24.2804 43.4241 23.8204 44.1014C23.3939 44.218 23.2251 44.7296 22.8769 44.9786C22.5554 45.2091 22.2522 45.5168 22.0175 45.865C21.5924 46.4949 20.9608 46.8369 20.6062 47.5526C20.3673 47.5825 20.3282 47.8253 20.2785 48.0849C20.2509 48.2284 20.1142 48.2967 20.0413 48.3816C19.7273 48.2373 19.4583 47.9723 19.1826 47.968C19.11 47.7156 19.0364 47.4609 18.9491 47.1583C19.3374 46.6591 19.7009 46.0666 20.2021 45.6482C20.434 45.4543 20.5744 45.114 20.8039 44.9158C21.0894 44.6692 21.3292 44.352 21.624 44.1308C21.9389 43.894 22.1838 43.5625 22.4659 43.2847C22.6399 43.1131 22.8208 42.9302 23.0036 42.7856C23.3133 42.5411 23.5332 42.1716 23.8596 41.9541C24.0561 41.8234 24.1923 41.5864 24.3653 41.4108C24.483 41.2907 24.7071 41.3523 24.7582 41.1095C24.8016 40.903 25.1034 41.0305 25.0737 40.7204C25.3648 40.6667 25.5286 40.3936 25.7493 40.2187C25.8068 40.1734 25.8391 40.0865 25.9504 39.9147Z" fill="white"/>
</svg>
