<svg width="254" height="106" viewBox="0 0 254 106" fill="none" xmlns="http://www.w3.org/2000/svg">
<g opacity="0.761177">
<path opacity="0.739578" fill-rule="evenodd" clip-rule="evenodd" d="M23.8942 76.1484C23.9455 76.0964 24.0099 76.0428 24.108 75.9876C24.3075 75.9629 24.4893 75.92 24.665 75.8722C24.5945 75.9538 24.5234 76.0313 24.4601 76.136C24.7571 75.9398 24.6132 76.2663 24.5879 76.5284C24.4028 76.5499 24.2171 76.5919 24.032 76.643C24.0309 76.6372 24.0303 76.6331 24.0292 76.6282C24.0716 76.6216 24.1135 76.6092 24.1565 76.6059C24.1107 76.6076 24.0656 76.6001 24.0215 76.5886C23.9895 76.4295 24.011 76.3281 24.2793 76.4328C24.2061 75.8236 24.0358 76.3586 23.816 76.4517C23.7928 76.413 23.7807 76.371 23.789 76.3215C23.8231 76.2646 23.8562 76.2094 23.8942 76.1484V76.1484ZM27.0294 75.1826C27.0074 75.3466 26.9837 75.5099 26.96 75.6838C26.8826 75.5874 26.8378 75.4703 26.8422 75.2898C26.7948 75.2733 26.7447 75.2774 26.6955 75.2659C26.8088 75.2362 26.9187 75.209 27.0294 75.1826V75.1826ZM28.7581 53.6587C28.7739 53.8669 28.7967 54.0928 28.8266 54.3557C28.6456 54.5724 28.5287 54.1162 28.4119 53.5864C28.5498 53.5982 28.6649 53.6222 28.7581 53.6587V53.6587ZM29.008 13.9128C28.8463 13.925 28.696 13.9395 28.5262 13.9509C28.4561 13.9326 28.3826 13.9318 28.3126 13.9639C28.0376 13.9806 27.7586 13.9982 27.4654 14.0149C27.2518 13.0064 27.2855 12.1161 27.3509 11.1648C27.3697 11.087 27.3765 10.9399 27.3765 10.773C27.3778 10.7539 27.3792 10.7356 27.3798 10.7173C27.4964 10.7653 27.6137 10.8126 27.7242 10.869C27.7599 11.5962 27.7768 12.3555 27.828 12.9981L28.26 12.78C28.1178 12.0589 28.1582 11.5985 28.2 11.1411C28.4049 11.2684 28.6098 11.4026 28.8173 11.5368C28.76 12.4446 28.6549 13.0621 28.4163 12.7907C28.7836 13.5118 28.8099 13.3449 29.0586 13.2877C29.0323 13.5423 29.0168 13.7375 29.008 13.9128V13.9128ZM25.7871 14.6064C25.8399 14.0936 26.0156 14.1719 26.1799 14.5833C26.0499 14.5899 25.9181 14.5989 25.7871 14.6064V14.6064ZM25.8869 11.2248C25.8807 11.1802 25.8781 11.1283 25.8728 11.0813C25.9457 11.0656 26.0169 11.05 26.0942 11.0343L25.9967 11.2066L25.8869 11.2248ZM24.7057 11.2375C24.9412 11.1642 25.2039 11.0924 25.4965 11.0215C25.5 11.0603 25.4991 11.0875 25.5035 11.1287L24.7057 11.2375ZM38.588 11.648C38.5818 11.7215 38.5748 11.78 38.5695 11.8584C38.2198 12.7879 38.0986 12.2802 37.9826 11.6169L38.0441 11.5417C38.2339 11.5793 38.4114 11.6142 38.588 11.648V11.648ZM153.495 3.29767C154.295 4.17192 155.809 3.18659 156.046 4.33475C156.857 4.54399 157.566 4.59572 158.225 4.56301C158.015 4.68246 157.812 4.81105 157.611 4.94649C155.894 4.56986 154.039 4.19322 152.074 3.83942C152.572 3.74507 153.051 3.57844 153.495 3.29767V3.29767ZM202.942 2.01173C202.968 2.17853 202.989 2.33119 203.008 2.47325C202.738 2.40257 202.466 2.3319 202.188 2.26263C202.4 1.46185 202.717 1.51769 202.942 2.01173V2.01173ZM246.092 13.6078C245.524 13.8328 245.341 13.6952 245.213 13.5426C245.503 13.5253 245.792 13.5056 246.081 13.4792L246.092 13.6078ZM224.159 17.4432C224.52 17.7917 225.139 18.0915 224.978 18.5349C223.693 18.9205 222.572 18.9913 221.489 18.9517C221.493 18.8892 221.499 18.8294 221.501 18.7657C221.797 18.2716 222.08 17.7969 222.355 17.3353C222.586 17.5785 222.76 17.4823 222.943 17.3126C223.351 17.3379 223.765 17.3639 224.159 17.4432V17.4432ZM219.327 59.7552C219.331 59.8328 219.341 59.8976 219.362 59.9344L219.366 59.7722L219.593 59.8703C219.6 60.0229 219.608 60.1735 219.615 60.3595C219.654 60.4494 219.692 60.5135 219.731 60.5591C219.51 61.312 219.222 61.3754 219.042 61.5927L219.057 61.205C218.407 63.5066 218.696 61.6915 217.974 62.6549L218.31 60.337C218.321 60.5108 218.34 60.7009 218.374 60.9182C218.37 60.2096 218.386 59.7191 218.412 59.3573L219.327 59.7552ZM217.326 61.4734C217.341 61.1317 217.314 60.0031 217.426 59.4104L216.419 62.9019C216.157 64.5046 216.464 64.465 216.5 65.3692C216.487 65.5555 216.466 65.695 216.442 65.8065C216.375 65.7835 216.284 65.8022 216.154 65.9525C216.12 65.8885 216.088 65.8036 216.058 65.6986L216.258 63.6472C216.197 63.4278 216.153 63.3868 216.116 63.4443C216.134 63.2163 216.137 62.9746 216.084 62.6919L215.827 64.9944C215.822 64.6046 215.765 63.5493 215.83 62.9811L215.585 64.2442C215.676 62.7236 216.161 61.2849 216.338 60.4318C215.914 60.0578 215.739 61.6144 215.368 62.0762C215.366 61.7568 215.357 61.4418 215.339 61.136C215.626 61.0397 215.817 59.9478 215.994 58.5976C216.188 58.5739 216.387 58.5609 216.579 58.5329L217.975 59.0529C217.927 59.345 217.893 59.6536 217.917 60.0549C217.624 59.1177 217.541 61.7475 217.326 61.4734V61.4734ZM215.941 65.1932L215.812 65.824C215.749 65.9359 215.675 65.9605 215.593 65.9505C215.712 65.1166 215.794 64.2846 215.828 63.4793C215.88 63.791 215.923 64.1487 215.962 64.4804C215.963 64.7709 215.956 65.0033 215.941 65.1932V65.1932ZM212.368 76.6166C212.187 76.6351 212.007 76.6558 211.824 76.6698C211.849 76.3514 211.868 76.0345 211.882 75.7198C211.98 75.7974 212.053 75.6193 212.111 75.2751L212.492 75.5263L212.845 75.4177C212.845 75.4177 213.137 74.5467 213.527 73.1786C213.554 73.661 213.606 74.0902 213.715 74.3923C213.717 73.8065 213.761 73.2828 213.811 72.7842L213.633 72.8004C213.725 72.4643 213.823 72.106 213.922 71.7234C213.91 71.8357 213.902 71.9465 213.888 72.061C213.867 72.1348 213.855 72.2767 213.848 72.4384C213.835 72.5559 213.824 72.6667 213.811 72.7842L213.847 72.7805C213.853 73.0553 213.869 73.3847 213.908 73.839C214.097 73.2392 214.304 74.5667 214.46 75.0335C213.775 75.462 213.082 76.1261 212.368 76.6166V76.6166ZM210.97 85.4035C211.236 85.2304 211.509 85.1883 211.798 85.3499C211.507 85.345 211.231 85.3631 210.97 85.4035V85.4035ZM209.551 88.2115C209.71 88.1151 209.989 88.1044 210.131 87.9989C210.02 87.4865 209.229 88.3117 208.309 87.9935C208.402 87.9507 208.493 87.8987 208.583 87.8406L209.831 87.3412L209.406 87.1095C209.603 86.8954 209.795 86.6698 209.981 86.4518L210.313 86.3578C210.313 86.3578 210.319 86.3417 210.327 86.3172L211.823 85.7383C211.02 87.2296 210.433 88.2199 209.551 88.2115V88.2115ZM209.188 88.6787C209.192 88.6012 209.223 88.5468 209.268 88.5056L210.066 88.6161C209.857 88.7257 209.637 88.8016 209.188 88.6787V88.6787ZM207.816 92.3335C207.625 92.3137 207.433 92.2946 207.24 92.2754C207.174 91.573 206.54 91.4818 207.088 90.4079C206.622 90.3115 206.193 90.4741 206.151 91.5119C206.089 91.5083 206.028 91.4972 205.965 91.4972C205.824 91.2317 205.804 90.6815 205.772 90.107C205.871 90.0592 205.983 90.0254 206.08 89.9768C205.979 89.9849 205.87 89.9871 205.765 89.9923C205.747 89.7003 205.723 89.4097 205.673 89.1567C206.274 89.089 206.982 89.0294 207.702 88.939C207.541 89.2619 207.362 89.5193 207.616 89.5708L207.76 88.9324C208.765 88.8044 209.771 88.6014 210.548 88.2115L210.945 88.2645C210.062 90.0519 207.901 89.2869 207.816 92.3335V92.3335ZM211.887 98.9106L211.93 98.1413C212.167 98.1331 212.403 98.1183 212.638 98.1044C212.581 98.5919 212.526 99.0237 211.887 98.9106V98.9106ZM212.969 101.455C213.122 101.645 213.313 101.74 213.519 101.778C213.496 101.886 213.521 102.003 213.581 102.123C213.29 102.141 212.999 102.158 212.702 102.173C212.738 101.943 212.791 101.701 212.969 101.455V101.455ZM210.945 102.853C211.554 102.385 211.966 102.712 212.596 102.424L212.702 102.725C212.159 102.753 211.58 102.793 210.945 102.853V102.853ZM39.284 12.4362C39.2998 12.6703 39.3262 12.8451 39.3543 13.0034C39.2269 13.0421 39.0986 13.0825 38.9721 13.1204C39.074 12.9036 39.1803 12.6909 39.284 12.4362V12.4362ZM39.7183 12.2623C39.7183 12.0883 39.706 11.874 39.6893 11.6456C39.9547 11.7594 40.1858 11.8896 40.3949 12.0364C40.1699 12.1122 39.9512 12.1864 39.7183 12.2623V12.2623ZM176.397 5.282C176.233 5.31498 176.14 5.37763 176.082 5.4543C176.082 5.42875 176.075 5.40566 176.079 5.38011C176.185 5.33229 176.285 5.30673 176.39 5.26304C176.391 5.26963 176.396 5.27458 176.397 5.282V5.282ZM178.066 4.94646L177.674 6.40946C178.174 5.44836 178.71 5.74666 179.312 6.03071C179.132 6.23076 178.904 6.38312 178.65 6.50129C178.515 6.53262 178.379 6.56181 178.244 6.59527C178.026 6.59242 177.808 6.58673 177.595 6.55896C177.293 6.30765 176.866 6.09407 176.676 5.80788C176.81 5.65624 176.891 5.47897 176.957 5.30242C177.334 5.15291 177.703 5.03402 178.066 4.94646V4.94646ZM189.302 99.7532C189.697 100.162 190.219 100.568 190.735 101.091L190.643 101.367L190.661 101.402C190.071 101.371 189.577 101.258 189.382 100.665C189.243 100.634 189.112 100.615 188.978 100.589C189.088 100.274 189.19 99.9782 189.302 99.7532V99.7532ZM183.706 100.578C183.869 99.9418 184.173 99.7579 184.539 99.7532C184.613 100.054 184.592 100.284 184.519 100.482C184.244 100.51 183.973 100.541 183.706 100.578V100.578ZM181.07 100.578C181.155 100.198 181.361 99.9087 181.847 99.8319C181.872 99.8491 181.896 99.8697 181.919 99.8908L181.943 100.41L182.122 100.13C182.156 100.186 182.189 100.243 182.218 100.306C182.259 100.16 182.265 100.016 182.287 99.871L182.362 99.7532L182.827 100.359C182.238 100.426 181.658 100.503 181.07 100.578V100.578ZM158.188 100.19C158.116 100.105 158.055 100.039 157.993 99.9708C158.446 99.9262 158.807 99.89 158.99 99.9081C159.109 100.054 159.123 100.174 159.081 100.278L158.607 100.281C158.62 100.334 158.62 100.377 158.628 100.427C158.213 100.428 157.763 100.396 157.345 100.326C157.598 100.061 157.874 99.9716 158.188 100.19V100.19ZM163.295 6.0355L163.496 6.13442C163.254 6.29271 162.909 6.31497 162.555 6.33063C162.294 6.25067 162.017 6.1674 161.739 6.08414C162.269 6.13278 162.795 6.1336 163.295 6.0355V6.0355ZM197.083 89.5627C197.145 89.4827 197.208 89.4061 197.269 89.3261L197.568 89.5701C197.406 89.5668 197.244 89.5635 197.083 89.5627V89.5627ZM165.043 99.8427L164.767 100.488C164.683 100.3 164.628 100.113 164.586 99.9276C164.739 99.8995 164.89 99.869 165.043 99.8427V99.8427ZM175.798 91.4736L176.377 90.782C177.151 90.8496 178.224 90.6385 179.26 90.7572L179.312 90.8636C178.224 91.1126 177.094 91.3442 175.798 91.4736V91.4736ZM181.07 86.5627L181.41 86.1807C181.428 86.1835 181.443 86.1868 181.462 86.1896C181.454 86.1635 181.468 86.1414 181.467 86.117L181.804 85.7383C181.979 85.7644 181.961 86.1075 181.924 86.4818C181.653 86.5106 181.367 86.5372 181.07 86.5627V86.5627ZM175.798 90.0447C176.088 90.0373 176.381 90.0356 176.677 90.0876L176.517 90.3646C176.538 90.3712 176.566 90.367 176.588 90.372C176.251 90.6663 176.002 90.4305 175.798 90.0447V90.0447ZM174.124 90.4041C174.119 90.3118 174.104 90.2178 174.08 90.123C174.342 90.1716 174.608 90.2005 174.879 90.2104C174.744 90.3761 174.511 90.4618 174.124 90.4041V90.4041ZM173.159 90.0813C172.939 90.2775 172.644 90.4432 172.287 90.4976C172.321 90.4506 172.355 90.4061 172.389 90.3591C172.625 90.2577 172.855 90.153 173.079 90.0475C173.106 90.0582 173.131 90.0697 173.159 90.0813V90.0813ZM188.923 89.7389C189.19 89.6029 189.165 89.3868 189.109 89.1443C189.321 89.2282 189.557 89.2433 189.814 89.2295C189.821 89.4262 189.841 89.6274 189.856 89.8172C189.27 89.8341 188.7 89.8911 188.243 89.8385C188.273 89.6104 188.247 89.4137 188.099 89.3028C188.389 89.2176 188.665 89.1293 188.906 89.0359C188.907 89.0372 188.909 89.0372 188.911 89.0384C188.703 89.4701 188.507 88.7684 188.923 89.7389V89.7389ZM167.011 100.053C166.559 100.924 165.557 100.599 165.253 99.8912C165.808 99.8378 166.38 99.7967 166.948 99.7532C166.986 99.8419 167.014 99.937 167.011 100.053V100.053ZM198.65 89.0623C199.425 89.7507 200.423 89.2494 201.279 89.8339C200.456 89.7597 199.608 89.6822 198.758 89.6278C198.75 89.4671 198.612 89.2535 198.65 89.0623V89.0623ZM175.772 5.51208C175.633 5.69335 175.715 5.96312 175.372 6.09586C175.549 6.05518 175.675 5.98524 175.779 5.90317C175.782 5.98453 175.781 6.06588 175.798 6.14795C174.972 6.28212 174.148 6.39845 173.323 6.5476L173.805 6.6989C173.309 6.69747 172.814 6.70675 172.317 6.73458L172.034 6.51763L171.491 6.79096C170.552 6.8716 169.618 6.99435 168.688 7.15635C167.818 7.22415 166.95 7.31122 166.085 7.41969C165.093 7.16063 164.223 6.94011 163.496 6.76527C165.471 6.79025 167.594 7.15064 169.087 6.40773C168.184 6.07088 166.975 6.21504 165.878 6.01022C165.681 5.83965 165.43 5.67979 165.221 5.5128C165.261 5.48282 165.305 5.45999 165.345 5.42859C166.171 6.17008 167.479 5.10601 167.806 6.16009C171.009 6.70461 172.381 4.84981 175.499 4.95043C175.739 5.06391 175.772 5.27015 175.772 5.51208V5.51208ZM160.08 100.526C160.086 100.477 160.097 100.423 160.101 100.374L159.982 100.375C160.45 100.12 160.89 99.8718 161.66 99.7532C161.735 100.043 161.755 100.317 161.727 100.578C161.188 100.552 160.638 100.536 160.08 100.526V100.526ZM203.915 90.8532L203.886 91.4113C203.626 91.4753 203.372 91.546 203.121 91.6191C201.385 91.6354 199.739 91.8105 198.392 92.3335C198.229 92.2629 198.053 92.2158 197.872 92.1783C198.54 92.1862 199.144 92.136 199.362 91.7652C198.601 91.9053 197.76 91.9319 196.886 91.9047L196.991 91.6795C199.185 91.4566 201.291 91.1462 203.211 90.6847C203.453 90.7004 203.693 90.7439 203.915 90.8532V90.8532ZM39.4299 11.6742C39.4044 11.8915 39.3772 12.1029 39.3429 12.2726C39.2032 12.3045 39.0635 12.3348 38.9229 12.3661C38.9343 12.0768 38.9194 11.8014 38.8965 11.5417C39.0846 11.5841 39.2629 11.6289 39.4299 11.6742V11.6742ZM36.8295 12.3242C36.7999 12.4951 36.787 12.6395 36.7722 12.7864C36.302 12.9366 35.7804 13.0735 35.2094 13.1905L35.3102 11.5417C35.8792 11.5699 36.467 11.6919 36.9668 11.8438L36.8295 12.3242ZM34.6107 14.0149C34.6555 13.4941 34.6828 12.9536 34.6916 12.4365C34.7698 12.4108 34.8462 12.3828 34.9305 12.3661C34.9191 12.9604 34.9209 13.482 34.9244 13.9559C34.819 13.9756 34.717 13.996 34.6107 14.0149V14.0149ZM33.6365 12.978C33.7331 12.2329 33.6962 11.6214 33.6409 10.904C33.7498 10.8517 33.8684 10.7887 33.9967 10.7173C34.0038 10.9823 34.0415 11.235 34.1197 11.4693L34.147 12.0708C34.0169 12.7575 33.8614 13.5887 33.6365 12.978V12.978ZM32.7053 10.913C32.8547 10.8773 33.0295 10.8147 33.2378 10.7173C33.2527 11.7168 33.3063 12.6376 33.3203 13.1905C33.1016 12.5661 32.8986 11.7404 32.7053 10.913V10.913ZM33.382 13.8613C32.9508 13.9181 32.5363 13.9688 32.1469 14.0149L31.6948 12.1156L32.004 12.0635L31.8343 11.5417C32.2329 11.5537 32.4678 11.6553 32.8497 11.6065C33.0661 12.0234 33.2742 12.6354 33.4521 13.5299C33.4313 13.6508 33.4079 13.7597 33.382 13.8613V13.8613ZM30.9744 13.6943C31.1483 13.5789 31.3197 13.3934 31.5376 13.6143C31.339 13.6424 31.1545 13.6687 30.9744 13.6943V13.6943ZM30.2624 11.8595C30.3424 11.8315 30.4197 11.8035 30.4917 11.7812C30.4214 11.9164 30.3538 12.0384 30.3037 12.1266C30.2949 12.0467 30.2782 11.951 30.2624 11.8595V11.8595ZM18.3763 15.6638L17.636 15.3928C17.8242 14.4962 18.2648 14.7735 18.5146 15.6213C18.4694 15.6373 18.4209 15.6477 18.3763 15.6638V15.6638ZM220.108 60.3095C220.156 60.2955 220.202 60.2526 220.248 60.1817C220.208 60.4733 220.16 60.9794 220.094 61.8305L220.108 60.3095ZM223.847 35.5117C223.802 35.7508 223.756 35.9849 223.71 36.2117C223.648 36.1688 223.585 36.1226 223.524 36.0789C223.631 35.9165 223.739 35.731 223.847 35.5117V35.5117ZM224.798 38.9274C224.79 39.1063 224.78 39.2811 224.768 39.4493C224.666 39.3157 224.526 39.1533 224.331 38.9554C224.427 38.845 224.592 38.8466 224.798 38.9274V38.9274ZM229.565 48.815C229.571 48.7958 229.577 48.7922 229.582 48.7765C229.581 48.8192 229.581 48.8535 229.578 48.8986C229.624 48.83 229.668 48.7404 229.71 48.64C229.845 48.6941 229.981 49.2347 230.109 49.1487C230.116 49.3177 230.107 49.6665 230.102 49.9437C230.033 50.0639 229.961 50.1746 229.891 50.2888C229.885 50.198 229.881 50.1096 229.875 49.999C229.751 49.8529 229.529 50.2359 229.565 48.815V48.815ZM221.224 63.8551C221.108 64.0002 220.992 64.0793 220.876 64.1222C220.985 63.5608 221.117 63.5632 221.224 63.8551V63.8551ZM222.643 64.3037C222.857 64.5045 222.939 64.7807 222.979 65.1281C222.865 65.0427 222.744 64.9274 222.635 64.8733C222.635 64.706 222.638 64.5244 222.643 64.3037V64.3037ZM2.35571 72.6876C2.34912 72.9448 2.12915 72.9011 2.03853 73.0356C2.09126 73.5117 2.46529 72.7091 2.89534 73.0563L2.17447 73.6316L2.5798 74.0731L0.941147 75.3387C2.29475 75.6651 2.91593 73.8839 4.0199 74.5188C3.84524 74.6671 4.01661 74.7939 4.05945 74.9124C4.41041 74.6775 4.83058 74.6782 5.04643 74.3656L5.60501 74.3767C5.59842 74.6338 5.38339 75.2611 4.81246 75.2479C5.32325 75.2597 5.80356 75.182 6.26987 75.0712C6.40992 76.0602 6.54668 76.9654 6.67108 77.7285C6.50466 77.6813 6.38026 77.6127 6.36543 77.4692C6.14052 77.5219 6.03918 77.5004 6.01035 77.8567C6.21302 77.8996 6.66119 77.7915 6.40744 78.2004C5.99716 78.3682 5.80191 78.0667 5.47649 78.0986C5.49873 78.0001 5.73189 77.6903 5.60584 77.7666C4.80752 78.0036 3.32622 77.9891 2.56992 78.9566C2.85662 78.8644 2.88627 78.5096 3.26854 78.696C3.26195 78.9524 3.05928 78.9095 2.97607 79.0439C3.02303 79.5201 3.36906 78.7168 3.76698 79.0647L3.1013 79.64L3.47534 80.0815L1.96109 81.3471C3.21171 81.6735 3.7851 79.8916 4.80586 80.5271C4.64439 80.6755 4.80257 80.8023 4.84212 80.9208C5.16425 80.6872 5.54817 80.6852 5.74837 80.3788C5.84888 80.3941 5.98069 80.3927 6.12816 80.3816L6.26987 80.3851C6.2641 80.6415 6.06554 81.2694 5.53745 81.2563C7.38371 81.2999 8.79828 80.0115 10.6553 80.4717C10.7335 80.5923 10.4073 80.6242 10.5473 80.706C10.7961 80.5535 11.2064 80.3851 11.1899 80.2277C11.1669 80.3261 11.1207 80.5216 10.9584 80.5389C11.2649 80.4578 11.5228 80.4862 11.7559 80.5452C11.634 80.5611 11.5277 80.5999 11.4528 80.6789L11.4923 80.5805L10.942 80.7642C11.2674 80.751 11.8194 80.7669 12.256 80.7025C12.5295 80.7954 12.7775 80.8508 13.0461 80.6865C13.0799 81.0026 12.5732 80.8924 12.6515 81.0109C13.5989 81.2701 14.0916 80.2977 15.0464 80.3019C14.7309 80.7462 15.2573 80.76 15.5152 81.0213C16.2979 80.6256 17.9637 80.5299 19.1501 80.2215C18.8378 81.3381 20.4699 80.2541 20.5663 81.2015C20.8307 81.2091 21.241 81.0414 21.2699 80.6865C21.1232 80.8612 20.7656 80.5743 20.8126 80.3795C21.199 80.3109 21.7881 80.2853 21.84 79.8334L22.317 80.2977C22.3466 79.9456 22.4974 79.5215 22.7577 79.5215H22.7635C23.0955 80.0302 23.0304 79.7585 23.0642 79.5173C23.1944 79.5194 23.3254 79.5229 23.4572 79.5298C23.3031 79.8209 23.1656 80.0669 23.1062 80.3164C23.5124 80.4052 23.4564 80.1875 23.7431 80.096C23.837 80.3733 23.4597 80.8577 23.1507 81.047L23.6714 81.3166C24.1731 80.7566 25.0456 79.9685 25.8538 80.1459C25.7228 80.4786 25.46 80.4717 25.6725 80.9305C25.7986 80.8834 25.9411 80.7711 26.0919 80.6616C25.937 81.6728 25.7813 82.6979 25.6347 83.6862C25.2376 83.8865 24.9912 84.0958 25.5605 84.1873C25.5572 84.2081 25.5547 84.2282 25.5514 84.2483C24.716 84.4777 24.4071 83.8283 23.7892 84.0064C23.7217 83.6918 24.3247 83.601 23.9952 83.3605C23.3592 83.2933 22.9365 83.2489 22.415 83.4007C22.9217 83.506 22.27 83.6959 23.0708 83.8817C22.7627 84.0563 21.9504 84.125 21.9825 84.2816C22.2436 84.2081 22.4233 84.0709 22.8788 84.2726C22.0171 84.4417 21.1199 84.4514 20.2367 84.204C20.2689 84.1305 20.3562 84.0584 20.4575 83.9898C19.3099 84.5387 17.5856 84.396 16.8177 85.0336L17.1572 85.1611C17.4348 84.9844 17.9967 84.965 18.2208 85.1286C17.3582 85.2963 18.8312 85.7073 17.92 85.9734C16.667 86.2541 15.5531 85.5714 14.8693 86.2728C16.0614 86.3449 17.6688 86.7199 18.1532 86.4087L17.3837 86.3803L19.1394 85.5326C19.2069 85.8487 20.689 85.3337 20.6594 85.8452C20.0547 85.9367 19.5027 85.9311 19.0298 85.9838C19.1427 86.2035 20.6478 86.1023 21.283 86.1689L20.4831 85.9831C21.9133 85.5652 23.7406 85.7031 25.128 85.385C24.5694 85.5908 24.9467 85.6782 25.3307 85.771C25.3068 85.9318 25.2845 86.0885 25.2631 86.2444C24.992 86.2139 24.7614 86.049 24.8742 86.1301C24.8223 86.3415 25.0069 86.374 25.2433 86.3844C25.1939 86.7386 25.1469 87.0768 25.1033 87.3977C24.8718 87.4719 24.6633 87.537 24.4953 87.5855L24.8553 87.3145C23.7497 87.973 22.6333 87.2889 21.4956 87.7879C21.5426 87.6902 21.6727 87.6521 21.4602 87.6306C20.0547 87.535 19.4961 88.4561 18.3666 88.0291L18.5083 87.7359C18.4119 87.7706 17.7462 88.0125 17.8788 88.3382C18.8246 88.2308 19.0034 88.0957 19.8495 88.1837C19.5027 88.4505 18.7488 88.673 18.1936 88.6751L18.1326 89.19C17.42 89.7341 16.6933 88.9364 15.984 89.4791L16.8177 89.8249C16.793 89.8471 16.7271 89.8596 16.6752 89.8769C17.0525 89.8249 17.3771 89.7563 17.4669 89.6343C18.7208 89.3543 19.3651 90.0911 19.5669 90.3683C20.1544 90.5346 19.3569 91.0177 19.4277 91.3345C20.371 91.227 20.3166 90.6545 21.2616 90.5478C21.5599 90.6289 21.3786 90.764 21.2468 90.8036L21.9446 90.5145C21.98 90.6733 23.5989 90.7897 22.6399 91.1549C22.4974 91.1397 22.2329 91.1549 22.0278 91.1321C23.3468 91.5036 25.6297 91.9118 25.5572 92.4878C26.2773 92.6167 26.0771 92.3367 27.2231 92.5085C27.7553 92.0996 27.181 91.6789 28.4333 91.3982L27.4455 91.1945C27.242 91.2735 27.0731 91.3747 26.8507 91.4391L27.8797 91.3913C27.2296 91.5812 27.3458 91.7995 27.1539 92.1932C25.5729 92.2327 25.1379 91.5195 24.3371 91.331C24.7457 91.0725 25.3941 91.087 25.4172 90.8126C26.2245 90.8521 26.971 90.9533 27.3302 90.5991C27.4916 90.5631 27.6202 90.5686 27.7363 90.5838C28.1606 90.7717 27.5501 91.1314 28.5791 91.2416C29.0405 91.1279 29.5752 90.9075 30.1296 90.7703C30.1305 90.8472 30.1445 90.9172 30.2087 90.9644C28.2092 91.6318 30.2491 91.7947 28.0865 92.3408C28.0939 93.0103 28.9433 93.0991 30.1 93.0145C29.3461 92.729 30.5795 92.0331 29.5776 91.568C30.4641 91.3961 30.8596 90.9727 31.2929 90.6809C31.3498 90.6885 31.4083 90.6906 31.4651 90.7031L31.456 90.7911C32.8105 90.9865 33.7612 90.6455 34.7268 90.3752L34.9352 90.4265C34.2572 91.13 33.4226 90.7848 32.8879 91.1924C34.2201 91.8972 34.6757 90.5014 36.213 90.5596C36.5475 90.7696 36.5944 90.8999 36.4898 90.9921C36.2649 91.0524 36.0367 91.1182 35.8035 91.191C35.362 91.2658 34.866 91.3435 34.7095 91.5465C34.3206 91.6768 33.9293 91.8044 33.5379 91.9264C33.4934 91.8439 33.1581 91.7801 33.252 91.5895C33.023 91.8245 31.5228 91.9264 30.4633 91.8148C30.2211 92.3055 31.3819 92.2209 32.0517 92.4441C32.1827 92.3886 32.3145 92.3575 32.4463 92.3304C33.1771 92.424 33.7208 92.4392 34.1847 92.4129C34.6773 92.4836 35.142 92.5058 35.5498 92.2743C35.6289 92.266 35.708 92.2577 35.7928 92.25C36.8062 92.2528 35.7154 92.7262 35.7937 92.783C37.022 93.0145 36.3267 92.3748 36.718 92.2611C36.868 92.2313 36.9916 92.2223 37.1209 92.2084C37.2264 92.2098 37.3153 92.2071 37.4298 92.2112C39.2753 92.5716 39.8998 93.7471 41.4659 94.5185L40.7006 93.5482C43.2553 92.8821 42.4076 94.1151 44.445 93.237L44.2843 94.7514C45.0242 93.998 46.7485 94.6966 47.4513 95.1153L48.1557 94.0881C49.7103 94.7181 50.731 94.9988 51.1669 95.9664L51.0598 95.0002C51.6274 95.6254 57.1588 95.1104 55.1988 96.6796C55.6692 96.4786 56.1133 95.9976 57.1151 96.1403L57.223 97.103C58.687 96.9041 60.3166 96.771 60.7104 97.3241C59.9129 97.5265 59.6287 97.9389 59.3494 98.3513C63.271 98.5862 62.7767 97.2611 63.3237 96.2956C64.7251 96.1681 66.2443 96.1223 66.5788 96.6789C65.7953 96.8466 65.4929 97.2451 65.1947 97.6443C68.4333 97.9964 68.5989 97.051 68.9597 96.1819L68.9655 96.1854C69.4507 95.6988 70.1362 95.4708 70.9378 95.3849L70.9296 96.0461C71.5046 95.2539 73.0345 95.8562 73.6681 96.2346L74.0273 95.5055L74.6238 95.9116C74.7457 95.7986 74.8816 95.7044 75.0241 95.6205C75.1724 95.6378 75.3207 95.6559 75.469 95.6725C76.143 95.9615 76.6224 96.2699 76.9108 96.8792L76.7468 95.922C77.2782 96.5139 81.9742 95.6947 80.4122 97.3692C80.7994 97.1418 81.1446 96.638 82.0113 96.7308L82.1728 97.6859C83.411 97.4128 84.7951 97.198 85.17 97.7303C84.5026 97.9729 84.2884 98.3991 84.0784 98.8247C87.5954 98.8635 86.8803 97.4468 87.396 96.4439C87.4142 96.4481 87.4315 96.4529 87.4496 96.4578C88.2034 96.7655 89.0792 97.067 90.1222 97.1301C92.6407 97.7746 95.296 98.5786 96.2698 99.8192C98.1589 99.1241 96.0812 99.6134 96.1495 98.8558C96.5746 98.7505 96.9495 98.6812 97.2897 98.6354C98.818 99.2343 100.139 99.9364 100.71 100.801C102.582 100.196 100.543 100.586 100.663 99.8338C100.837 99.7978 100.996 99.7721 101.155 99.7472C101.38 99.8685 101.623 99.9814 101.907 100.074C102.973 99.874 102.649 99.7721 102.143 99.6474C104.331 99.5746 104.638 100.733 106.129 101.322C108.335 101.007 104.518 100.835 105.753 100.203C108.979 101.174 108.558 99.2253 112.57 100.157C112.919 100.724 111.479 100.455 111.02 100.779C113.993 100.012 119.279 101.007 123.568 101.113C128.384 102.143 135.571 102.918 141.2 104.175L141.34 103.835C143.627 104.894 146.281 104.232 149.019 104.821L147.712 104.221C148.063 104.13 148.376 104.081 148.675 104.046C148.893 104.134 149.143 104.128 149.434 103.996C149.854 103.993 150.251 104.019 150.66 104.044C150.889 104.731 151.157 105.266 151.659 104.891L151.666 104.079C151.868 104.077 152.079 104.069 152.302 104.051L153.165 105.117C153.417 105.09 153.615 105.056 153.778 105.016C154.34 105.306 154.805 104.776 155.255 103.969C155.318 103.945 155.386 103.92 155.463 103.896C156.613 104.423 158.747 104.405 160.191 104.383C160.215 104.417 160.23 104.456 160.26 104.487C160.27 104.45 160.289 104.419 160.301 104.382C160.856 104.373 161.3 104.366 161.522 104.394C162.036 104.893 160.768 104.987 160.471 105.25C161.284 105.179 161.787 105.002 162.236 104.816C162.435 105.164 162.614 105.491 162.82 105.524C162.823 105.121 162.85 104.81 162.892 104.551C163.449 104.34 164.1 104.182 165.322 104.257L165.34 104.532C165.698 104.477 166.076 104.448 166.442 104.405C166.333 104.622 166.193 104.854 165.981 105.121C166.323 104.619 167.033 104.674 167.425 104.292C168.448 104.195 169.491 104.123 170.565 104.085C170.595 104.198 170.62 104.324 170.634 104.479C170.719 104.335 170.761 104.206 170.789 104.081C171.412 104.061 172.046 104.053 172.681 104.046L182.969 104.978C182.684 104.789 182.442 104.455 182.199 104.109C183.529 104.109 184.843 104.082 186.14 104.026C186.173 104.101 186.203 104.175 186.243 104.254L188.229 104.225L188.002 104.629C188.171 104.617 188.273 104.448 188.366 104.226L195.068 104.116C195.286 103.963 195.424 103.791 195.515 103.606C196.542 103.605 197.564 103.592 198.576 103.563C198.624 104.218 198.825 104.626 199.368 104.451L199.456 103.529C201.238 103.457 202.975 103.324 204.625 103.096L204.42 104.121C204.78 103.888 205.052 103.477 205.252 103.002C205.844 102.91 206.427 102.809 206.992 102.689C207.37 102.796 207.741 102.91 208.094 103.047L208.123 102.698C209.019 103.57 209.938 102.725 210.966 103.105L210.457 102.604C210.478 102.583 210.497 102.571 210.519 102.553L212.233 102.416L212.486 103.093C212.874 102.896 212.908 102.639 212.962 102.358L213.909 102.282C214.009 102.433 214.178 102.578 214.383 102.671C214.501 102.374 215.339 102.096 215.118 101.835C215.282 101.797 215.413 101.77 215.484 101.78C215.696 102.242 215.238 102.423 215.144 102.707C215.937 102.359 215.868 101.4 216.862 101.377L216.881 101.65C219.242 100.203 222.264 100.566 224.916 99.673C224.737 99.6203 224.783 99.4096 224.714 99.2079C227.52 98.851 230.747 98.8295 233.023 96.4841C231.678 96.6906 229.526 95.4632 227.958 96.3864C227.936 96.3684 227.914 96.3496 227.894 96.3309L227.688 96.5707C227.576 96.6595 227.468 96.7593 227.364 96.8764C226.796 96.1584 225.904 97.1862 225.672 96.1722C223.993 95.8381 223.065 96.778 221.792 97.2721C221.813 97.1994 221.79 97.1238 221.693 97.0427C220.992 96.8577 220.811 97.173 220.878 97.5016C220.732 97.523 220.59 97.5522 220.431 97.5556C220.125 97.3754 220.271 96.8805 220.18 96.4072L221.868 95.9213L220.836 95.5235C221.28 95.0716 222.369 95.398 222.492 94.4956C221.668 95.0965 220.567 95.109 219.531 95.2213C219.819 94.7361 219.067 94.0978 219.414 93.6487L216.813 94.8962L218.691 94.2891C219.805 94.6239 219.649 94.9753 219.144 95.2663C218.469 95.3662 217.844 95.5491 217.37 96.0246C217.978 96.2491 218.731 95.9775 219.448 96.0537C219.765 96.3725 220.254 96.6054 220.224 97.0919C218.189 98.5024 216.494 97.8231 214.403 98.2924C213.914 98.4026 213.277 98.3326 213.116 97.9389C214.794 97.8398 216.407 97.5785 217.885 97.0455C215.526 96.8604 212.101 95.1742 209.166 95.4417C209.105 95.328 209.047 95.2261 208.993 95.1548C208.987 95.2275 208.998 95.3357 209.011 95.4556C208.624 95.4999 208.249 95.5845 207.885 95.7078C207.889 95.6739 207.904 95.6455 207.906 95.6087C207.777 95.6219 207.66 95.6371 207.546 95.6406C207.91 95.5228 208.268 95.4001 208.615 95.2677C207.893 95.3114 207.081 95.2989 206.218 95.2608C206.258 94.8422 206.3 94.3889 206.159 93.9814C208.271 93.6258 210.263 93.1344 211.99 92.3852C210.714 92.4635 209.13 92.3159 207.452 92.1655C209.194 91.1716 211.725 89.7688 213.477 87.6715C213.631 88.7354 214.059 88.7347 214.573 88.5586L212.814 89.5262L214.473 88.9087C216.327 89.5255 214.241 90.2269 213.545 90.4626C216.415 90.1514 214.819 89.0895 215.056 88.3771C215.498 88.2135 215.959 88.1054 216.346 88.515C216.421 89.0064 216.678 89.6184 216.293 90.5069L215.952 90.5339C217.425 91.1931 219.475 89.9545 221.163 88.4755L221.473 90.7107C223.694 91.8335 221.67 87.2009 224.215 86.9334C224.372 89.3009 226.999 88.4173 226.742 90.3038C227.236 90.1555 227.426 90.2678 227.75 88.8719C227.374 88.6453 226.385 88.9482 227.207 87.4046C228.164 86.8536 228.332 88.0977 229.015 88.0624C228.895 88.4443 228.19 89.6031 228.502 89.337C230.296 88.621 233.282 89.0868 235.564 85.4765C234.91 85.762 234.576 87.1538 233.945 86.313C234.156 85.3011 234.533 85.5278 234.807 85.0197C235.076 83.129 233.757 86.2015 233.217 84.7196L235.012 82.632L234.589 80.7877L238.655 76.2113C236.348 74.5749 233.812 81.4489 232.22 78.6572C232.661 78.118 232.436 77.5718 232.445 77.095C231.604 77.9322 230.814 77.8199 230.172 79.0023L229.128 78.8138C229.332 77.8005 230.211 75.3768 231.279 75.5743C228.973 75.1488 226.632 76.7678 224.368 77.5385C224.15 77.4179 223.573 77.9426 222.92 77.6481L224.21 77.0728L223.483 76.632L226.419 75.3657C223.995 75.0393 222.884 76.8205 220.906 76.1856C221.218 76.0373 220.912 75.9105 220.835 75.7927C220.207 76.0269 219.455 76.0262 219.069 76.3395L218.068 76.3284C218.079 76.0706 218.465 75.4433 219.487 75.4565C218.532 75.4447 217.639 75.53 216.771 75.6499C216.405 75.4184 216.02 75.3726 215.523 75.8044C215.68 74.5451 216.637 75.1155 216.562 74.6248C215.963 74.1909 215.372 74.3413 214.775 74.7114C214.561 71.2924 215.255 74.0038 215.398 72.8734L215.596 72.5012L215.674 72.4908C215.702 72.9032 215.696 73.4154 215.601 74.157C215.677 73.4181 216.018 73.669 215.948 72.4714L216.704 72.4C216.733 72.5518 216.762 72.741 216.789 73.0092C216.808 72.7743 216.805 72.5809 216.795 72.3917L220.084 72.0645C219.91 71.7762 219.735 70.9279 219.552 70.5196C219.661 68.7675 219.471 69.2631 219.344 68.8888L219.866 68.8604C219.808 69.3116 219.785 69.9007 219.871 70.7996L220.122 69.8155L220.13 70.6063L220.473 70.3381C220.403 69.6013 220.354 69.2402 220.317 68.8354L220.596 68.8195C220.639 69.3844 220.681 70.0878 220.883 70.9438L221.4 70.67L221.375 71.097C221.418 71.0644 221.43 70.8856 221.436 70.6541L223.175 69.717C223.317 69.1168 223.228 68.4376 223.131 67.6267L223.71 67.4001L223.653 67.8249C223.708 67.7951 223.734 67.6163 223.755 67.3848L223.915 67.321C224.01 68.683 224.123 69.8771 224.323 69.4856L224.167 67.2212L224.274 67.179L224.363 67.2968C224.344 67.2566 224.328 67.2067 224.31 67.1651L225.518 66.6848L225.6 68.4965C225.701 68.1001 225.724 67.3751 225.7 66.6127L225.899 66.5337L225.882 66.8054L226.364 66.5656L226.298 64.6194C226.282 65.0678 226.182 65.9078 226.083 65.5072C226.084 65.2806 226.071 65.0401 226.053 64.7878L226.054 64.0219L226.028 64.4329C225.973 63.701 225.918 62.8631 226.07 61.8748C225.635 61.8782 225.017 60.5309 224.889 62.7633C224.903 62.3766 224.905 61.9219 224.842 61.6849L224.549 64.0143L224.793 64.7594C224.597 66.3029 224.156 66.5836 223.839 66.1774C223.804 65.6465 223.768 65.151 223.728 64.7802L223.696 65.9252C223.606 65.7152 223.537 65.44 223.505 65.1129C224.003 64.3241 223.787 61.5261 224.455 63.0523C224.433 62.3336 224.321 61.0687 224.48 60.6778C223.669 61.4956 222.961 60.1989 222.108 62.6136C222.48 63.9727 222.258 64.3948 222.051 65.1149C222.041 65.0484 222.032 64.9736 222.019 64.9237L222.001 65.2986C221.877 65.7755 221.777 66.402 221.842 67.4687L221.912 67.2788L222.145 67.9968C222.132 68.2865 222.107 68.5326 222.075 68.7384L222.028 68.7405C222.04 68.7599 222.054 68.7724 222.066 68.7869C221.869 70.0102 221.404 69.7302 221.187 68.7869L222.028 68.7405C221.832 68.4452 221.669 67.5927 221.468 67.179C221.578 66.3535 221.576 66.0319 221.532 65.878C221.591 65.9106 221.67 66.0367 221.78 66.3022C221.73 65.6791 221.607 64.6485 221.645 64.1287C221.668 64.2015 221.688 64.2819 221.707 64.374C221.715 64.2056 221.711 64.0434 221.711 63.8799C221.733 63.8528 221.755 63.8279 221.776 63.7932C221.749 63.7898 221.729 63.8071 221.712 63.8348C221.71 62.8589 221.605 61.9205 221.632 60.7256C221.135 59.2334 221.011 64.9008 220.523 64.0358C220.553 62.6164 220.716 61.3764 220.389 61.5663L220.474 61.2621C220.144 62.2421 220.076 60.7852 219.988 60.4477C220.087 60.2176 220.176 59.8482 220.255 59.3692C220.331 59.0532 220.432 58.6228 220.543 58.0933C220.667 59.0996 220.733 57.019 220.932 57.3177C220.859 58.1757 220.676 59.6382 220.708 59.8794C220.896 56.6932 221.833 61.7611 221.86 59.5002C221.913 58.7344 221.987 58.0316 222.065 57.342C222.451 57.7003 222.88 56.8769 223.217 55.1192C223.016 55.5531 223.016 55.2176 223.05 54.6874C223.175 54.6542 223.301 54.5904 223.44 54.7921C223.442 54.817 223.445 54.8309 223.447 54.8517L223.436 55.7347C223.5 55.8906 223.567 55.8962 223.637 55.8525C223.571 56.2129 223.525 56.4978 223.536 56.5934C223.588 56.2185 223.646 55.9676 223.708 55.7971C223.815 55.6917 223.928 55.5316 224.054 55.5829C224.091 55.6162 224.129 55.6619 224.166 55.7174L224.31 57.4307C224.405 57.1132 224.566 56.9032 224.739 56.7847C224.82 56.8831 224.888 56.8748 224.941 56.696C224.988 56.6863 225.036 56.6724 225.083 56.6787C225.072 56.4576 225.051 56.3003 225.027 56.1658C225.068 55.9059 225.115 55.664 225.16 55.4152C225.167 55.6737 225.184 55.9676 225.214 56.3106C225.555 55.1068 226.049 53.3768 226.272 51.0584C226.463 52.4224 226.585 51.8756 226.739 51.5152C226.842 51.5193 226.948 51.4805 227.053 51.4777C227.056 51.484 227.058 51.4868 227.061 51.4937C227.129 51.9685 227.254 52.5354 227.249 53.4648L227.168 53.5383C227.445 53.8238 227.699 53.3054 227.915 52.4543C228.01 52.4217 228.105 52.4321 228.198 52.5555L228.247 54.3062C228.488 53.7892 228.93 53.5376 229.284 53.5931C229.306 52.5673 228.973 52.7572 229.148 51.5193C228.97 51.4881 228.817 51.7065 228.862 52.814C228.831 52.8099 228.808 52.7426 228.787 52.6518C228.792 52.1036 228.661 51.0848 228.629 50.2246L228.97 49.6702C229.063 50.034 229.166 50.2253 229.269 50.3591C229.246 50.5351 229.241 50.6599 229.302 50.671L229.313 50.4159C229.457 50.5871 229.596 50.6925 229.692 51.0723C229.545 51.5103 229.446 52.1223 229.481 53.2313C230.012 52.0447 230.786 50.3445 231.276 48.0449C231.475 50.2212 231.877 47.5902 232.253 48.5245C232.297 49.0013 232.407 49.5745 232.317 50.5012L232.206 50.5698C232.716 51.0404 233.338 49.5621 233.833 47.8896L234.025 50.0625C234.799 50.8969 233.947 46.5693 234.773 45.9843C234.919 48.3034 235.747 47.0919 235.738 48.9882C235.895 48.7789 235.962 48.8648 236.012 47.4433C235.879 47.2686 235.567 47.6949 235.775 46.064C236.068 45.3966 236.173 46.604 236.396 46.4806C236.372 46.8736 236.186 48.1093 236.277 47.8065C236.839 46.8673 237.838 46.9429 238.446 43.081C238.243 43.4483 238.189 44.8657 237.947 44.1165C237.977 43.0893 238.109 43.2647 238.179 42.7275C238.194 40.8243 237.881 44.0305 237.645 42.6367L238.153 40.3419L237.941 38.5738L239.099 33.5282C238.273 32.2092 237.711 39.3272 237.075 36.7753C237.199 36.1855 237.103 35.6753 237.087 35.202C236.843 36.1376 236.579 36.1293 236.413 37.3803L236.063 37.329C236.089 36.3012 236.281 33.7929 236.641 33.8504C235.378 33.6564 234.306 38.7949 233.076 36.9368C233.032 36.4544 233.257 36.3282 233.168 36.0011C232.986 36.6082 232.693 37.2798 232.693 37.9078C232.716 37.5162 232.763 36.7323 232.875 36.6658C232.2 37.6721 231.911 34.5414 231.459 36.0558C231.459 34.791 231.798 35.2366 231.753 34.7605C231.38 34.1436 231.087 35.2456 230.775 36.2464C230.758 36.2901 230.743 36.3393 230.728 36.3948C230.526 37.0296 230.314 37.5855 230.067 37.5772C230.231 36.3899 230.125 35.9699 229.989 35.509C230.052 35.0488 230.315 36.0226 230.317 34.8471L230.331 35.2408L230.438 34.4714C230.307 34.583 230.023 34.4777 229.983 35.4903C229.917 35.2671 229.845 35.0335 229.793 34.696C229.233 36.2721 228.089 36.6436 227.262 37.8676C227.537 33.4055 226.364 37.7297 226.347 33.9392C226.167 33.908 225.877 34.5747 225.841 35.9949C225.948 35.2962 226.179 36.4474 226.136 37.2258C226.005 37.3595 225.841 37.4538 225.701 37.729C225.498 37.4129 225.368 37.8121 225.254 38.4151C225.252 38.4144 225.25 38.4144 225.247 38.4137L225.106 37.5446C225.098 37.8163 225.087 38.0977 225.074 38.377C225.045 38.3721 225.017 38.359 224.985 38.3576C224.186 37.2715 225.652 38.0776 224.634 36.7794C224.51 36.69 224.361 36.5965 224.224 36.5057C224.316 35.7176 224.451 34.9552 224.571 34.5428L224.428 34.0944C224.547 33.6952 224.664 33.2384 224.775 32.6964C224.606 32.9605 224.503 33.7784 224.369 33.9114L224.227 33.4616C224.297 32.7297 224.416 32.8198 224.502 32.336C224.58 30.4342 224.136 33.6314 223.929 32.2314L224.553 29.9504L224.381 28.1782L225.822 23.1651C224.952 21.8247 224.106 28.9254 223.497 26.3575C223.649 25.7711 223.561 25.2582 223.557 24.7855C223.263 25.7143 222.973 25.699 222.758 26.9452L222.376 26.8849C222.434 25.8578 222.713 23.3557 223.108 23.4229C221.715 23.1914 220.428 28.3057 219.131 26.4323C219.091 25.9499 219.34 25.8273 219.249 25.498C219.098 25.9312 218.889 26.397 218.776 26.8565C218.766 26.8523 218.758 26.8489 218.747 26.8447C218.785 26.5162 218.839 26.1987 218.915 26.1585C218.569 26.616 218.326 26.2001 218.114 25.7635C218.192 25.6027 218.272 25.4398 218.353 25.2728C218.778 25.5417 219.205 26.5363 219.239 23.4583C219.367 23.1949 219.498 22.9281 219.629 22.6598C219.611 22.7791 219.594 22.9121 219.58 23.075C219.617 22.9149 219.642 22.743 219.671 22.5753L219.677 22.5635C221.163 22.1435 222.732 22.1102 224.33 22.1608C224.301 22.2689 224.274 22.3882 224.251 22.5309C224.386 21.8309 224.596 22.6321 224.779 22.1768C226.385 22.2391 228.009 22.3431 229.596 22.1671C229.391 22.0811 229.491 21.8829 229.451 21.6715C230.55 21.7276 231.692 21.8254 232.843 21.8746C232.843 22.086 233.039 22.3507 233.32 22.5171C233.46 22.2807 234.124 22.1206 234.213 21.9037C236.247 21.8961 238.267 21.6237 240.083 20.5827C238.193 20.5161 235.439 18.4369 233.157 19.8806C232.624 19.0662 231.325 19.9062 231.262 18.8659C228.675 18.0182 227.201 19.5964 224.622 19.2457C224.292 19.0121 224.573 18.5526 224.566 18.0702L226.713 17.9046L225.55 17.3224C226.185 16.9585 227.431 17.4846 227.775 16.6203C226.182 17.2357 224.174 16.6036 222.502 16.806C222.679 16.4421 222.846 16.0977 223.004 15.7699C223.011 15.7705 223.02 15.7712 223.026 15.7712C223.778 15.9175 224.537 16.0415 225.301 16.1538C225.128 16.3021 224.865 16.4158 224.77 16.5662C225.133 16.4858 225.388 16.3514 225.607 16.2037C230.812 16.9363 236.257 16.9363 241.197 16.7513C241.485 16.7831 241.835 16.7055 242.214 16.5801C243.867 16.6626 245.499 16.7111 247.081 16.7429C247.943 16.8982 249.516 15.9847 250.764 15.7179C249.547 15.1482 249.24 15.6555 247.955 15.3547C247.352 15.0047 247.169 14.3248 246.912 13.6469C249.465 13.4633 251.935 13.0225 254 11.8754C251.535 11.9572 247.528 10.1052 244.878 11.734C244.016 10.9661 242.509 11.9101 242.208 10.8787C242.025 10.8469 241.868 10.8441 241.696 10.824C241.69 10.7436 241.683 10.6632 241.686 10.5731L241.634 10.8171C241.02 10.7484 240.448 10.7311 239.929 10.7789C239.75 10.7041 239.594 10.6202 239.484 10.5197C240.964 10.1482 242.365 9.55633 243.525 8.46818C241.817 8.72878 238.951 7.19983 237.171 8.87779C237.025 8.79809 236.923 8.68442 236.901 8.51531C237.276 8.40649 237.515 8.15005 237.723 7.86172C237.827 7.86727 237.936 7.87974 238.058 7.90885L237.845 7.082L236.232 7.55676C236.272 7.6032 236.308 7.63093 236.346 7.66697C235.945 7.88321 235.737 8.27758 235.551 8.69205C235.387 8.64492 235.253 8.52847 235.18 8.24916C233.112 7.89083 232.038 9.03304 230.378 9.47315C229.951 9.44266 229.62 9.31928 229.55 9.00462C230.029 8.85353 230.269 8.48343 230.499 8.10569L230.865 8.01351L229.699 7.61568C230.205 7.16656 231.436 7.48815 231.58 6.58506C229.902 7.67043 227.226 6.8318 225.763 8.10916C226.098 8.21936 226.475 8.21035 226.867 8.18262L226.167 8.48065L227.318 8.15005C227.585 8.13134 227.855 8.11747 228.12 8.14311C228.248 8.25817 228.398 8.36421 228.541 8.47302C228.415 8.62758 228.32 8.80571 228.238 8.99423C227.528 8.76967 226.818 8.6366 226.151 8.89651C225.426 8.95126 224.814 7.57271 223.471 7.49577L223.37 8.21797C223.361 8.21451 223.359 8.21035 223.348 8.20688C223.259 8.20272 223.198 8.20896 223.118 8.20896C222.906 8.00728 222.618 7.80073 222.283 7.5831L222.27 7.43339L222.127 7.4826C221.515 7.09378 220.786 6.66962 220.112 6.18307L220.125 6.17891L220.111 6.18237C219.194 5.51908 218.387 4.73936 218.154 3.76835C216.996 4.35331 218.22 3.98182 218.041 4.72619C215.88 5.42621 216.049 3.92221 215.125 3.21457C213.823 3.5119 215.981 3.70736 215.189 4.32629C214.381 3.86053 213.952 4.04697 213.496 4.27638C213.296 4.0234 213.17 3.77528 213.616 3.48626C212.186 3.02813 210.493 3.49111 209.062 3.91875C208.103 3.79953 207.094 3.61587 206.12 3.51814C206.109 2.99209 206.098 2.45979 206.089 1.9178C205.826 1.91364 205.561 1.90325 205.298 1.89839C205.399 2.59772 205.275 3.07249 205.211 3.45923C205.189 3.45854 205.166 3.45507 205.143 3.45438C204.976 3.39408 204.791 3.33586 204.615 3.27695C204.661 2.85001 204.703 2.38633 204.769 1.88592C203.809 1.8679 202.85 1.83671 201.89 1.81592C201.819 1.98157 201.744 2.18325 201.667 2.41959L201.618 2.40712L201.661 1.81037C201.528 1.8076 201.396 1.80344 201.263 1.80067C201.137 1.90948 201 1.89562 200.859 1.79097C200.639 1.78612 200.418 1.77988 200.198 1.77503C200.11 1.95176 200.023 1.92612 199.947 1.76879C199.63 1.76117 199.314 1.75284 198.998 1.74591C197.731 1.42293 196.474 1.07224 195.336 0.651531L195.233 0.991838C194.895 0.712524 194.531 0.571132 194.152 0.493506C194.139 0.375681 194.139 0.257857 194.177 0.144191C194.143 0.284195 194.109 0.390233 194.075 0.481028C193.085 0.303597 191.986 0.560738 190.899 0.189936L191.617 0.755493C190.523 1.28155 189.987 0.857377 188.989 1.04174L188.544 2.76566e-05C187.458 0.253005 187.997 0.807473 187.185 1.28224C186.528 0.77975 185.255 0.89134 184.433 0.962035C184.194 0.892033 183.946 0.849062 183.693 0.822725C183.649 0.472023 184.221 0.338258 184.375 0.0998353C183.763 0.229443 183.451 0.52123 183.117 0.779752C182.381 0.745097 181.612 0.745097 180.861 0.466475L181.509 1.00085C181.163 1.11382 180.805 1.20323 180.447 1.28848C179.915 1.28155 179.458 1.14432 178.804 1.22957L178.393 0.16845C177.235 0.369445 177.77 0.953718 176.885 1.38205C175.976 0.639056 173.758 0.989067 173.286 0.890648C173.025 0.393704 173.799 0.300135 174.004 0.0381476C172.654 0.232212 172.599 1.19352 170.987 1.02857L171.002 0.754802C166.939 1.76117 162.12 0.882329 157.715 1.36056C157.997 1.44234 157.895 1.64403 157.979 1.85542C153.506 1.77364 148.397 1.36264 144.559 3.28596C143.933 3.22011 143.308 3.1515 142.676 3.09536C142.31 3.0607 141.945 3.03714 141.578 3.00665C141.53 2.92763 141.473 2.85555 141.407 2.80357C141.388 2.86387 141.347 2.92416 141.301 2.98377C140.337 2.90476 139.381 2.83753 138.429 2.78208C138.702 2.59911 139.042 2.46049 139.233 2.38495C138.639 2.42653 138.324 2.5693 138.158 2.76614C131.955 2.41751 126.128 2.53673 122.05 2.88743C120.462 2.43415 118.304 2.61782 116.669 2.54921C117.587 2.71485 117.295 3.06348 116.588 3.06972C111.665 3.2617 116.262 3.39338 111.333 3.88063C110.443 4.00192 109.156 4.1336 107.605 4.27638C108.149 4.10033 107.98 3.83211 107.859 3.54586C108.504 3.25199 109.34 3.3719 109.965 3.10575L107.816 3.43427C107.775 3.30051 107.768 3.16605 107.878 3.03714C107.754 3.23467 107.628 3.37606 107.51 3.48072L107.27 3.51745L107.406 3.5625C106.705 4.06569 106.262 3.28734 107.212 4.31103C106.447 4.38034 105.627 4.45104 104.76 4.52381L105.997 3.62003C104.525 3.65815 102.366 3.98875 103.125 3.07387C100.553 4.17311 96.04 3.7427 92.8269 4.38242L93.037 3.55002C91.3802 4.56055 86.9256 3.51884 85.4904 4.73313L85.2441 4.39559L81.9429 5.53156C80.4451 5.44077 80.9428 4.18559 80.8241 4.53421C77.5378 4.77679 74.9599 4.8655 72.8384 4.45658C72.3219 5.5773 68.8666 5.90791 66.1182 6.08395C59.4854 5.82612 52.6078 6.04652 45.8629 6.56426C40.764 6.94962 35.6651 7.52281 30.8925 8.43283C30.7591 7.97609 30.6322 7.7134 30.5267 8.06064L30.5819 8.49521C30.3241 8.54581 30.0711 8.59917 29.8166 8.65115C29.8273 8.53263 29.8446 8.42105 29.8767 8.32471C29.6345 7.91648 29.5126 8.17362 29.4409 8.72739C28.5437 8.91453 27.6572 9.11275 26.7881 9.32692C26.6818 9.04344 26.5854 8.79601 26.5154 8.78977C26.5467 9.0074 26.5706 9.19799 26.5912 9.37265C26.5327 9.38721 26.4701 9.40038 26.4116 9.41494C26.1051 9.46553 25.7854 9.56395 25.4608 9.68039C25.4649 9.64781 25.4658 9.62009 25.4699 9.58613C25.4666 9.62425 25.4583 9.64989 25.4534 9.68316C24.2069 10.1323 22.8574 10.9855 21.5557 11.7479L19.6246 12.0015C19.8742 12.2753 20.156 13.1098 20.4238 13.5042C20.3999 14.5639 20.4707 14.7968 20.5729 14.8959C20.4237 14.9208 20.273 14.9451 20.1247 14.9728C20.1502 14.5472 20.1263 14.008 19.983 13.2477L19.7095 14.252L19.6526 13.4619L19.2143 13.7578C19.3346 14.3996 19.4162 14.7517 19.4837 15.1003C19.3626 15.126 19.2473 15.1586 19.127 15.1856C19.0397 14.6422 18.9367 13.9775 18.6343 13.1867L17.9654 13.5028L17.9711 13.0744C17.9168 13.1105 17.9118 13.29 17.9192 13.5222L15.6759 14.6013C15.6693 14.6263 15.6709 14.6533 15.666 14.6789L15.3002 14.5729L14.9352 14.7476C14.9352 14.7476 14.8627 15.5806 14.8273 16.8774C14.6197 15.6056 14.4005 14.5452 14.1731 14.9361L14.562 17.3848L14.8116 17.5982C14.7935 19.0073 14.8281 20.7975 15.0192 22.6529C15.142 23.8485 15.3323 25.0669 15.6099 26.2258C15.638 27.0492 15.7096 27.8559 15.8406 28.619C15.6923 28.7597 15.5309 28.9143 15.3265 28.7091L15.0151 26.9778C14.8454 27.5163 14.4335 27.8136 14.0627 27.797C14.1995 28.8158 14.5076 28.592 14.5192 29.8388C14.7029 29.8506 14.8265 29.6178 14.6114 28.5234C14.7952 28.5282 15.0266 30.1701 15.2837 30.9658L14.7474 32.1836C14.6757 32.0685 14.6362 31.9278 14.6114 31.7746L14.8215 33.6661C14.6394 33.6619 14.5216 33.1906 14.445 32.4137C14.3173 32.7477 14.2877 33.4166 14.2539 34.0216C14.1229 34.0189 13.9894 34.0175 13.856 34.0161C13.8362 33.0478 13.8708 32.4407 14.08 32.3943L13.6137 32.449C13.575 30.6525 14.4516 31.0074 13.9169 28.1761C13.5594 29.4071 13.0436 31.1821 12.9283 33.5198C12.3763 31.3886 12.4035 34.0417 11.877 33.1615C11.7535 32.6944 11.5483 32.1392 11.4849 31.2112L11.5846 31.1301C10.9922 30.726 10.6132 32.2633 10.4106 33.9766L9.84294 31.8495C9.24565 31.374 9.70947 32.9661 9.91461 34.3287C9.64851 34.3841 9.38569 34.4451 9.12947 34.5207C8.80899 34.2393 8.51653 34.2393 8.31963 33.131C8.22076 33.3223 8.14908 33.3105 8.25041 34.1311L7.02947 33.5018L6.77654 33.6494C6.77654 33.6494 6.64307 35.9935 6.74605 38.9966C6.74852 39.1041 6.74852 39.2038 6.75264 39.3175C6.75429 39.312 6.75429 39.303 6.75594 39.2967C6.78395 40.0058 6.82514 40.7467 6.88364 41.5007C7.05747 43.7228 7.38949 46.0426 7.98349 47.9257L7.96042 48.8295C8.11695 49.0152 8.22983 49.0013 8.31304 48.8558C8.50664 49.3382 8.72332 49.7748 8.96388 50.1609L8.93422 50.4936C8.98118 50.4561 9.04873 50.436 9.11794 50.4007C9.4137 50.829 9.74407 51.1804 10.1148 51.4306L10.1165 51.8631L10.8349 51.737C11.7362 51.8617 12.0698 51.3273 12.0698 51.7591L10.8695 51.8243C11.7617 51.8624 11.1825 52.148 10.8818 52.4224C11.2534 52.428 11.6151 52.4453 11.924 52.5479C12.0731 52.3663 11.7732 52.3829 11.6233 52.3032C12.0731 52.1064 12.6729 51.6406 13.2735 51.782C14.1748 51.7349 13.4251 52.4682 14.4763 52.4127C18.4416 52.2713 22.3269 52.236 26.2493 52.0405L25.6075 54.1572C26.3638 54.7921 26.8342 53.3033 27.2783 51.9844C27.78 51.9553 28.2867 51.9095 28.7909 51.8735C28.8246 52.0385 28.8592 52.1999 28.8807 52.3552C28.9548 52.148 29.0347 51.9899 29.1146 51.8499C29.4862 51.8222 29.8553 51.8 30.2277 51.7681C30.2639 51.9477 30.3018 52.1299 30.3414 52.315C30.2787 52.7648 30.1865 53.1633 30.0588 53.4122C30.0316 53.4198 30.0036 53.426 29.9764 53.4329C29.941 52.7399 30.1239 52.2505 29.9739 51.9283C29.7556 52.814 28.9902 51.1908 29.1097 53.5986C28.9705 53.6229 28.8543 53.6492 28.7744 53.6859C28.7554 53.584 28.7348 53.4822 28.7159 53.383C28.7167 53.5071 28.7159 53.6215 28.7134 53.7289C28.6788 53.7573 28.6558 53.7899 28.6582 53.8329C28.6788 53.8329 28.6912 53.8377 28.7101 53.8384C28.6689 55.287 28.3567 55.0901 28.0642 54.8489C28.0766 54.7845 28.0931 54.7311 28.1013 54.6576C28.0881 54.7366 28.0708 54.7921 28.0502 54.8378C27.8401 54.6632 27.6441 54.4837 27.5691 54.8933C27.4537 54.8829 27.3483 54.9446 27.2807 55.2329C27.2667 55.2461 27.2535 55.2599 27.2395 55.2731L27.2437 55.1068L27.125 55.3861C26.6991 55.804 26.035 56.3488 24.6864 56.5075C21.0721 57.2068 17.2585 58.3095 13.6492 59.1024C13.6129 58.8418 14.3107 58.5098 15.0118 58.1778C14.5258 58.2839 13.8181 58.5292 13.3089 58.462C14.3363 58.6824 11.9141 59.1253 12.6597 59.1405C10.4295 60.8026 6.75842 60.9467 4.75067 62.2726C4.80587 62.7515 5.27711 66.9301 5.75082 71.1268C5.7706 71.2917 5.7912 71.4574 5.8118 71.6223C5.75742 71.5808 5.71623 71.5316 5.70799 71.4609C5.46496 71.5142 5.35537 71.4927 5.32407 71.8483C5.54321 71.8913 6.02929 71.7831 5.7533 72.1921C5.31006 72.3598 5.09834 72.0583 4.74573 72.0902C4.77044 71.9918 5.02253 71.682 4.8866 71.7582C4.02237 71.9959 2.41833 71.9807 1.59941 72.9482C1.91001 72.856 1.94296 72.5012 2.35571 72.6876V72.6876Z" fill="#45E99E"/>
</g>
</svg>
