<svg width="70" height="63" viewBox="0 0 70 63" fill="none" xmlns="http://www.w3.org/2000/svg">
<path fill-rule="evenodd" clip-rule="evenodd" d="M5.25003 62H12.75C15.6447 62 17.9999 59.6972 18 56.8667V45.1334C18 42.3028 15.6448 40 12.75 40H5.25003C2.35515 40 0 42.3028 0 45.1334V56.8667C0 59.6972 2.35515 62 5.25003 62ZM4.50007 45.1333C4.50007 44.729 4.83644 44.4 5.25003 44.4H12.75C13.1634 44.4 13.4999 44.7289 13.4999 45.1333V56.8666C13.4999 57.2709 13.1636 57.5999 12.75 57.5999H5.25003C4.83658 57.5999 4.50007 57.271 4.50007 56.8666V45.1333Z" fill="#F25030"/>
<path fill-rule="evenodd" clip-rule="evenodd" d="M31.25 62H38.75C41.6448 62 44 59.6056 44 56.6626V6.33757C44 3.39442 41.6448 1 38.75 1H31.25C28.3552 1 26 3.39442 26 6.33757V56.6624C26 59.6056 28.3552 62 31.25 62ZM30.5001 6.33743C30.5001 5.91708 30.8364 5.57496 31.25 5.57496V5.5751H38.75C39.1634 5.5751 39.4999 5.91708 39.4999 6.33757V56.6624C39.4999 57.0828 39.1636 57.4249 38.75 57.4249H31.25C30.8366 57.4249 30.5001 57.0829 30.5001 56.6624V6.33743Z" fill="#00DBC5"/>
<path fill-rule="evenodd" clip-rule="evenodd" d="M57.25 62H64.75C67.6448 62 70 59.6158 70 56.6853V26.3149C70 23.3842 67.6448 21 64.75 21H57.25C54.3552 21 52 23.3842 52 26.3149V56.6851C52 59.6158 54.3552 62 57.25 62ZM56.5001 26.3149C56.5001 25.8963 56.8364 25.5556 57.25 25.5556H64.75C65.1634 25.5556 65.4999 25.8962 65.4999 26.3149V56.6853C65.4999 57.1038 65.1636 57.4445 64.75 57.4445H57.25C56.8366 57.4445 56.5001 57.104 56.5001 56.6853V26.3149Z" fill="#4DA6FF"/>
</svg>
