<svg width="44" height="44" viewBox="0 0 44 44" fill="none" xmlns="http://www.w3.org/2000/svg">
<path fill-rule="evenodd" clip-rule="evenodd" d="M36.1427 36.1397C30.0304 42.2527 20.9795 43.5734 13.5728 40.148C12.4794 39.7078 11.583 39.352 10.7307 39.352C8.35698 39.3661 5.40233 41.6677 3.86672 40.134C2.33111 38.5982 4.63453 35.6412 4.63453 33.2531C4.63453 32.4008 4.29283 31.5203 3.85265 30.4248C0.425661 23.0192 1.74822 13.9654 7.86052 7.85441C15.6632 0.0488639 28.34 0.0488644 36.1427 7.8524C43.9595 15.67 43.9454 28.3362 36.1427 36.1397Z" stroke="black" stroke-width="2.5" stroke-linecap="round" stroke-linejoin="round"/>
<path d="M29.8789 22.826H29.8969" stroke="black" stroke-width="4" stroke-linecap="round" stroke-linejoin="round"/>
<path d="M21.8613 22.826H21.8793" stroke="black" stroke-width="4" stroke-linecap="round" stroke-linejoin="round"/>
<path d="M13.8438 22.826H13.8617" stroke="black" stroke-width="4" stroke-linecap="round" stroke-linejoin="round"/>
</svg>
