<svg width="202" height="170" viewBox="0 0 202 170" fill="none" xmlns="http://www.w3.org/2000/svg">
<path d="M60.6973 137.474C94.1947 137.474 121.35 110.255 121.35 76.68C121.35 43.1045 94.1947 15.8862 60.6973 15.8862C27.1999 15.8862 0.0449219 43.1045 0.0449219 76.68C0.0449219 110.255 27.1999 137.474 60.6973 137.474Z" fill="white"/>
<path d="M116.237 168.747C113.847 168.744 111.488 168.197 109.339 167.147L88.1522 156.763C86.9669 156.177 85.9515 155.295 85.2033 154.203C84.455 153.111 83.999 151.844 83.8787 150.525L83.1133 141.221L189.726 95.9182L193.975 98.0041L194.979 98.4928C200.073 100.99 201.522 108.81 198.205 115.923C195.572 121.569 190.678 125.363 186.027 125.363C184.908 125.37 183.801 125.129 182.785 124.659L182.592 124.568L125.408 165.785C122.739 167.717 119.529 168.754 116.237 168.747Z" fill="white"/>
<path d="M189.715 96.3188L193.817 98.3326L194.818 98.8199C197.171 99.9734 198.797 102.329 199.397 105.452C200.016 108.672 199.475 112.335 197.875 115.768C195.301 121.289 190.539 124.998 186.027 124.998C184.961 125.005 183.906 124.776 182.939 124.328L182.552 124.149L182.207 124.4L125.196 165.489C122.589 167.376 119.453 168.389 116.237 168.382C113.902 168.379 111.598 167.845 109.499 166.819L88.3123 156.436C87.1836 155.877 86.2166 155.038 85.5038 153.998C84.7911 152.959 84.3564 151.753 84.2415 150.497L83.4971 141.453L189.715 96.3188ZM189.736 95.5172L82.7285 140.988L83.515 150.555C83.6367 151.938 84.1128 153.267 84.897 154.411C85.6812 155.556 86.747 156.479 87.9913 157.089L109.178 167.473C111.788 168.752 114.696 169.298 117.591 169.053C120.486 168.808 123.261 167.78 125.62 166.079L182.632 124.988C183.696 125.481 184.856 125.734 186.028 125.727C190.683 125.727 195.778 121.99 198.536 116.076C201.989 108.669 200.421 100.754 195.14 98.1635L194.137 97.6751L189.74 95.5161L189.736 95.5172Z" fill="#081F2D"/>
<path d="M125.106 154.945C122.726 157.138 119.741 158.561 116.541 159.027C113.341 159.493 110.075 158.98 107.17 157.557L87.2036 147.769C83.1263 145.772 80.5083 139.144 85.2094 134.684L139.935 82.7596C142.312 80.5031 145.32 79.0282 148.556 78.5324C151.792 78.0365 155.102 78.5433 158.043 79.985L195.138 98.1647L125.106 154.945Z" fill="#E9E9E9"/>
<path d="M174.417 43.1003L174.417 43.1006L200.744 56.0045C197 57.6412 187.753 62.4883 182.249 73.4438C177.16 83.5749 178.209 93.0855 178.927 97.0093L149.281 82.4782C148.615 79.2457 147.066 69.3705 152.369 58.8109C155.726 52.2086 161.003 46.7833 167.502 43.2526L167.504 43.2519C168.56 42.6738 169.739 42.3584 170.942 42.332C172.145 42.3056 173.336 42.5691 174.417 43.1003Z" stroke="black"/>
<path d="M101.168 139.178L117.144 124.018" stroke="#081F2D" stroke-width="2.036" stroke-miterlimit="10"/>
<path d="M112.805 144.881L128.781 129.721" stroke="#081F2D" stroke-width="2.036" stroke-miterlimit="10"/>
<path d="M107.553 125.38L129.561 136.167" stroke="#081F2D" stroke-width="2.036" stroke-miterlimit="10"/>
<path d="M100.119 132.433L122.128 143.221" stroke="#081F2D" stroke-width="2.036" stroke-miterlimit="10"/>
<path d="M42.6415 99.8638C42.7451 102.377 42.9611 110.22 38.4909 116.419C37.7437 117.455 35.9466 119.895 34.3796 119.536C32.4541 119.097 31.8689 114.699 31.7516 112.938C31.3738 107.276 32.8417 89.3905 35.9087 65.3119C38.2589 72.6144 42.0712 86.0626 42.6415 99.8638Z" fill="#081F2D" stroke="#081F2D" stroke-width="2.036" stroke-linecap="round" stroke-linejoin="round"/>
<path d="M37.054 103.658L37.0627 103.656C43.6365 102.79 50.2998 102.863 56.853 103.875L58.7848 104.173L57.4127 105.565C56.7027 106.285 56.2118 107.193 55.9976 108.183C55.9353 108.496 55.8655 108.854 55.8665 109.229C55.8676 109.604 55.9408 109.914 56.103 110.153C56.4384 110.644 57.3635 111.095 59.1938 111.014C60.9535 110.937 63.2626 110.371 65.8878 109.244L66.3175 109.06L66.7344 109.271C67.3289 109.573 68.0312 109.627 68.8559 109.499C69.6908 109.37 70.5542 109.072 71.4387 108.756L71.4395 108.756C73.1612 108.142 76.53 106.615 79.7251 102.563L80.0723 102.123L80.6289 102.19C83.6285 102.548 86.3306 102.727 88.5303 102.453C90.7311 102.179 92.2486 101.476 93.1194 100.238C93.2186 100.095 93.4867 99.6934 93.6881 99.1526C93.8903 98.61 94.0019 97.9911 93.8702 97.3791C93.6806 96.651 93.2257 96.021 92.5956 95.6132L91.261 94.7493L92.6176 93.9204C93.2102 93.5583 93.5195 93.1844 93.5936 92.8349L93.5943 92.8318C93.6799 92.4338 93.5046 91.7819 92.6295 90.806C91.7902 89.8701 90.492 88.8463 88.8788 87.7736L89.5721 85.9507C90.1427 86.0312 90.7213 86.037 91.2934 85.9681L91.2942 85.968C91.6269 85.9282 92.3445 85.8402 93.0369 85.6018C93.7798 85.346 94.1979 85.0184 94.3281 84.6918C94.4266 84.4403 94.4244 84.0042 94.022 83.2571C93.6269 82.5234 92.9336 81.6598 91.9821 80.6836C90.0829 78.735 87.3587 76.5394 84.5471 74.2779L84.5463 74.2772C80.1661 70.7459 76.3924 67.7453 70.4689 64.964C65.7968 62.7712 60.8679 61.2125 57.727 60.6834L37.054 103.658ZM37.054 103.658L37.0453 103.659M37.054 103.658L37.0453 103.659M37.0453 103.659C34.7474 104.003 32.4709 104.476 30.2265 105.076M37.0453 103.659L30.2265 105.076M30.2265 105.076L23.4368 76.6875C24.9682 75.0938 29.3175 70.7673 35.1569 66.9672C41.6006 62.7738 49.6843 59.3352 57.7268 60.6834L30.2265 105.076Z" stroke="black" stroke-width="2"/>
<path d="M67.4251 110.52C66.8817 110.449 66.3616 110.255 65.9039 109.953C64.2519 108.857 64.0785 106.785 64.0667 106.611C63.9237 104.525 65.3091 102.449 67.5527 101.507" stroke="#081F2D" stroke-width="2.036" stroke-miterlimit="10"/>
<path d="M56.0293 105.721C58.3348 102.502 63.3909 101.3 63.7463 101.22" stroke="#081F2D" stroke-width="2.036" stroke-miterlimit="10"/>
<path d="M67.8086 75.7727C71.7809 77.3919 75.668 79.2138 79.4545 81.2312C83.4192 83.3429 87.839 85.6967 90.8781 87.9496" stroke="#081F2D" stroke-width="2.036" stroke-miterlimit="10"/>
<path d="M68.7112 71.4799C68.6378 74.0687 67.7477 76.5675 66.1687 78.6175C64.9502 80.1688 63.3706 81.3968 61.5684 82.1937" stroke="#081F2D" stroke-width="2.036" stroke-miterlimit="10"/>
<path d="M83.5069 79.7814L80.1492 106.005C79.9369 107.663 80.3856 109.339 81.398 110.668C82.4103 111.998 83.9048 112.874 85.5571 113.106L132.718 119.731C133.549 119.847 134.394 119.798 135.205 119.585C136.016 119.372 136.777 118.999 137.444 118.489C138.11 117.98 138.67 117.342 139.089 116.614C139.508 115.886 139.779 115.082 139.886 114.248L143.243 88.0252C143.456 86.3664 143.007 84.6906 141.995 83.3612C140.982 82.0319 139.488 81.1562 137.835 80.9241L90.6744 74.2978C89.8438 74.1812 88.9985 74.2309 88.1872 74.444C87.376 74.6572 86.615 75.0295 85.9484 75.5396C85.2817 76.0496 84.7227 76.6871 84.3036 77.4152C83.8845 78.1434 83.6137 78.9476 83.5069 79.7814Z" fill="#FF3294"/>
<path d="M58.9688 69.2632C60.9465 73.0009 61.8675 77.2093 61.6321 81.4336C61.5376 82.865 61.3019 84.2835 60.9286 85.6684" stroke="#081F2D" stroke-width="2.036" stroke-miterlimit="10"/>
<path d="M81.7951 103.325C77.9452 102.925 73.6799 102.162 69.6004 101.738C62.2002 100.968 51.231 100.878 37.1895 104.646" stroke="#081F2D" stroke-width="2.036" stroke-miterlimit="10"/>
<path d="M57.1289 84.4856C65.7182 87.2294 72.7817 89.0174 77.6623 90.1473C85.5162 91.9644 91.6177 92.9781 93.9264 95.4585" stroke="#081F2D" stroke-width="2.036" stroke-miterlimit="10"/>
<path d="M0.0449219 76.68L1.34622 126.177C12.4909 123.575 20.3466 122.259 25.5157 121.283C28.6467 120.692 31.7605 120.12 34.8572 119.568C34.8343 119.568 34.7657 119.57 34.6935 119.568C34.6347 119.569 34.5759 119.566 34.5176 119.559C34.4692 119.555 34.4213 119.547 34.3746 119.534C32.453 119.099 31.8653 114.702 31.7477 112.938C31.3691 107.277 32.8355 89.3937 35.9018 65.3134C23.9484 69.1031 11.9961 72.892 0.0449219 76.68Z" fill="#E9E9E9"/>
<path d="M26.3833 121.118C23.7336 117.422 22.4147 112.933 22.6424 108.388L24.6223 68.8873" stroke="#081F2D" stroke-width="2.036" stroke-miterlimit="10"/>
<path d="M38.4909 116.417C37.7437 117.454 35.9465 119.893 34.3796 119.535C32.4541 119.096 31.8689 114.697 31.7516 112.936C31.3738 107.275 32.8417 89.389 35.9087 65.3104" stroke="#081F2D" stroke-width="2.036" stroke-linecap="round" stroke-linejoin="round"/>
<path d="M132.5 41.5114C131.003 43.6614 125.767 42.1668 123.787 43.6686C121.735 45.2248 121.726 50.6618 119.344 51.4863C116.939 52.3191 113.574 48.0399 111.029 48.0911C108.51 48.1416 105.314 52.5581 102.852 51.8081C100.477 51.0843 100.266 45.6584 98.1198 44.1577C95.9734 42.657 90.8204 44.3326 89.3221 42.3477C87.7694 40.2909 90.801 35.7594 89.9784 33.3722C89.1476 30.9613 83.9792 29.2736 83.9281 26.7233C83.8777 24.1982 88.9649 22.3123 89.7135 19.8433C90.4357 17.4622 87.2268 13.054 88.724 10.9026C90.2212 8.75113 95.4582 10.25 97.4373 8.74504C99.4894 7.1888 99.4983 1.75217 101.88 0.927642C104.285 0.0948755 107.65 4.37373 110.195 4.32249C112.714 4.27197 115.91 -0.144492 118.371 0.6055C120.747 1.32969 120.958 6.75522 123.104 8.25627C125.251 9.75733 130.403 8.08141 131.902 10.0659C133.454 12.123 130.423 16.6542 131.245 19.0414C132.076 21.4526 137.245 23.14 137.296 25.6903C137.346 28.2154 132.259 30.1013 131.511 32.5703C130.789 34.9517 133.997 39.36 132.5 41.5114Z" fill="#E9E9E9"/>
<path d="M110.612 26.2077C109.539 26.2076 108.511 25.7805 107.753 25.0204C106.994 24.2603 106.568 23.2295 106.568 22.1546C106.568 22.0745 106.571 21.9952 106.575 21.9166C106.731 19.2266 109.667 17.6285 112.072 18.8332L114.655 20.1282" stroke="#081F2D" stroke-width="2.5" stroke-miterlimit="10"/>
<path d="M106.568 32.2876L109.061 33.5704C111.51 34.8318 114.533 33.1834 114.652 30.4243C114.655 30.344 114.656 30.2634 114.655 30.1824C114.634 29.1211 114.2 28.1101 113.444 27.3667C112.688 26.6233 111.671 26.2069 110.612 26.207" stroke="#081F2D" stroke-width="2.5" stroke-miterlimit="10"/>
<path d="M110.611 14.0487V38.3663" stroke="#081F2D" stroke-width="2.5" stroke-miterlimit="10"/>
</svg>
