<svg width="15" height="15" viewBox="0 0 15 15" fill="none" xmlns="http://www.w3.org/2000/svg">
<path fill-rule="evenodd" clip-rule="evenodd" d="M12.4438 8.55379L14.7595 10.8708C15.2386 11.3502 14.9192 11.9095 14.5199 12.4688C12.9229 15.2652 9.24966 15.7446 6.85409 13.9069C4.53837 12.0693 2.86146 10.3914 1.10471 8.1543C-0.811751 5.59759 -0.172931 1.9223 2.54205 0.404253C3.10102 0.0846629 3.65999 -0.234927 4.1391 0.244458L6.53468 2.56148C7.01379 3.12077 6.61453 3.91974 6.13541 4.39912C6.11795 4.43407 6.06994 4.4843 6.00891 4.54815C5.79087 4.77624 5.40674 5.17809 5.6563 5.67748C6.45482 7.11564 7.65261 8.3141 9.40937 9.35277C9.86489 9.62623 10.1385 9.3797 10.5119 9.04328C10.793 8.78997 11.1307 8.4857 11.6452 8.3141C11.9646 8.2342 12.2042 8.3141 12.4438 8.55379ZM2.38235 7.19554C4.05925 9.27287 5.6563 10.9507 7.89217 12.6286C9.56907 13.9069 12.1243 13.5873 13.1624 11.6698L11.6452 10.1517C11.6338 10.1517 11.5976 10.1863 11.5389 10.2425C11.1887 10.5775 10.0356 11.6805 8.53099 10.7909C6.53468 9.67236 5.09733 8.2342 4.1391 6.47646C3.23262 4.81363 4.61289 3.57982 4.83221 3.38377C4.84473 3.37258 4.85346 3.36477 4.85777 3.36046L3.34058 1.84241C1.42412 2.96097 1.02486 5.51769 2.38235 7.19554Z" fill="white"/>
</svg>
