<svg width="25" height="31" viewBox="0 0 25 31" fill="none" xmlns="http://www.w3.org/2000/svg">
<path d="M8.43214 30.2082C3.9739 30.1826 0.286133 21.1361 0.286133 16.5288C0.286133 9.00298 5.96563 7.35536 8.15447 7.35536C9.14088 7.35536 10.1942 7.74042 11.1232 8.08117C11.7728 8.31886 12.4447 8.56423 12.8184 8.56423C13.0421 8.56423 13.5692 8.3555 14.0345 8.17236C15.027 7.77962 16.2619 7.2915 17.7 7.2915C17.7026 7.2915 17.706 7.2915 17.7085 7.2915C18.7824 7.2915 22.0382 7.52576 23.9957 10.4479L24.4542 11.1328L23.7943 11.6278C22.8516 12.3348 21.1315 13.6247 21.1315 16.1796C21.1315 19.2056 23.0795 20.3694 24.0154 20.9291C24.4285 21.1761 24.8561 21.4309 24.8561 21.988C24.8561 22.3518 21.9354 30.163 17.694 30.163C16.6561 30.163 15.9225 29.8529 15.2754 29.5795C14.6207 29.3026 14.0559 29.0641 13.1226 29.0641C12.6495 29.0641 12.0513 29.2864 11.4179 29.5224C10.5525 29.8435 9.57283 30.2082 8.46127 30.2082H8.43214Z" fill="url(#paint0_linear_809_292)"/>
<path d="M17.6872 0C17.7876 3.78288 15.1983 6.40727 12.6119 6.24267C12.1857 3.2238 15.1979 0 17.6872 0Z" fill="url(#paint1_linear_809_292)"/>
<defs>
<linearGradient id="paint0_linear_809_292" x1="-3" y1="14.8778" x2="19.4146" y2="35.9823" gradientUnits="userSpaceOnUse">
<stop stop-color="#FFA1A9"/>
<stop offset="1" stop-color="#FF60A4"/>
</linearGradient>
<linearGradient id="paint1_linear_809_292" x1="11.8867" y1="2.06898" x2="17.6927" y2="6.24491" gradientUnits="userSpaceOnUse">
<stop stop-color="#FFA1A9"/>
<stop offset="1" stop-color="#FF60A4"/>
</linearGradient>
</defs>
</svg>
