<svg width="20" height="20" viewBox="0 0 20 20" fill="none" xmlns="http://www.w3.org/2000/svg">
<path d="M15.8332 7.17249V5.95916C15.8332 4.41206 15.2186 2.92833 14.1246 1.83437C13.0307 0.740406 11.5469 0.125824 9.99984 0.125824C8.45274 0.125824 6.96901 0.740406 5.87505 1.83437C4.78109 2.92833 4.1665 4.41206 4.1665 5.95916V7.17249C3.41479 7.5561 2.78358 8.13981 2.34246 8.85928C1.90133 9.57876 1.66742 10.4061 1.6665 11.25V15.4167C1.66783 16.6318 2.15114 17.7968 3.01039 18.6561C3.86965 19.5154 5.03467 19.9987 6.24984 20H13.7498C14.965 19.9987 16.13 19.5154 16.9893 18.6561C17.8485 17.7968 18.3318 16.6318 18.3332 15.4167V11.25C18.3323 10.4061 18.0983 9.57876 17.6572 8.85928C17.2161 8.13981 16.5849 7.5561 15.8332 7.17249ZM9.99984 2.62582C10.8839 2.62582 11.7317 2.97701 12.3569 3.60213C12.982 4.22726 13.3332 5.0751 13.3332 5.95916V6.66666H6.6665V5.95916C6.6665 5.0751 7.01769 4.22726 7.64281 3.60213C8.26794 2.97701 9.11578 2.62582 9.99984 2.62582ZM15.8332 15.4167C15.8332 15.9692 15.6137 16.4991 15.223 16.8898C14.8323 17.2805 14.3024 17.5 13.7498 17.5H6.24984C5.6973 17.5 5.1674 17.2805 4.7767 16.8898C4.386 16.4991 4.1665 15.9692 4.1665 15.4167V11.25C4.1665 10.6975 4.386 10.1676 4.7767 9.77685C5.1674 9.38615 5.6973 9.16666 6.24984 9.16666H13.7498C14.3024 9.16666 14.8323 9.38615 15.223 9.77685C15.6137 10.1676 15.8332 10.6975 15.8332 11.25V15.4167Z" fill="white"/>
<path d="M10.4168 11.6667H9.5835C8.89314 11.6667 8.3335 12.2263 8.3335 12.9167C8.3335 13.607 8.89314 14.1667 9.5835 14.1667H10.4168C11.1072 14.1667 11.6668 13.607 11.6668 12.9167C11.6668 12.2263 11.1072 11.6667 10.4168 11.6667Z" fill="white"/>
</svg>
