<svg width="70" height="70" viewBox="0 0 70 70" fill="none" xmlns="http://www.w3.org/2000/svg">
<path d="M13.3611 33.971C12.8363 33.971 12.3115 33.7708 11.9112 33.37C11.1103 32.5686 11.1103 31.2695 11.9112 30.4682L20.8173 21.5566C21.6181 20.7552 22.9165 20.7552 23.7174 21.5566C24.5182 22.3579 24.5182 23.657 23.7174 24.4583L14.8112 33.37C14.4108 33.7706 13.8859 33.971 13.3611 33.971Z" fill="#ECECEC"/>
<path d="M19.2919 12.4601C19.0798 12.4601 18.8642 12.427 18.6518 12.3572L9.47493 9.34188C8.39889 8.98841 7.8131 7.82882 8.16635 6.75226C8.51961 5.67557 9.67808 5.08914 10.7544 5.44289L19.9312 8.45807C21.0073 8.81154 21.5931 9.97113 21.2398 11.0477C20.9563 11.9118 20.1538 12.4601 19.2919 12.4601Z" fill="#ECECEC"/>
<path d="M42.9049 13.3676C41.9846 13.3676 41.1477 12.7433 40.9162 11.8091C40.6436 10.7092 41.3138 9.59651 42.4131 9.32374L59.4408 5.09836C60.5393 4.82573 61.6522 5.49615 61.9247 6.5961C62.1973 7.69605 61.5271 8.80872 60.4279 9.08148L43.4001 13.3069C43.2344 13.3479 43.0684 13.3676 42.9049 13.3676Z" fill="#ECECEC"/>
<path d="M51.9045 26.8298C51.5963 26.8298 51.2834 26.76 50.989 26.6127L41.0578 21.644C40.0448 21.1372 39.6343 19.9047 40.1408 18.891C40.6473 17.8774 41.8789 17.4666 42.8921 17.9734L52.8233 22.9422C53.8363 23.449 54.2468 24.6815 53.7403 25.6951C53.381 26.4141 52.6566 26.8298 51.9045 26.8298Z" fill="#ECECEC"/>
<path d="M34.6429 28C33.7896 28 32.9904 27.4742 32.6898 26.6327C32.3085 25.5652 32.8739 24.3941 33.9525 24.0168C38.0825 22.5721 40.8571 18.6872 40.8571 14.3496C40.8571 8.69794 36.2109 4.0999 30.5 4.0999C24.7891 4.0999 20.1429 8.69794 20.1429 14.3496C20.1429 18.6872 22.9176 22.5721 27.0475 24.0167C28.1261 24.394 28.6915 25.5652 28.3102 26.6325C27.9291 27.7001 26.7455 28.2596 25.6669 27.8822C19.8849 25.8598 16 20.4215 16 14.3496C16 6.43725 22.5048 0 30.5 0C38.4952 0 45 6.43725 45 14.3496C45 20.4215 41.1152 25.8598 35.3332 27.8822C35.1049 27.962 34.872 28 34.6429 28Z" fill="#FD3018"/>
<path fill-rule="evenodd" clip-rule="evenodd" d="M53.6013 37.2392C54.3014 36.9593 55.0644 36.8052 55.8625 36.8052C59.2467 36.8052 62 39.5743 62 42.9778C62 53.1385 59.9709 61.4994 58.7616 65.5789C57.9776 68.2233 55.6118 70 52.8746 70L29.7498 69.9999C27.4101 69.9999 25.3065 68.6924 24.26 66.588L24.2536 66.5749L16.6374 50.9815C15.3569 48.3966 16.0538 45.2127 18.2967 43.4082L25.1751 37.8739V14.1726C25.1751 10.769 27.9283 8 31.3126 8C34.6968 8 37.45 10.769 37.45 14.1726V28.9291C38.0904 28.7007 38.7787 28.5752 39.4959 28.5752C42.3216 28.5752 44.7074 30.5058 45.418 33.1242C46.1181 32.8443 46.881 32.6902 47.6792 32.6902C50.5049 32.6902 52.8907 34.6208 53.6013 37.2392ZM52.8746 65.885C53.7878 65.885 54.5777 65.2894 54.8406 64.4031C55.763 61.2918 57.9083 52.9758 57.9083 42.9779C57.9083 41.8434 56.9906 40.9204 55.8625 40.9204C54.7344 40.9204 53.8167 41.8434 53.8167 42.9779C53.8167 43.4484 53.6517 43.921 53.3519 44.2835C52.8152 44.9324 51.9201 45.1983 51.1216 44.9287C50.298 44.6507 49.725 43.8524 49.725 42.9778V38.8628C49.725 37.7282 48.8073 36.8052 47.6792 36.8052C46.5511 36.8052 45.6334 37.7282 45.6334 38.8628V42.9778C45.6334 44.1141 44.7174 45.0353 43.5875 45.0353C42.4577 45.0353 41.5417 44.1141 41.5417 42.9778V34.7477C41.5417 33.6132 40.6239 32.6902 39.4959 32.6902C38.3678 32.6902 37.45 33.6132 37.45 34.7477V38.8628V42.9778C37.45 44.1141 36.5341 45.0353 35.4042 45.0353C34.2744 45.0353 33.3584 44.1141 33.3584 42.9778V38.8628V34.7477V14.1726C33.3584 13.038 32.4406 12.115 31.3126 12.115C30.1845 12.115 29.2667 13.038 29.2667 14.1726V38.8628V47.0928C29.2667 48.2291 28.3507 49.1504 27.2209 49.1504C26.0911 49.1504 25.1751 48.2291 25.1751 47.0928V43.1438L20.8528 46.6214C20.1044 47.2236 19.8723 48.2863 20.3009 49.1486L20.3074 49.1616L27.9223 64.7524C28.272 65.4511 28.9717 65.8848 29.7498 65.8848L52.8746 65.885Z" fill="#FEC478"/>
<path fill-rule="evenodd" clip-rule="evenodd" d="M57.6953 6.15C57.6953 9.54111 60.4553 12.3 63.8477 12.3C67.2401 12.3 70 9.54111 70 6.15C70 2.75889 67.2401 0 63.8477 0C60.4553 0 57.6953 2.75889 57.6953 6.15ZM61.7969 6.15C61.7969 5.01963 62.7169 4.1 63.8477 4.1C64.9785 4.1 65.8984 5.01963 65.8984 6.15C65.8984 7.28037 64.9785 8.2 63.8477 8.2C62.7169 8.2 61.7969 7.28037 61.7969 6.15Z" fill="#19DEC1"/>
<path fill-rule="evenodd" clip-rule="evenodd" d="M49.3555 26.65C49.3555 30.0411 52.1154 32.8 55.5078 32.8C58.9002 32.8 61.6602 30.0411 61.6602 26.65C61.6602 23.2589 58.9002 20.5 55.5078 20.5C52.1154 20.5 49.3555 23.2589 49.3555 26.65ZM53.457 26.65C53.457 25.5196 54.377 24.6 55.5078 24.6C56.6386 24.6 57.5586 25.5196 57.5586 26.65C57.5586 27.7804 56.6386 28.7 55.5078 28.7C54.377 28.7 53.457 27.7804 53.457 26.65Z" fill="#19DEC1"/>
<path fill-rule="evenodd" clip-rule="evenodd" d="M0 6.15C0 9.54111 2.76008 12.3 6.15234 12.3C9.54475 12.3 12.3047 9.54111 12.3047 6.15C12.3047 2.75889 9.54461 0 6.15234 0C2.76008 0 0 2.75889 0 6.15ZM4.10156 6.15C4.10156 5.01963 5.02154 4.1 6.15234 4.1C7.28314 4.1 8.20312 5.01963 8.20312 6.15C8.20312 7.28037 7.28314 8.2 6.15234 8.2C5.02154 8.2 4.10156 7.28037 4.10156 6.15Z" fill="#19DEC1"/>
<path fill-rule="evenodd" clip-rule="evenodd" d="M4.23828 34.8502C4.23828 38.2413 6.99822 41.0002 10.3906 41.0002C13.783 41.0002 16.543 38.2413 16.543 34.8502C16.543 31.4591 13.783 28.7002 10.3906 28.7002C6.99822 28.7002 4.23828 31.4591 4.23828 34.8502ZM8.33984 34.8502C8.33984 33.7198 9.25982 32.8002 10.3906 32.8002C11.5214 32.8002 12.4414 33.7198 12.4414 34.8502C12.4414 35.9806 11.5214 36.9002 10.3906 36.9002C9.25982 36.9002 8.33984 35.9806 8.33984 34.8502Z" fill="#19DEC1"/>
</svg>
