<svg width="28" height="24" viewBox="0 0 28 24" fill="none" xmlns="http://www.w3.org/2000/svg">
<path d="M8.69188 0.639996C3.01188 4.72 0.131875 9.68 0.131875 15.52V15.84C0.131875 20.56 2.69188 23.68 6.45188 23.68C9.57188 23.68 12.0519 21.2 12.0519 18C12.0519 14.8 9.89188 12.72 6.77188 12.72C6.13188 12.72 5.49188 12.88 4.85188 13.12C5.33188 9.84 7.65188 6.64 11.8119 3.52L8.69188 0.639996ZM24.2919 0.639996C18.6119 4.72 15.7319 9.68 15.7319 15.52V15.84C15.7319 20.56 18.2919 23.68 22.0519 23.68C25.1719 23.68 27.6519 21.2 27.6519 18C27.6519 14.8 25.4919 12.72 22.3719 12.72C21.7319 12.72 21.0919 12.88 20.4519 13.12C20.9319 9.84 23.2519 6.64 27.4119 3.52L24.2919 0.639996Z" fill="white"/>
</svg>
