<svg width="25" height="34" viewBox="0 0 25 34" fill="none" xmlns="http://www.w3.org/2000/svg">
<path fill-rule="evenodd" clip-rule="evenodd" d="M12.5 16.6667C9.43175 16.6667 6.94444 14.1794 6.94444 11.1111C6.94444 8.04286 9.43175 5.55556 12.5 5.55556C15.5682 5.55556 18.0556 8.04286 18.0556 11.1111C18.0556 14.1794 15.5682 16.6667 12.5 16.6667ZM12.5 8.33333C10.9659 8.33333 9.72222 9.57699 9.72222 11.1111C9.72222 12.6452 10.9659 13.8889 12.5 13.8889C14.0341 13.8889 15.2778 12.6452 15.2778 11.1111C15.2778 9.57699 14.0341 8.33333 12.5 8.33333ZM13.2778 33.0972C13.5839 32.8912 13.7955 32.5719 13.8658 32.2097C13.9362 31.8476 13.8595 31.4723 13.6528 31.1667C3.38889 15.8889 2.77778 14.8194 2.77778 11.1111C2.77778 7.76389 5.36111 2.77778 12.5 2.77778C19.6389 2.77778 22.2222 7.76389 22.2222 11.1111C22.2222 14.1806 21.9583 15.2778 15.0556 25.6528C14.6804 26.2873 14.8664 27.1044 15.4791 27.5141C16.0919 27.9239 16.918 27.7835 17.3611 27.1944C24.0694 17.1389 25 15.1806 25 11.1111C25 6.81944 21.6111 0 12.5 0C3.38889 0 0 6.81944 0 11.1111C0 15.75 0.958333 17.3194 11.3472 32.7222C11.5532 33.0283 11.8725 33.2399 12.2347 33.3103C12.5969 33.3806 12.9722 33.304 13.2778 33.0972Z" fill="black"/>
</svg>
