<svg width="62" height="62" viewBox="0 0 62 62" fill="none" xmlns="http://www.w3.org/2000/svg">
<ellipse cx="9.59062" cy="9.6875" rx="1.84063" ry="1.9375" fill="#FEDB41"/>
<ellipse cx="16.9532" cy="9.6875" rx="1.84063" ry="1.9375" fill="#FEDB41"/>
<ellipse cx="24.3156" cy="9.6875" rx="1.84063" ry="1.9375" fill="#FEDB41"/>
<path d="M52.474 11.625H45.3698C44.3889 11.625 43.5938 10.7575 43.5938 9.6875C43.5938 8.61748 44.3889 7.75 45.3698 7.75H52.474C53.4548 7.75 54.25 8.61748 54.25 9.6875C54.25 10.7575 53.4548 11.625 52.474 11.625Z" fill="#FEDB41"/>
<path d="M56.5508 62H5.44922C2.44452 62 0 59.5308 0 56.4957V15.3973C0 14.384 0.813266 13.5625 1.81641 13.5625C2.81955 13.5625 3.63281 14.384 3.63281 15.3973V56.4957C3.63281 57.5074 4.44765 58.3305 5.44922 58.3305H56.5508C57.5523 58.3305 58.3672 57.5074 58.3672 56.4957V15.3973C58.3672 14.384 59.1805 13.5625 60.1836 13.5625C61.1867 13.5625 62 14.384 62 15.3973V56.4957C62 59.5308 59.5555 62 56.5508 62Z" fill="#81C8EE"/>
<path d="M52.474 11.625H45.3698C44.3889 11.625 43.5938 10.7575 43.5938 9.6875C43.5938 8.61748 44.3889 7.75 45.3698 7.75H52.474C53.4548 7.75 54.25 8.61748 54.25 9.6875C54.25 10.7575 53.4548 11.625 52.474 11.625Z" fill="#FEDB41"/>
<path d="M27.5033 55.2071C27.0947 55.2071 26.6908 55.0575 26.3665 54.7698C25.8534 54.3148 25.6277 53.5923 25.7833 52.9037L27.4264 45.6317C27.6167 44.7895 27.9956 43.9936 28.5222 43.3302L30.2431 41.1774C30.8733 40.389 31.989 40.2898 32.7347 40.9562C33.4806 41.6226 33.5742 42.802 32.944 43.5904L31.2272 45.738C31.0557 45.9541 30.9294 46.2194 30.866 46.5002L30.0443 50.1362L33.2887 48.6495C33.5392 48.5347 33.7645 48.3571 33.9398 48.1361L35.6315 46.0198C36.2618 45.2314 37.3774 45.1322 38.1232 45.7986C38.8691 46.465 38.9627 47.6443 38.3324 48.4328L36.6449 50.5439C36.1225 51.2022 35.4469 51.7349 34.6952 52.0795L28.2063 55.053C27.9802 55.1564 27.741 55.2071 27.5033 55.2071Z" fill="#FEDB41"/>
<path d="M27.1987 28.9258H9.51806C8.54162 28.9258 7.75 28.0889 7.75 27.0567C7.75 26.0244 8.54162 25.1875 9.51806 25.1875H27.1987C28.1751 25.1875 28.9667 26.0244 28.9667 27.0567C28.9667 28.0889 28.1751 28.9258 27.1987 28.9258Z" fill="#FEDB41"/>
<path d="M20.1264 40.1407H9.51806C8.54162 40.1407 7.75 39.3038 7.75 38.2715C7.75 37.2392 8.54162 36.4023 9.51806 36.4023H20.1264C21.1029 36.4023 21.8945 37.2392 21.8945 38.2715C21.8945 39.3038 21.1029 40.1407 20.1264 40.1407Z" fill="#FEDB41"/>
<path d="M20.1264 51.356H9.51806C8.54162 51.356 7.75 50.5191 7.75 49.4868C7.75 48.4546 8.54162 47.6177 9.51806 47.6177H20.1264C21.1029 47.6177 21.8945 48.4546 21.8945 49.4868C21.8945 50.5191 21.1029 51.356 20.1264 51.356Z" fill="#FEDB41"/>
<path fill-rule="evenodd" clip-rule="evenodd" d="M5.44922 0H56.5508C59.5555 0 62 2.40251 62 5.35557V15.5907C62 16.5766 61.1867 17.3759 60.1836 17.3759V17.4375H1.81641V17.3759C0.813266 17.3759 0 16.5766 0 15.5907V5.35557C0 2.40251 2.44452 0 5.44922 0ZM56.5508 3.57038H5.44922C4.44765 3.57038 3.63281 4.37122 3.63281 5.35557V13.8671H58.3672V5.35557C58.3672 4.37122 57.5523 3.57038 56.5508 3.57038Z" fill="#00DDC1"/>
<path fill-rule="evenodd" clip-rule="evenodd" d="M44.484 24.2229C46.4412 21.9237 49.9383 21.6222 52.2757 23.5555C54.613 25.4887 54.9191 28.9362 52.9579 31.2405L37.9372 48.7616C37.5724 49.1871 37.0516 49.4062 36.5274 49.4062C36.1068 49.4062 35.684 49.2653 35.3378 48.9768C35.1874 48.8516 35.0631 48.7074 34.9641 48.5512L30.0506 44.4869C29.9337 44.4264 29.8212 44.3537 29.7162 44.2662C29.0325 43.6967 28.8746 42.7421 29.2922 41.9984C29.353 41.8836 29.4262 41.7732 29.5142 41.6698C29.5565 41.6201 29.6011 41.5733 29.6475 41.5292L44.484 24.2229ZM36.3643 44.9624L50.1359 28.898C50.7855 28.1348 50.6835 26.9857 49.9045 26.3413C49.1254 25.6967 47.9595 25.7972 47.3058 26.5654L33.5383 42.6249L36.3643 44.9624Z" fill="#FD003A"/>
</svg>
