<svg width="30" height="23" viewBox="0 0 30 23" fill="none" xmlns="http://www.w3.org/2000/svg">
<path fill-rule="evenodd" clip-rule="evenodd" d="M26.1251 22.3971H3.73216C1.67095 22.3971 0 20.7261 0 18.6649V3.73628C0 1.67506 1.67095 0.00411692 3.73216 0.00411692H27.3692C28.4857 -0.0599334 29.5078 0.628855 29.8676 1.68779C30.2273 2.74673 29.8363 3.91557 28.9118 4.54491L17.3421 13.4399C15.9425 14.5159 13.9804 14.464 12.6396 13.3155L5.4614 7.16987C5.12361 6.88097 4.96561 6.43381 5.0469 5.99683C5.1282 5.55985 5.43645 5.19943 5.85554 5.05135C6.27463 4.90326 6.74088 4.99001 7.07867 5.27891L14.2569 11.4245C14.7137 11.7951 15.3676 11.7951 15.8244 11.4245L27.3941 2.52955L3.73216 2.49222C3.04509 2.49222 2.48811 3.04921 2.48811 3.73628V18.6649C2.48811 19.352 3.04509 19.909 3.73216 19.909H26.1251C26.8122 19.909 27.3692 19.352 27.3692 18.6649V8.71249C27.3692 8.02542 27.9262 7.46844 28.6132 7.46844C29.3003 7.46844 29.8573 8.02542 29.8573 8.71249V18.6649C29.8573 20.7261 28.1863 22.3971 26.1251 22.3971Z" fill="black"/>
</svg>
