<svg width="36" height="30" viewBox="0 0 36 30" fill="none" xmlns="http://www.w3.org/2000/svg">
<path fill-rule="evenodd" clip-rule="evenodd" d="M34.2395 19.7674C33.8494 19.7698 33.4745 19.6111 33.1975 19.3265L29.6609 15.6619C29.3839 15.3773 29.009 15.2186 28.6189 15.2209H13.6945C12.5243 15.2209 11.4023 14.7382 10.5762 13.8795C9.75017 13.0207 9.28806 11.8565 9.29196 10.644V4.56172C9.29196 2.04235 11.263 0 13.6945 0H31.3045C33.7359 0 35.707 2.04235 35.707 4.56172V10.644C35.707 11.4838 35.05 12.1646 34.2395 12.1646C33.429 12.1646 32.772 11.4838 32.772 10.644V4.56172C32.772 3.72193 32.115 3.04114 31.3045 3.04114H13.6945C12.884 3.04114 12.227 3.72193 12.227 4.56172V10.644C12.227 11.4838 12.884 12.1646 13.6945 12.1646H28.6189C29.7862 12.1656 30.9052 12.6469 31.73 13.5027L35.2667 17.1673C35.6881 17.6003 35.8163 18.2538 35.5914 18.8229C35.3666 19.3921 34.833 19.7649 34.2395 19.7674ZM3.67871 20.96V14.8253C3.67871 13.9782 4.34394 13.2916 5.16455 13.2916C5.98516 13.2916 6.65039 12.6049 6.65039 11.7579C6.65039 10.9109 5.98516 10.2242 5.16455 10.2242C2.70273 10.2242 0.707031 12.2842 0.707031 14.8253V20.96C0.707031 21.807 1.37226 22.4937 2.19287 22.4937C3.01348 22.4937 3.67871 21.807 3.67871 20.96ZM6.82033 25.8004L3.29532 29.4739L3.28069 29.4586C2.92323 29.8936 2.36197 30.0831 1.82766 29.9491C1.29335 29.8152 0.876169 29.3805 0.747642 28.8236C0.619116 28.2668 0.800933 27.6819 1.21834 27.3094L4.75798 23.636C5.5801 22.7782 6.69545 22.2957 7.85882 22.2947H22.7341C23.5419 22.2947 24.1967 21.6122 24.1967 20.7704V19.2462C24.1967 18.4044 24.8516 17.7219 25.6594 17.7219C26.4672 17.7219 27.1221 18.4044 27.1221 19.2462V20.7704C27.1221 23.2959 25.1575 25.3432 22.7341 25.3432H7.85882C7.46793 25.3448 7.09396 25.5095 6.82033 25.8004Z" fill="black"/>
</svg>
