<svg width="23" height="28" viewBox="0 0 23 28" fill="none" xmlns="http://www.w3.org/2000/svg">
<path d="M17.9684 9.32112C14.9945 7.5555 10.2213 4.72034 2.8177 0.320023C2.31855 -0.0298944 1.74425 -0.0757504 1.24805 0.102525L13.9505 13.586L17.9684 9.32112Z" fill="#32BBFF"/>
<path d="M1.24799 0.102539C1.15499 0.135976 1.06449 0.176312 0.977944 0.225034C0.429994 0.539657 0.0273438 1.14507 0.0273438 1.91077V25.2612C0.0273438 26.0269 0.429944 26.6323 0.977944 26.9469C1.06434 26.9956 1.15479 27.0361 1.24769 27.0697L13.9505 13.586L1.24799 0.102539Z" fill="#32BBFF"/>
<path d="M13.9504 13.5859L1.24756 27.0697C1.74391 27.2493 2.31821 27.2069 2.81751 26.8519C9.99741 22.5842 14.7168 19.7827 17.7251 18.002C17.8089 17.9521 17.8909 17.9032 17.972 17.8549L13.9504 13.5859Z" fill="#32BBFF"/>
<path d="M0 14.1304V25.4244C0 26.1651 0.404822 26.7507 0.955847 27.055C1.04272 27.1021 1.13367 27.1413 1.22709 27.1738L14 14.1304H0Z" fill="#2C9FD9"/>
<path d="M2.84074 0.327812C2.24766 -0.0978932 1.54826 -0.0857659 1 0.230522L13.787 14.1304L18 9.55079C15.0245 7.74165 10.2485 4.8366 2.84074 0.327812Z" fill="#29CC5E"/>
<path d="M13.7842 13.0435L1 26.9413C1.54819 27.2575 2.24738 27.2757 2.84033 26.844C10.0227 22.4718 14.7437 19.6016 17.753 17.7773C17.8368 17.7261 17.9189 17.6761 18 17.6266L13.7842 13.0435Z" fill="#D93F21"/>
<path d="M23 14.1284C23 13.4911 22.6832 12.848 22.0553 12.4913C22.0553 12.4913 20.8809 11.8262 17.2814 9.78271L13 14.1284L17.2856 18.4784C20.8456 16.4495 22.0552 15.7654 22.0552 15.7654C22.6832 15.4088 23 14.7657 23 14.1284Z" fill="#FFD500"/>
<path d="M22.0553 15.7667C22.6832 15.4102 23 14.7674 23 14.1304H13L17.2856 18.4782C20.8457 16.4504 22.0553 15.7667 22.0553 15.7667Z" fill="#FFAA00"/>
</svg>
