<svg width="69" height="61" viewBox="0 0 69 61" fill="none" xmlns="http://www.w3.org/2000/svg">
<path d="M59 36C57.8953 36 57 35.1047 57 34C57 32.8953 57.8953 32 59 32C62.3083 32 65 29.3083 65 26C65 22.6917 62.3083 20 59 20C57.8953 20 57 19.1047 57 18C57 16.8953 57.8953 16 59 16C64.5141 16 69 20.4859 69 26C69 31.5141 64.5141 36 59 36Z" fill="#D3D3D8"/>
<path d="M26.1085 50H22.0362C20.9115 50 20 49.0029 20 47.7727C20 46.5425 20.9115 45.5454 22.0362 45.5454H26.1085C28.8521 45.5454 31.2748 43.5275 31.9997 40.6379C32.2977 39.4523 33.4176 38.7545 34.5025 39.0799C35.5868 39.4053 36.2247 40.6309 35.9267 41.8176C34.7177 46.6353 30.6804 50 26.1085 50Z" fill="#FAFAFB"/>
<path fill-rule="evenodd" clip-rule="evenodd" d="M12 54.75C12 58.1962 14.6917 61 18 61C21.3083 61 24 58.1962 24 54.75V38.0833C24 36.9326 23.1047 36 22 36H14C12.8953 36 12 36.9326 12 38.0833V54.75ZM16 54.75V40.1667H20V54.75C20 55.8985 19.1026 56.8333 18 56.8333C16.8974 56.8333 16 55.8985 16 54.75Z" fill="#FF3636"/>
<path d="M10 36C4.48594 36 0 31.5141 0 26C0 20.4859 4.48594 16 10 16C11.1047 16 12 16.8953 12 18C12 19.1047 11.1047 20 10 20C6.69167 20 4 22.6917 4 26C4 29.3083 6.69167 32 10 32C11.1047 32 12 32.8953 12 34C12 35.1047 11.1047 36 10 36Z" fill="#D3D3D8"/>
<path d="M30 41H14C10.6917 41 8 38.3083 8 35V19C8 15.6917 10.6917 13 14 13H30C31.1047 13 32 13.8953 32 15C32 16.1047 31.1047 17 30 17H14C12.8974 17 12 17.8974 12 19V35C12 36.1026 12.8974 37 14 37H30C31.1047 37 32 37.8953 32 39C32 40.1047 31.1047 41 30 41Z" fill="#FF3636"/>
<path fill-rule="evenodd" clip-rule="evenodd" d="M58.2417 52.8381C58.4902 52.9464 58.7541 53 59.0165 53C59.4003 53 59.7815 52.8853 60.1111 52.6613C60.6663 52.2839 61 51.6453 61 50.9615V2.03842C61 1.35468 60.6663 0.716071 60.1111 0.338636C59.5563 -0.0387978 58.8538 -0.105154 58.2417 0.161863L30.2087 12.3926C29.4757 12.7127 29 13.4512 29 14.2692V38.7308C29 39.5488 29.4757 40.2877 30.2087 40.6073L58.2417 52.8381ZM57.0331 47.8815L32.9669 37.3813V15.6186L57.0331 5.11841V47.8815Z" fill="#00DDC1"/>
</svg>
