<svg width="55" height="68" viewBox="0 0 55 68" fill="none" xmlns="http://www.w3.org/2000/svg">
<path d="M27.5 66.3659C27.0885 66.3659 26.6764 66.257 26.32 66.0397L0.935402 50.5672C0.349264 50.2101 -0.00164687 49.6117 5.81184e-06 48.9718C0.00165849 48.3314 0.354773 47.734 0.942013 47.3794L13.6343 39.7071C14.6061 39.1197 15.9199 39.3574 16.5678 40.239C17.2161 41.1207 16.9534 42.3115 15.9811 42.8989L5.91812 48.9818L27.5 62.1366L49.0819 48.9818L39.0189 42.8989C38.0466 42.3115 37.7844 41.1202 38.4322 40.239C39.0801 39.3574 40.3939 39.1197 41.3657 39.7071L54.058 47.3794C54.6452 47.734 54.9989 48.3314 55 48.9718C55.0016 49.6117 54.6507 50.2101 54.0646 50.5672L28.68 66.0397C28.3236 66.257 27.9115 66.3659 27.5 66.3659Z" fill="#FF3636"/>
<path d="M27.5 50.8374C27.0912 50.8374 26.6819 50.7337 26.3266 50.5262L0.942007 35.7015C0.353666 35.3579 0 34.7793 0 34.1596C0 33.54 0.353666 32.9614 0.942007 32.6178L13.6343 25.2054C14.6061 24.6379 15.9199 24.8676 16.5678 25.7194C17.2161 26.5711 16.9534 27.7216 15.9811 28.2891L5.92914 34.1596L27.5 46.7573L49.0709 34.1596L39.0189 28.2891C38.0466 27.7216 37.7844 26.5706 38.4322 25.7194C39.0801 24.8676 40.3939 24.6379 41.3657 25.2054L54.058 32.6178C54.6463 32.9614 55 33.54 55 34.1596C55 34.7793 54.6463 35.3579 54.058 35.7015L28.6734 50.5262C28.3181 50.7337 27.9088 50.8374 27.5 50.8374Z" fill="#FF9F00"/>
<path fill-rule="evenodd" clip-rule="evenodd" d="M26.3266 34.9533C26.6819 35.1655 27.0912 35.2716 27.5 35.2716C27.9088 35.2716 28.3181 35.1655 28.6734 34.9533L54.058 19.7894C54.6452 19.4384 54.9983 18.8485 55 18.2157C55.0016 17.5834 54.6507 16.992 54.0646 16.6391L28.68 1.34882C27.9666 0.918882 27.0334 0.918882 26.32 1.34882L0.935408 16.6391C0.34927 16.992 -0.0016411 17.5834 1.1583e-05 18.2157C0.00166426 18.8485 0.354779 19.4384 0.942018 19.7894L26.3266 34.9533ZM27.5 31.0981L5.91813 18.2058L27.5 5.20594L49.0819 18.2058L27.5 31.0981Z" fill="#00DDC1"/>
</svg>
