<svg width="24" height="22" viewBox="0 0 24 22" fill="none" xmlns="http://www.w3.org/2000/svg">
<path fill-rule="evenodd" clip-rule="evenodd" d="M23.9043 15.7832C24.7702 19.634 19.5685 22.4005 16.1139 20.9354C6.96904 17.0573 15.1409 3.59992 20.6784 0.141777C21.6276 -0.450964 22.5102 0.978354 21.569 1.56584C19.0507 3.13902 17.1561 5.79412 15.8352 8.29218C15.0469 9.78288 14.2407 11.5915 13.9683 13.3958C15.2855 12.1333 17.0855 11.3321 19.0417 11.6687C21.3021 12.0574 23.4181 13.6216 23.9043 15.7832ZM19.4743 13.4583C17.252 12.8574 15.4086 13.9115 14.2956 15.7016C14.2874 15.7147 14.2781 15.7253 14.2688 15.736C14.2629 15.7428 14.2569 15.7497 14.2512 15.7572C14.2533 16.1252 14.26 16.4926 14.2843 16.8594C15.4859 19.8022 20.2486 20.9914 21.9049 17.6703C22.7777 15.9204 21.3732 13.9716 19.4743 13.4583Z" fill="white"/>
<path fill-rule="evenodd" clip-rule="evenodd" d="M11.9043 15.7832C12.77 19.634 7.56857 22.4005 4.11403 20.9354C-5.03108 17.0573 3.1409 3.59992 8.67845 0.141777C9.62752 -0.450964 10.5104 0.978354 9.56923 1.56584C7.05043 3.13902 5.15621 5.79412 3.83529 8.29218C3.04667 9.78288 2.24104 11.5915 1.96854 13.3958C3.28551 12.1333 5.08549 11.3321 7.04168 11.6687C9.30208 12.0574 11.4184 13.6216 11.9043 15.7832ZM7.47411 13.4583C5.25195 12.8574 3.40838 13.9115 2.29543 15.7016C2.29177 15.7078 2.28737 15.7127 2.28295 15.7176C2.27977 15.7211 2.27658 15.7247 2.27364 15.7287C2.28016 16.247 2.32686 16.746 2.46578 17.2382C3.903 19.8971 8.32164 20.8447 9.90458 17.6703C10.7775 15.9204 9.37285 13.9716 7.47411 13.4583Z" fill="white"/>
</svg>
