<svg width="31" height="24" viewBox="0 0 31 24" fill="none" xmlns="http://www.w3.org/2000/svg">
<path fill-rule="evenodd" clip-rule="evenodd" d="M26.8322 23.9984H4.43919C2.37798 23.9984 0.707031 22.2718 0.707031 20.1419V4.71566C0.707031 2.58575 2.37798 0.859113 4.43919 0.859113H28.0762C29.1928 0.792928 30.2148 1.50467 30.5746 2.5989C30.9343 3.69313 30.5433 4.90093 29.6188 5.55125L18.0491 14.7427C16.6495 15.8545 14.6874 15.8009 13.3466 14.6141L6.16843 8.26369C5.83064 7.96516 5.67264 7.5031 5.75394 7.05155C5.83523 6.60001 6.14348 6.22758 6.56257 6.07456C6.98166 5.92154 7.44791 6.01118 7.7857 6.3097L14.9639 12.6602C15.4207 13.0431 16.0746 13.0431 16.5314 12.6602L28.1011 3.46871L4.43919 3.43015C3.75212 3.43015 3.19514 4.00569 3.19514 4.71566V20.1419C3.19514 20.8518 3.75212 21.4274 4.43919 21.4274H26.8322C27.5192 21.4274 28.0762 20.8518 28.0762 20.1419V9.85773C28.0762 9.14776 28.6332 8.57221 29.3203 8.57221C30.0073 8.57221 30.5643 9.14776 30.5643 9.85773V20.1419C30.5643 22.2718 28.8934 23.9984 26.8322 23.9984Z" fill="black"/>
</svg>
