<svg width="78" height="68" viewBox="0 0 78 68" fill="none" xmlns="http://www.w3.org/2000/svg">
<path fill-rule="evenodd" clip-rule="evenodd" d="M5.83337 68H14.1666C17.383 68 19.9998 65.3831 20 62.1667V48.8334C20 45.6169 17.3832 43 14.1666 43H5.83337C2.61683 43 0 45.6169 0 48.8334V62.1667C0 65.3831 2.61683 68 5.83337 68ZM5 48.8333C5 48.3739 5.37375 48 5.8333 48H14.1666C14.626 48 14.9999 48.3738 14.9999 48.8333V62.1666C14.9999 62.626 14.6261 62.9999 14.1666 62.9999H5.8333C5.3739 62.9999 5 62.6262 5 62.1666V48.8333Z" fill="#F25030"/>
<path fill-rule="evenodd" clip-rule="evenodd" d="M34.8334 68H43.1666C46.3832 68 49 65.3308 49 62.0501V5.95008C49 2.66919 46.3832 0 43.1666 0H34.8334C31.6168 0 29 2.66919 29 5.95008V62.0499C29 65.3308 31.6168 68 34.8334 68ZM34 5.94994C34 5.48135 34.3737 5.09998 34.8333 5.09998V5.10013H43.1666C43.626 5.10013 43.9999 5.48135 43.9999 5.9501V62.0499C43.9999 62.5185 43.6261 62.8999 43.1666 62.8999H34.8333C34.3739 62.8999 34 62.5187 34 62.0499V5.94994Z" fill="#00DBC5"/>
<path fill-rule="evenodd" clip-rule="evenodd" d="M63.8334 68H72.1666C75.3832 68 78 65.325 78 62.0371V27.963C78 24.675 75.3832 22 72.1666 22H63.8334C60.6168 22 58 24.675 58 27.963V62.037C58 65.325 60.6168 68 63.8334 68ZM63 27.963C63 27.4934 63.3737 27.1112 63.8333 27.1112H72.1666C72.626 27.1112 72.9999 27.4933 72.9999 27.963V62.0371C72.9999 62.5067 72.6261 62.8889 72.1666 62.8889H63.8333C63.3739 62.8889 63 62.5069 63 62.0371V27.963Z" fill="#4DA6FF"/>
</svg>
