<svg width="28" height="30" viewBox="0 0 28 30" fill="none" xmlns="http://www.w3.org/2000/svg">
<path fill-rule="evenodd" clip-rule="evenodd" d="M19.8631 28.44H7.94646C3.5692 28.44 0.211119 26.859 1.16497 20.4956L2.27562 11.8718C2.86361 8.69663 4.88891 7.48145 6.66595 7.48145H21.1958C22.999 7.48145 24.9067 8.78809 25.5862 11.8718L26.6968 20.4956C27.5069 26.1403 24.2403 28.44 19.8631 28.44Z" stroke="#FF3294" stroke-width="1.5" stroke-linecap="round" stroke-linejoin="round"/>
<path opacity="0.4" d="M20.0581 7.16748C20.0581 3.76133 17.2969 1.00005 13.8908 1.00005C12.2506 0.99316 10.6751 1.63986 9.51288 2.79722C8.35061 3.95458 7.69727 5.52725 7.69727 7.16748" stroke="#FF3294" stroke-width="1.5" stroke-linecap="round" stroke-linejoin="round"/>
<path d="M18.1298 13.5964H18.0645" stroke="#FF3294" stroke-width="1.5" stroke-linecap="round" stroke-linejoin="round"/>
<path d="M9.80166 13.5964H9.73633" stroke="#FF3294" stroke-width="1.5" stroke-linecap="round" stroke-linejoin="round"/>
</svg>
