<svg width="169" height="165" viewBox="0 0 169 165" fill="none" xmlns="http://www.w3.org/2000/svg">
<path d="M55.4828 151.275C85.5836 151.275 109.985 126.969 109.985 96.9849C109.985 67.0013 85.5836 42.6947 55.4828 42.6947C25.382 42.6947 0.980469 67.0013 0.980469 96.9849C0.980469 126.969 25.382 151.275 55.4828 151.275Z" fill="#FFEBF5"/>
<path d="M73.8257 76.6445L64.8379 79.9031L72.6375 101.249L81.6253 97.9904L73.8257 76.6445Z" fill="#F1E302"/>
<path d="M105.03 20.2045C99.9729 29.5962 98.6741 43.1693 102.428 57.1226C106.182 71.0758 114.119 82.1837 123.213 87.7981C115.197 83.0838 106.311 80.0237 97.0844 78.7999C87.8573 77.5761 78.4773 78.2136 69.5026 80.6746L65.5384 81.7626L65.5201 81.7699C60.4177 83.1318 54.6191 78.0541 52.5686 70.4314C50.518 62.8087 52.991 55.5229 58.0941 54.161L58.113 54.1562L62.092 53.1232C71.1002 50.7855 79.544 46.6659 86.9205 41.0098C94.2969 35.3537 100.455 28.2767 105.029 20.2003L105.03 20.2045Z" fill="#FF3294"/>
<path d="M141.282 91.1364C156.589 87.0509 164.01 65.1982 157.858 42.3271C151.706 19.456 134.31 4.2273 119.003 8.31283C103.696 12.3984 96.2745 34.251 102.427 57.1221C108.579 79.9932 125.975 95.2219 141.282 91.1364Z" fill="white" stroke="#081F2D" stroke-width="2.036" stroke-miterlimit="10"/>
<path d="M132.371 58.0077L127.727 59.248C120.282 61.2346 113.105 64.1082 106.351 67.8064C103.098 60.9165 101.104 53.5038 100.463 45.9165C108.169 45.7563 115.827 44.6711 123.272 42.6845L127.918 41.4445L132.371 58.0077Z" fill="white" stroke="#081F2D" stroke-width="2.036" stroke-linejoin="round"/>
<path d="M132.456 58.3276C135.636 57.4789 137.178 52.9391 135.9 48.1878C134.622 43.4364 131.008 40.2727 127.828 41.1214C124.648 41.9702 123.106 46.5099 124.385 51.2613C125.663 56.0126 129.276 59.1763 132.456 58.3276Z" fill="#FF3294"/>
<path d="M142.369 46.7773L149.95 44.7537" stroke="#F16091" stroke-width="3.393" stroke-miterlimit="10"/>
<path d="M140.537 64.6343L147.145 68.4346" stroke="#F16091" stroke-width="3.393" stroke-miterlimit="10"/>
<path d="M131.799 32.1517L135.614 25.5693" stroke="#F16091" stroke-width="3.393" stroke-miterlimit="10"/>
<path d="M49.137 131.149C49.8794 133.27 52.1021 139.917 49.8678 146.374C49.4942 147.453 48.5828 150.005 47.1401 150.106C45.37 150.23 43.7243 146.622 43.1659 145.148C41.3701 140.407 37.9864 124.739 34.3691 103.363C38.2881 108.995 45.0616 119.501 49.137 131.149Z" fill="#081F2D" stroke="#081F2D" stroke-width="2.036" stroke-linecap="round" stroke-linejoin="round"/>
<path d="M43.3408 91.4675C50.7527 83.3741 59.587 80.3929 62.646 79.4009C69.3225 77.2368 81.4298 75.0451 84.5231 79.6825M43.3408 91.4675L89.5097 121.546L89.51 121.551C89.5174 121.666 89.5582 122.292 88.8469 123.321C88.0975 124.405 86.488 125.97 83.0465 127.806L83.0461 127.807C76.9294 131.074 71.6515 131.679 66.0179 132.324C64.7342 132.471 63.432 132.62 62.0971 132.803L62.095 132.803C55.2129 133.763 48.4603 135.482 41.9612 137.926L34.4945 104.657C36.9244 102.254 38.2075 100.355 39.4077 98.4782C39.5148 98.3108 39.621 98.1439 39.7271 97.977C40.8589 96.1982 41.9866 94.4258 44.0781 92.143L44.0783 92.1429C51.3099 84.2462 59.9383 81.3303 62.9543 80.3522L62.646 79.4011L62.9544 80.3522C66.2362 79.2884 70.8451 78.2222 74.9843 77.9896C77.056 77.8731 78.9584 77.9688 80.4993 78.3487C82.0365 78.7277 83.0953 79.3586 83.678 80.2178M43.3408 91.4675C41.1885 93.8166 40.0195 95.6542 38.885 97.4376M43.3408 91.4675L38.885 97.4376M84.5231 79.6825L83.6656 80.197C83.6697 80.2039 83.6738 80.2108 83.678 80.2178M84.5231 79.6825L83.6912 80.2374C83.6868 80.2309 83.6824 80.2243 83.678 80.2178M84.5231 79.6825C85.0206 80.5118 85.2523 81.4725 85.1874 82.4365C86.4416 83.4822 87.582 84.8931 87.8789 86.6761C88.2676 88.9893 87.1612 91.4621 85.2581 93.5448C84.7398 93.518 84.3771 93.5204 84.2557 93.5227L84.2751 94.5225L84.9467 95.2634C85.1924 95.0407 85.4315 94.8102 85.6625 94.5728L92.0476 98.5385M83.678 80.2178C84.062 80.8675 84.2403 81.6172 84.1897 82.3693L84.1554 82.878L84.547 83.2045C85.7081 84.1726 86.6507 85.3886 86.8924 86.8404L86.8927 86.8419C87.2621 89.04 85.982 91.6255 83.6035 93.7816L81.6262 95.574L84.2944 95.5223C84.53 95.5178 86.2231 95.5123 88.0188 95.9373C89.8792 96.3777 91.473 97.1891 92.0476 98.5385M92.0476 98.5385C92.274 99.1069 92.3393 99.7262 92.2364 100.329C92.0198 101.473 91.0251 102.715 89.3075 103.88L87.8065 104.899L89.4691 105.624C90.0399 105.873 91.9181 106.77 92.6615 108.749C93.0869 109.905 93.0854 111.175 92.6574 112.33C92.3393 113.13 91.6417 113.89 90.5737 114.567C89.5075 115.242 88.1379 115.79 86.6049 116.185L83.9159 116.878L86.4292 118.059C87.0225 118.337 87.5701 118.704 88.0535 119.145C88.6213 119.673 89.4413 120.477 89.5096 121.545L92.0476 98.5385ZM38.885 97.4376C37.5372 99.5563 36.238 101.599 33.3965 104.332L38.885 97.4376Z" stroke="black" stroke-width="2"/>
<path d="M50.7578 117.795C52.9143 116.293 54.7552 114.385 56.177 112.179C58.2348 108.938 59.3377 105.187 59.3599 101.353" stroke="#081F2D" stroke-width="2.036" stroke-miterlimit="10"/>
<path d="M79.4242 126.883C77.8745 126.575 73.5254 125.711 72.6494 122.76C72.399 121.842 72.4648 120.866 72.8363 119.99C74.6838 115.865 84.3846 114.4 88.7324 118.413C89.1821 118.828 90.4157 119.9 90.5092 121.485C90.6326 123.575 88.7028 125.13 88.1908 125.542C85.1196 128.016 80.9588 127.188 79.4242 126.883Z" fill="#FCFBD9"/>
<path d="M74.4626 107.98C73.8624 108.303 73.3391 108.751 72.9283 109.293C71.6404 111.037 71.7329 113.664 72.4233 114.967C74.9162 119.674 91.2636 118.572 93.5937 112.688C94.1042 111.303 94.1077 109.784 93.6036 108.397C92.7311 106.098 90.5595 105.044 89.871 104.71C84.6305 102.167 78.5357 105.651 74.4626 107.98Z" fill="#FCFBD9"/>
<path d="M73.2182 98.3865C71.8921 99.4883 70.1419 100.985 70.1155 103.091C70.0937 104.842 71.2759 106.151 71.4969 106.384C75.9411 111.106 92.0961 106.547 93.2266 100.507C93.369 99.7164 93.2821 98.9016 92.976 98.1584C91.5355 94.7773 85.6011 94.5689 84.2766 94.5225C83.8034 94.5049 78.0305 94.3875 73.2182 98.3865Z" fill="#FCFBD9"/>
<path d="M78.4444 85.0041C77.6677 84.9907 73.0407 84.9836 70.1295 88.5043C69.806 88.8956 66.8088 92.6185 68.327 95.6083C69.7042 98.3196 73.8033 98.4697 74.4654 98.494C81.0732 98.736 88.8144 92.2496 87.8799 86.6768C87.7862 86.1277 87.613 85.5952 87.3659 85.0956C86.9993 84.3681 86.5183 83.7036 85.9411 83.1273" fill="#FCFBD9"/>
<path d="M79.4189 126.883C75.9401 126.578 73.2888 124.988 72.6441 122.761C72.3929 121.842 72.4587 120.867 72.8311 119.99C73.3367 118.861 74.4299 117.932 75.8405 117.259" stroke="#081F2D" stroke-width="2.036" stroke-miterlimit="10"/>
<path d="M74.4597 107.98C73.8601 108.304 73.3371 108.752 72.9257 109.294C71.5857 111.086 71.7509 113.703 72.4207 114.968C74.1966 118.321 83.0055 118.726 88.7665 116.553" stroke="#081F2D" stroke-width="2.036" stroke-miterlimit="10"/>
<path d="M73.2136 98.3866C72.8047 98.6464 70.1242 100.403 70.1113 103.091C70.1507 104.32 70.6416 105.491 71.4908 106.384C75.2147 110.341 87.1604 107.781 91.601 103.294" stroke="#081F2D" stroke-width="2.036" stroke-miterlimit="10"/>
<path d="M68.9155 90.311C68.1274 91.7546 67.4117 93.8131 68.3231 95.6074C69.7003 98.3184 73.7994 98.4685 74.4615 98.4928C78.7062 98.6483 83.4183 96.0288 85.9982 92.656" stroke="#081F2D" stroke-width="2.036" stroke-miterlimit="10"/>
<mask id="path-21-inside-1_1185_119" fill="white">
<path d="M56.5785 98.4573C57.9355 96.3626 60.2614 93.4672 63.993 91.6621C67.5553 89.9389 69.1163 90.7981 75.3061 88.9152C79.6205 87.6032 84.4881 86.0624 85.1364 82.8275C85.3134 81.7393 85.0953 80.6238 84.5212 79.6813C81.4298 75.0438 69.3232 77.2349 62.647 79.401C59.5854 80.393 50.7533 83.376 43.3421 91.465C38.629 96.6086 38.631 99.2986 33.3984 104.329"/>
</mask>
<path d="M63.993 91.6621L63.1221 89.8617L63.1221 89.8617L63.993 91.6621ZM75.3061 88.9152L74.7242 87.0017L74.7241 87.0018L75.3061 88.9152ZM85.1364 82.8275L87.0974 83.2205L87.1046 83.1847L87.1104 83.1487L85.1364 82.8275ZM84.5212 79.6813L86.2292 78.6408L86.208 78.6059L86.1853 78.5719L84.5212 79.6813ZM62.647 79.401L63.2634 81.3036L63.2642 81.3033L62.647 79.401ZM43.3421 91.465L44.8167 92.8161L44.8167 92.8161L43.3421 91.465ZM58.2571 99.5447C59.5143 97.6039 61.5943 95.0441 64.8639 93.4625L63.1221 89.8617C58.9285 91.8903 56.3567 95.1212 54.9 97.3699L58.2571 99.5447ZM64.8639 93.4625C66.3658 92.736 67.4037 92.5547 68.9544 92.3274C70.5816 92.0888 72.6427 91.8159 75.8882 90.8286L74.7241 87.0018C71.7797 87.8974 69.9654 88.1364 68.3741 88.3697C66.7063 88.6142 65.1825 88.865 63.1221 89.8617L64.8639 93.4625ZM75.888 90.8287C78.0109 90.1831 80.4882 89.4208 82.5174 88.3676C84.4847 87.3465 86.5863 85.7708 87.0974 83.2205L83.1754 82.4345C83.0382 83.1192 82.3818 83.9313 80.6747 84.8173C79.0294 85.6712 76.9157 86.3353 74.7242 87.0017L75.888 90.8287ZM87.1104 83.1487C87.3642 81.5889 87.0514 79.9905 86.2292 78.6408L82.8131 80.7217C83.1392 81.2571 83.2627 81.8897 83.1623 82.5064L87.1104 83.1487ZM86.1853 78.5719C85.0255 76.8321 83.1418 75.9094 81.2169 75.4347C79.2757 74.9559 77.0448 74.8676 74.8161 74.993C70.351 75.244 65.481 76.3788 62.0297 77.4986L63.2642 81.3033C66.4891 80.257 71.0106 79.2133 75.0407 78.9867C77.0596 78.8731 78.8522 78.9713 80.2591 79.3183C81.6822 79.6693 82.4711 80.2117 82.857 80.7906L86.1853 78.5719ZM62.0305 77.4984C58.882 78.5185 49.6387 81.632 41.8674 90.1139L44.8167 92.8161C51.8679 85.1201 60.2889 82.2674 63.2634 81.3036L62.0305 77.4984ZM41.8675 90.1138C39.377 92.8319 38.113 94.9331 36.8799 96.8623C35.6811 98.7378 34.4707 100.524 32.0123 102.887L34.7845 105.771C37.5587 103.104 38.9636 101.03 40.2502 99.0166C41.5026 97.0573 42.5941 95.2417 44.8167 92.8161L41.8675 90.1138Z" fill="black" mask="url(#path-21-inside-1_1185_119)"/>
<path d="M56.5742 98.4576C57.9312 96.3629 60.257 93.4676 63.989 91.6621C67.5513 89.9389 69.112 90.7981 75.3018 88.9156C79.6162 87.6036 84.4838 86.0624 85.1337 82.8279C85.3109 81.7396 85.0928 80.6241 84.5185 79.6816" stroke="#081F2D" stroke-width="2.036" stroke-miterlimit="10"/>
<path d="M4.10156 115.14L20.4583 164.35C29.3675 159.236 35.7819 156.072 39.9739 153.898C42.5131 152.58 45.0425 151.284 47.5622 150.009C47.5429 150.015 47.4841 150.034 47.4212 150.05C47.3711 150.067 47.3197 150.08 47.2676 150.088C47.2253 150.097 47.1823 150.103 47.1391 150.104C45.3722 150.23 43.7258 146.624 43.1665 145.148C41.3704 140.408 37.9857 124.741 34.3678 103.365L4.10156 115.14Z" fill="white"/>
<path d="M40.6775 153.533C37.4383 151.061 35.1379 147.567 34.1529 143.622L25.0098 107.005" stroke="#081F2D" stroke-width="2.036" stroke-miterlimit="10"/>
<path d="M49.8678 146.374C49.4942 147.453 48.5828 150.005 47.1401 150.106C45.37 150.23 43.7243 146.622 43.1659 145.148C41.3701 140.407 37.9864 124.739 34.3691 103.363" stroke="#081F2D" stroke-width="2.036" stroke-linecap="round" stroke-linejoin="round"/>
</svg>
