<svg width="27" height="36" viewBox="0 0 27 36" fill="none" xmlns="http://www.w3.org/2000/svg">
<path fill-rule="evenodd" clip-rule="evenodd" d="M13.2311 18.1793C9.98364 18.1793 7.35107 15.6091 7.35107 12.4386C7.35107 9.26817 9.98364 6.698 13.2311 6.698C16.4785 6.698 19.1111 9.26817 19.1111 12.4386C19.1111 15.6091 16.4785 18.1793 13.2311 18.1793ZM13.227 9.5683C11.6033 9.5683 10.287 10.8534 10.287 12.4387C10.287 14.0239 11.6033 15.309 13.227 15.309C14.8507 15.309 16.167 14.0239 16.167 12.4387C16.167 10.8534 14.8507 9.5683 13.227 9.5683ZM14.0532 35.1574C14.3772 34.9445 14.6011 34.6146 14.6756 34.2403C14.75 33.8661 14.6689 33.4783 14.4501 33.1625C3.58679 17.3756 2.94 16.2705 2.94 12.4386C2.94 8.97983 5.67419 3.82756 13.23 3.82756C20.7858 3.82756 23.52 8.97983 23.52 12.4386C23.52 15.6103 23.2407 16.7441 15.9348 27.4649C15.5377 28.1206 15.7345 28.9649 16.3831 29.3883C17.0316 29.8117 17.906 29.6666 18.375 29.0579C25.4751 18.6673 26.46 16.6437 26.46 12.4386C26.46 8.00391 22.8732 0.957214 13.23 0.957214C3.5868 0.957214 0 8.00391 0 12.4386C0 17.2321 1.0143 18.8538 12.0099 34.7699C12.2279 35.0862 12.5658 35.3048 12.9492 35.3775C13.3325 35.4502 13.7297 35.371 14.0532 35.1574Z" fill="black"/>
</svg>
