<svg width="39" height="35" viewBox="0 0 39 35" fill="none" xmlns="http://www.w3.org/2000/svg">
<path fill-rule="evenodd" clip-rule="evenodd" d="M38.2443 25.9059C39.6164 32.0076 31.3742 36.391 25.9004 34.0696C11.4103 27.9247 24.3587 6.60143 33.1328 1.12197C34.6369 0.18277 36.0354 2.44753 34.5441 3.3784C30.5537 5.87112 27.5518 10.0781 25.4588 14.0363C24.2098 16.3984 22.9324 19.2642 22.5008 22.123C24.5878 20.1226 27.4399 18.8531 30.5396 19.3865C34.1212 20.0024 37.474 22.4808 38.2443 25.9059ZM31.225 22.2221C27.7038 21.27 24.7829 22.9402 23.0193 25.7766C23.0064 25.7973 22.9916 25.8142 22.9769 25.8311C22.9674 25.8419 22.958 25.8528 22.949 25.8647C22.9523 26.4478 22.9628 27.0299 23.0014 27.6112C24.9054 32.2741 32.4519 34.1584 35.0763 28.8961C36.4593 26.1233 34.2338 23.0355 31.225 22.2221Z" fill="#5B43FF"/>
<path fill-rule="evenodd" clip-rule="evenodd" d="M19.2302 25.9059C20.602 32.0076 12.3602 36.391 6.88646 34.0696C-7.60404 27.9247 5.34453 6.60143 14.1188 1.12197C15.6226 0.18277 17.0215 2.44753 15.5303 3.3784C11.5392 5.87112 8.5378 10.0781 6.4448 14.0363C5.19521 16.3984 3.9187 19.2642 3.48692 22.123C5.57366 20.1226 8.42575 18.8531 11.5253 19.3865C15.107 20.0024 18.4603 22.4808 19.2302 25.9059ZM12.2105 22.2221C8.6895 21.27 5.76835 22.9402 4.00488 25.7766C3.99907 25.7864 3.99211 25.7942 3.9851 25.802C3.98007 25.8076 3.97501 25.8132 3.97035 25.8196C3.98068 26.6407 4.05468 27.4314 4.2748 28.2113C6.55208 32.4245 13.5535 33.9259 16.0616 28.8961C17.4448 26.1233 15.2191 23.0355 12.2105 22.2221Z" fill="#5B43FF"/>
</svg>
