<svg width="35" height="30" viewBox="0 0 35 30" fill="none" xmlns="http://www.w3.org/2000/svg">
<path fill-rule="evenodd" clip-rule="evenodd" d="M33.5325 19.1297C33.1424 19.1319 32.7675 18.9784 32.4906 18.7029L28.9539 15.1566C28.6769 14.8812 28.302 14.7276 27.912 14.7299H12.9874C11.8173 14.7299 10.6953 14.2627 9.8692 13.4317C9.04314 12.6006 8.58103 11.474 8.58493 10.3006V4.41454C8.58493 1.97646 10.556 0 12.9874 0H30.5975C33.0289 0 35 1.97646 35 4.41454V10.3006C35 11.1133 34.343 11.7721 33.5325 11.7721C32.722 11.7721 32.065 11.1133 32.065 10.3006V4.41454C32.065 3.60185 31.408 2.94303 30.5975 2.94303H12.9874C12.177 2.94303 11.5199 3.60185 11.5199 4.41454V10.3006C11.5199 11.1133 12.177 11.7721 12.9874 11.7721H27.912C29.0792 11.7731 30.1982 12.2389 31.0231 13.067L34.5597 16.6134C34.9812 17.0325 35.1093 17.6649 34.8845 18.2157C34.6596 18.7664 34.126 19.1272 33.5325 19.1297ZM2.9717 20.2841V14.3473C2.9717 13.5276 3.63694 12.8631 4.45755 12.8631C5.27816 12.8631 5.9434 12.1986 5.9434 11.3789C5.9434 10.5592 5.27816 9.89468 4.45755 9.89468C1.99571 9.89468 1.04723e-10 11.8882 1.04723e-10 14.3473V20.2841C1.04723e-10 21.1038 0.665237 21.7683 1.48585 21.7683C2.30646 21.7683 2.9717 21.1038 2.9717 20.2841ZM6.11332 24.9686L2.58829 28.5235L2.57367 28.5087C2.21621 28.9297 1.65494 29.1131 1.12063 28.9834C0.586317 28.8538 0.169138 28.4331 0.0406112 27.8943C-0.0879157 27.3554 0.0939019 26.7894 0.511311 26.4289L4.05096 22.874C4.87308 22.0439 5.98843 21.577 7.15181 21.576H22.0271C22.8349 21.576 23.4898 20.9156 23.4898 20.1009V18.6258C23.4898 17.8112 24.1446 17.1508 24.9524 17.1508C25.7602 17.1508 26.4151 17.8112 26.4151 18.6258V20.1009C26.4151 22.5449 24.4505 24.5261 22.0271 24.5261H7.15181C6.76092 24.5277 6.38694 24.6871 6.11332 24.9686Z" fill="white"/>
</svg>
