<svg width="28" height="25" viewBox="0 0 28 25" fill="none" xmlns="http://www.w3.org/2000/svg">
<path fill-rule="evenodd" clip-rule="evenodd" d="M27.8883 18.4952C28.8986 23.0079 22.8299 26.2498 18.7995 24.5329C8.13055 19.9883 17.6644 4.2179 24.1248 0.165382C25.2322 -0.529236 26.2619 1.14574 25.1639 1.8342C22.2258 3.67777 20.0155 6.78922 18.4744 9.71663C17.5547 11.4636 16.6142 13.583 16.2964 15.6974C17.8331 14.2179 19.9331 13.2791 22.2154 13.6735C24.8525 14.129 27.3211 15.962 27.8883 18.4952ZM22.72 15.7707C20.1274 15.0666 17.9767 16.3018 16.6782 18.3996C16.6687 18.4149 16.6578 18.4273 16.647 18.4398C16.64 18.4479 16.633 18.4559 16.6264 18.4647C16.6289 18.8959 16.6366 19.3265 16.665 19.7564C18.0669 23.205 23.6234 24.5986 25.5557 20.7067C26.574 18.6559 24.9354 16.3723 22.72 15.7707Z" fill="white"/>
<path fill-rule="evenodd" clip-rule="evenodd" d="M13.8883 18.4952C14.8984 23.0079 8.83 26.2498 4.7997 24.5329C-5.8696 19.9883 3.66438 4.2179 10.1249 0.165382C11.2321 -0.529236 12.2621 1.14574 11.1641 1.8342C8.22551 3.67777 6.01558 6.78922 4.47451 9.71663C3.55444 11.4636 2.61455 13.583 2.29663 15.6974C3.83309 14.2179 5.93308 13.2791 8.2153 13.6735C10.8524 14.129 13.3215 15.962 13.8883 18.4952ZM8.7198 15.7707C6.12727 15.0666 3.97644 16.3018 2.678 18.3996C2.67373 18.4068 2.6686 18.4125 2.66344 18.4183C2.65973 18.4224 2.65601 18.4266 2.65258 18.4313C2.66019 19.0386 2.71467 19.6234 2.87675 20.2002C4.5535 23.3162 9.70858 24.4266 11.5553 20.7067C12.5738 18.6559 10.935 16.3723 8.7198 15.7707Z" fill="white"/>
</svg>
