<svg width="20" height="21" viewBox="0 0 20 21" fill="none" xmlns="http://www.w3.org/2000/svg">
<path fill-rule="evenodd" clip-rule="evenodd" d="M9.50422 1.02049C6.65336 1.02049 4.32208 3.3545 4.32209 6.20871C4.32211 9.06292 6.65338 11.3969 9.50422 11.3969C12.3551 11.3969 14.6779 9.06292 14.6779 6.20871C14.6779 3.3545 12.3551 1.02049 9.50422 1.02049ZM9.50422 2.74934C11.4218 2.74934 12.9511 4.28886 12.9511 6.20871C12.9511 8.12859 11.4218 9.6664 9.50422 9.6664C7.58661 9.6664 6.04891 8.12859 6.0489 6.20871C6.0489 4.28886 7.5866 2.74934 9.50422 2.74934ZM9.4352 13.1257C9.4591 13.1258 9.48211 13.1258 9.50422 13.1258C9.52661 13.1258 9.54994 13.1258 9.57416 13.1257C10.484 13.1252 12.6674 13.1239 14.7369 13.8146C15.7993 14.1691 16.8513 14.7135 17.661 15.589C18.4708 16.4646 19 17.6863 19 19.175C18.9896 19.645 18.6061 20.0205 18.1366 20.0205C17.6671 20.0205 17.2836 19.645 17.2732 19.175C17.2732 18.0705 16.9323 17.3456 16.3929 16.7624C15.8536 16.1792 15.0743 15.7477 14.1939 15.454C12.4333 14.8672 10.3676 14.8546 9.50422 14.8546C8.6408 14.8546 6.57346 14.8664 4.81282 15.454C3.9325 15.7477 3.14645 16.1792 2.60708 16.7624C2.06772 17.3456 1.72681 18.0705 1.72681 19.175C1.7164 19.645 1.33291 20.0205 0.863406 20.0205C0.393906 20.0205 0.0104116 19.645 0 19.175C-3.65219e-06 17.6863 0.529248 16.4646 1.33895 15.589C2.14866 14.7135 3.20241 14.1691 4.26476 13.8146C6.33506 13.124 8.52563 13.1252 9.4352 13.1257Z" fill="black"/>
<path d="M4.32209 6.20871L4.07209 6.20871V6.20871L4.32209 6.20871ZM14.6779 6.20871L14.9279 6.20871V6.20871L14.6779 6.20871ZM12.9511 6.20871L13.2011 6.20871V6.20871L12.9511 6.20871ZM6.0489 6.20871L5.7989 6.20871V6.20871L6.0489 6.20871ZM9.4352 13.1257L9.43506 13.3757H9.43507L9.4352 13.1257ZM9.57416 13.1257L9.57402 12.8757H9.57402L9.57416 13.1257ZM14.7369 13.8146L14.6578 14.0517L14.6578 14.0518L14.7369 13.8146ZM17.661 15.589L17.8446 15.4193L17.661 15.589ZM19 19.175L19.25 19.1806V19.175H19ZM17.2732 19.175H17.0231L17.0232 19.1806L17.2732 19.175ZM16.3929 16.7624L16.5765 16.5927H16.5765L16.3929 16.7624ZM14.1939 15.454L14.2731 15.2168L14.273 15.2168L14.1939 15.454ZM4.81282 15.454L4.73368 15.2168L4.81282 15.454ZM2.60708 16.7624L2.42355 16.5927L2.42354 16.5927L2.60708 16.7624ZM1.72681 19.175L1.97681 19.1806V19.175H1.72681ZM0 19.175H-0.250061L-0.249939 19.1806L0 19.175ZM1.33895 15.589L1.15541 15.4193H1.15541L1.33895 15.589ZM4.26476 13.8146L4.18565 13.5775L4.18562 13.5775L4.26476 13.8146ZM4.57209 6.20871C4.57208 3.4923 6.79171 1.27049 9.50422 1.27049V0.770493C6.51501 0.770493 4.07208 3.21671 4.07209 6.20871L4.57209 6.20871ZM9.50422 11.1469C6.79172 11.1469 4.5721 8.92512 4.57209 6.20871L4.07209 6.20871C4.07211 9.20071 6.51503 11.6469 9.50422 11.6469V11.1469ZM14.4279 6.20871C14.4279 8.92565 12.2162 11.1469 9.50422 11.1469V11.6469C12.4939 11.6469 14.9279 9.20018 14.9279 6.20871L14.4279 6.20871ZM9.50422 1.27049C12.2162 1.27049 14.4279 3.49177 14.4279 6.20871L14.9279 6.20871C14.9279 3.21724 12.4939 0.770493 9.50422 0.770493V1.27049ZM13.2011 6.20871C13.2011 4.15187 11.561 2.49934 9.50422 2.49934V2.99934C11.2827 2.99934 12.7011 4.42586 12.7011 6.20871L13.2011 6.20871ZM9.50422 9.9164C11.5608 9.9164 13.2011 8.26575 13.2011 6.20871L12.7011 6.20871C12.7011 7.99144 11.2828 9.4164 9.50422 9.4164V9.9164ZM5.7989 6.20871C5.79891 8.26655 7.44842 9.9164 9.50422 9.9164V9.4164C7.7248 9.4164 6.29891 7.99064 6.2989 6.20871L5.7989 6.20871ZM9.50422 2.49934C7.44825 2.49934 5.7989 4.15107 5.7989 6.20871L6.2989 6.20871C6.2989 4.42665 7.72495 2.99934 9.50422 2.99934V2.49934ZM9.50422 12.8758C9.4822 12.8758 9.45926 12.8758 9.43534 12.8757L9.43507 13.3757C9.45894 13.3758 9.48203 13.3758 9.50422 13.3758V12.8758ZM9.57402 12.8757C9.54978 12.8758 9.52653 12.8758 9.50422 12.8758V13.3758C9.5267 13.3758 9.55009 13.3758 9.57431 13.3757L9.57402 12.8757ZM14.8161 13.5775C12.7038 12.8726 10.4833 12.8752 9.57402 12.8757L9.57431 13.3757C10.4847 13.3752 12.6309 13.3753 14.6578 14.0517L14.8161 13.5775ZM17.8446 15.4193C16.9967 14.5024 15.9022 13.9399 14.8161 13.5775L14.6578 14.0518C15.6963 14.3983 16.706 14.9246 17.4775 15.7588L17.8446 15.4193ZM19.25 19.175C19.25 17.6243 18.6976 16.3417 17.8446 15.4193L17.4775 15.7588C18.2439 16.5874 18.75 17.7483 18.75 19.175H19.25ZM18.1366 20.2705C18.7423 20.2705 19.2365 19.7861 19.2499 19.1806L18.7501 19.1695C18.7427 19.5038 18.4699 19.7705 18.1366 19.7705V20.2705ZM17.0232 19.1806C17.0367 19.7861 17.5309 20.2705 18.1366 20.2705V19.7705C17.8033 19.7705 17.5305 19.5038 17.5231 19.1695L17.0232 19.1806ZM16.2094 16.9322C16.7055 17.4686 17.0232 18.1327 17.0232 19.175H17.5232C17.5232 18.0083 17.159 17.2226 16.5765 16.5927L16.2094 16.9322ZM14.1148 15.6911C14.971 15.9768 15.7081 16.3901 16.2094 16.9322L16.5765 16.5927C15.999 15.9683 15.1775 15.5186 14.2731 15.2168L14.1148 15.6911ZM9.50422 15.1046C10.3697 15.1046 12.3974 15.1188 14.1149 15.6911L14.273 15.2168C12.4692 14.6157 10.3655 14.6046 9.50422 14.6046V15.1046ZM4.89195 15.6911C6.60935 15.118 8.63857 15.1046 9.50422 15.1046V14.6046C8.64303 14.6046 6.53757 14.6148 4.73368 15.2168L4.89195 15.6911ZM2.79062 16.9322C3.29154 16.3906 4.03501 15.9771 4.89195 15.6911L4.73368 15.2168C3.82998 15.5184 3.00136 15.9679 2.42355 16.5927L2.79062 16.9322ZM1.97681 19.175C1.97681 18.1327 2.29447 17.4686 2.79062 16.9322L2.42354 16.5927C1.84097 17.2226 1.47681 18.0083 1.47681 19.175H1.97681ZM0.863406 20.2705C1.46909 20.2705 1.96334 19.7861 1.97675 19.1806L1.47687 19.1695C1.46947 19.5038 1.19673 19.7705 0.863406 19.7705V20.2705ZM-0.249939 19.1806C-0.236523 19.7861 0.257725 20.2705 0.863406 20.2705V19.7705C0.530086 19.7705 0.257346 19.5038 0.249939 19.1695L-0.249939 19.1806ZM1.15541 15.4193C0.30236 16.3417 -0.250004 17.6243 -0.25 19.175H0.25C0.249996 17.7483 0.756135 16.5874 1.52249 15.7588L1.15541 15.4193ZM4.18562 13.5775C3.09958 13.9399 2.00341 14.5024 1.15541 15.4193L1.52249 15.7588C2.29391 14.9247 3.30524 14.3984 4.34389 14.0518L4.18562 13.5775ZM9.43535 12.8757C8.52637 12.8752 6.29863 12.8726 4.18565 13.5775L4.34387 14.0518C6.37148 13.3754 8.52489 13.3752 9.43506 13.3757L9.43535 12.8757Z" fill="black"/>
</svg>
