<svg width="81" height="58" viewBox="0 0 81 58" fill="none" xmlns="http://www.w3.org/2000/svg">
<path d="M17.7767 54.5137C27.579 55.0274 35.9588 47.716 36.4567 38.2155C36.6948 33.6724 35.1109 29.2908 31.9971 25.8778C28.8901 22.4725 24.6096 20.4126 19.9435 20.0774L19.808 20.0669C18.1729 19.9333 16.7482 21.1204 16.6225 22.7036C16.4967 24.2868 17.7192 25.6732 19.3529 25.8003L19.5166 25.8129C25.9155 26.2686 30.8566 31.6934 30.531 37.9049C30.1991 44.2386 24.6126 49.1129 18.0777 48.7704C11.5429 48.4279 6.49648 42.9964 6.82842 36.6627C7.24302 28.7516 9.56684 21.5534 13.7358 15.2677C16.8515 10.5697 19.8958 8.16139 19.9527 8.11685C21.2281 7.1308 21.4376 5.32653 20.4193 4.0829C19.8674 3.40911 19.0679 3.03765 18.2473 2.99464C17.5509 2.95829 16.8391 3.15826 16.2507 3.61046C16.101 3.72557 12.5426 6.48988 8.8983 11.912C5.5759 16.8548 1.49208 25.1074 0.902763 36.3522C0.404854 45.8528 7.97453 53.9999 17.7767 54.5137Z" fill="#FBD03A"/>
<path d="M60.015 54.542C69.8172 55.0557 78.1971 47.7444 78.695 38.2437C78.9331 33.7007 77.3492 29.3191 74.2354 25.9058C71.1284 22.5004 66.8479 20.4407 62.1818 20.1053L62.0463 20.0949C60.4148 19.9614 58.9864 21.1484 58.8608 22.7316C58.735 24.3148 59.9575 25.7011 61.5912 25.8282L61.7549 25.8408C68.1538 26.2968 73.0948 31.7217 72.7693 37.9332C72.4374 44.2669 66.8508 49.1412 60.316 48.7987C53.7812 48.4562 48.7348 43.0247 49.0667 36.691C49.4813 28.7799 51.8051 21.5816 55.9741 15.2961C59.0898 10.598 62.1341 8.18972 62.1909 8.14519C63.4665 7.15899 63.6759 5.35485 62.6575 4.11123C62.1057 3.43728 61.3062 3.06597 60.4856 3.02297C59.7892 2.98647 59.0774 3.18644 58.4888 3.63863C58.3393 3.75375 54.7808 6.51806 51.1364 11.9402C47.8142 16.883 43.7304 25.1355 43.141 36.3804C42.6431 45.8811 50.2128 54.0283 60.015 54.542Z" fill="#FBD03A"/>
</svg>
