<svg width="25" height="26" viewBox="0 0 25 26" fill="none" xmlns="http://www.w3.org/2000/svg">
<path fill-rule="evenodd" clip-rule="evenodd" d="M14.1139 20.9702C14.6747 21.4807 14.9529 22.2267 14.8615 22.9749C14.7702 23.723 14.3204 24.3821 13.6528 24.7462C12.7593 25.2357 11.649 25.1045 10.8974 24.4207L7.4833 21.3174C6.79442 20.709 5.79394 20.5919 4.98035 21.0244C4.47089 21.3038 3.86997 21.3716 3.30992 21.2129C2.74987 21.0541 2.27662 20.6819 1.99438 20.1781L0.413578 17.3569C-0.0104254 16.6016 -0.113303 15.7106 0.127602 14.8803C0.368506 14.0499 0.933435 13.3483 1.69798 12.9298L8.93237 8.98022C9.48101 8.67725 9.93049 8.22544 10.2278 7.67814L14.059 0.874795C14.3498 0.359439 14.9001 0.0400391 15.4971 0.0400391C16.0941 0.0400391 16.6444 0.359439 16.9352 0.874795L24.7953 14.9264C25.0963 15.4658 25.0633 16.127 24.7101 16.6346C24.3569 17.1422 23.744 17.4091 23.1267 17.3244L15.0909 16.2393C14.3831 16.1424 13.6625 16.2757 13.0381 16.6191L12.0501 17.1616C11.7463 17.3318 11.5427 17.6348 11.5015 17.9775C11.4603 18.3202 11.5865 18.6619 11.8415 18.8977L14.1139 20.9702Z" fill="#9C30FF"/>
</svg>
