<svg width="26" height="31" viewBox="0 0 26 31" fill="none" xmlns="http://www.w3.org/2000/svg">
<path fill-rule="evenodd" clip-rule="evenodd" d="M23.2995 4.68577C23.955 4.91527 24.393 5.53327 24.393 6.22777V16.3873C24.393 19.2268 23.361 21.9373 21.5385 24.0373C20.622 25.0948 19.4625 25.9183 18.231 26.5843L12.894 29.4673L7.54795 26.5828C6.31495 25.9168 5.15395 25.0948 4.23595 24.0358C2.41195 21.9358 1.37695 19.2238 1.37695 16.3813V6.22777C1.37695 5.53327 1.81495 4.91527 2.47045 4.68577L12.3435 1.21627C12.6945 1.09327 13.077 1.09327 13.4265 1.21627L23.2995 4.68577Z" stroke="#FF3294" stroke-width="1.5" stroke-linecap="round" stroke-linejoin="round"/>
<path opacity="0.4" d="M8.98633 14.8766L11.8243 17.7161L17.6713 11.8691" stroke="#FF3294" stroke-width="1.5" stroke-linecap="round" stroke-linejoin="round"/>
</svg>
