<svg width="70" height="66" viewBox="0 0 70 66" fill="none" xmlns="http://www.w3.org/2000/svg">
<path d="M30.8812 65.8823H2.05996C0.922155 65.8823 0 64.9607 0 63.8235C0 62.6863 0.922155 61.7646 2.05996 61.7646H30.8812C32.019 61.7646 32.9412 62.6863 32.9412 63.8235C32.9412 64.9607 32.019 65.8823 30.8812 65.8823Z" fill="#DCDCDC"/>
<path d="M42.3459 59.7061C41.8547 59.7061 41.3636 59.5192 40.9893 59.144L35.5618 53.7169C34.8127 52.9673 34.8127 51.7526 35.5618 51.0036C36.3113 50.254 37.526 50.254 38.2755 51.0036L43.7026 56.4307C44.4521 57.1802 44.4521 58.3949 43.7026 59.144C43.3278 59.5192 42.8371 59.7061 42.3459 59.7061Z" fill="#FFCEBF"/>
<path fill-rule="evenodd" clip-rule="evenodd" d="M33.632 40.5733C34.0234 40.9674 34.547 41.1765 35.0802 41.1765C35.3441 41.1765 35.6101 41.125 35.8629 41.0199C36.628 40.7009 37.1271 39.9503 37.1271 39.1176V32.9412H43.2694C46.6562 32.9412 49.4118 30.1703 49.4118 26.7647V6.17647C49.4118 2.77083 46.6562 0 43.2694 0H6.14235C2.75552 0 0 2.77083 0 6.17647V26.7647C0 30.1703 2.75552 32.9412 6.14235 32.9412H26.0415L33.632 40.5733ZM4.0949 6.17647C4.0949 5.04144 5.01358 4.11765 6.14235 4.11765H43.2694C44.3982 4.11765 45.3169 5.04144 45.3169 6.17647V26.7647C45.3169 27.8997 44.3982 28.8235 43.2694 28.8235H35.0796C33.9487 28.8235 33.0322 29.7452 33.0322 30.8824V34.147L28.3374 29.4267C27.9535 29.0407 27.4326 28.8235 26.8898 28.8235H6.14235C5.01358 28.8235 4.0949 27.8997 4.0949 26.7647V6.17647Z" fill="#FFD400"/>
<path d="M12.311 20.5049C10.0636 20.5049 8.23535 18.6917 8.23535 16.4626C8.23535 14.2336 10.0636 12.4204 12.311 12.4204C14.5584 12.4204 16.3866 14.2336 16.3866 16.4626C16.3866 18.6917 14.5584 20.5049 12.311 20.5049Z" fill="#00DDC1"/>
<path d="M24.81 20.5049C22.5626 20.5049 20.7344 18.6917 20.7344 16.4626C20.7344 14.2336 22.5626 12.4204 24.81 12.4204C27.0575 12.4204 28.8857 14.2336 28.8857 16.4626C28.8857 18.6917 27.0575 20.5049 24.81 20.5049Z" fill="#00DDC1"/>
<path d="M37.0366 20.5049C34.7891 20.5049 32.9609 18.6917 32.9609 16.4626C32.9609 14.2336 34.7891 12.4204 37.0366 12.4204C39.284 12.4204 41.1122 14.2336 41.1122 16.4626C41.1122 18.6917 39.284 20.5049 37.0366 20.5049Z" fill="#00DDC1"/>
<path fill-rule="evenodd" clip-rule="evenodd" d="M29.4265 65.2787C29.8225 65.6741 30.3494 65.8823 30.8843 65.8823C31.1971 65.8823 31.5121 65.8109 31.805 65.6644L43.4599 59.837C43.6579 59.7378 43.8387 59.6074 43.9954 59.4507L69.3961 34.0508C70.2009 33.246 70.2009 31.9416 69.3961 31.1368L63.5686 25.3094C62.7638 24.5046 61.4595 24.5046 60.6552 25.3094L35.2539 50.7099C35.0973 50.8666 34.9669 51.0474 34.8682 51.2454L29.0407 62.9002C28.6442 63.6937 28.7998 64.6515 29.4265 65.2787ZM35.4906 59.2147L38.4046 53.3873L62.1119 29.6796L65.0254 32.5935L41.318 56.3007L35.4906 59.2147Z" fill="#FF3636"/>
</svg>
