<svg width="36" height="32" viewBox="0 0 36 32" fill="none" xmlns="http://www.w3.org/2000/svg">
<path fill-rule="evenodd" clip-rule="evenodd" d="M35.8564 23.6738C37.1553 29.4501 29.3527 33.5997 24.1708 31.4022C10.4536 25.585 22.7113 5.3989 31.0175 0.211689C32.4414 -0.677422 33.7653 1.46655 32.3536 2.34778C28.576 4.70755 25.7342 8.6902 23.7528 12.4373C22.5704 14.6733 21.3611 17.3863 20.9525 20.0927C22.9282 18.1989 25.6283 16.9972 28.5626 17.5021C31.9532 18.0852 35.1272 20.4314 35.8564 23.6738ZM29.2114 20.1865C25.878 19.2852 23.1129 20.8663 21.4434 23.5514C21.4312 23.571 21.4172 23.587 21.4033 23.603C21.3943 23.6133 21.3853 23.6235 21.3768 23.6348C21.38 24.1868 21.3899 24.7379 21.4265 25.2882C23.2289 29.7023 30.3729 31.4862 32.8574 26.5045C34.1666 23.8796 32.0597 20.9565 29.2114 20.1865Z" fill="white"/>
<path fill-rule="evenodd" clip-rule="evenodd" d="M17.8564 23.6738C19.1551 29.4501 11.3529 33.5997 6.17105 31.4022C-7.54663 25.585 4.71135 5.3989 13.0177 0.211689C14.4413 -0.677422 15.7656 1.46655 14.3538 2.34778C10.5756 4.70755 7.73432 8.6902 5.75294 12.4373C4.57 14.6733 3.36156 17.3863 2.95282 20.0927C4.92826 18.1989 7.62824 16.9972 10.5625 17.5021C13.9531 18.0852 17.1276 20.4314 17.8564 23.6738ZM11.2112 20.1865C7.87792 19.2852 5.11257 20.8663 3.44314 23.5514C3.43765 23.5607 3.43106 23.568 3.42443 23.5754C3.41966 23.5807 3.41487 23.586 3.41046 23.5921C3.42024 24.3695 3.49029 25.118 3.69867 25.8563C5.8545 29.8447 12.4825 31.2661 14.8569 26.5045C16.1663 23.8796 14.0593 20.9565 11.2112 20.1865Z" fill="white"/>
</svg>
