<svg width="27" height="25" viewBox="0 0 27 25" fill="none" xmlns="http://www.w3.org/2000/svg">
<path fill-rule="evenodd" clip-rule="evenodd" d="M26.6457 7.86344L22.3927 1.09506C21.9636 0.412432 21.2105 -0.00160618 20.4009 4.68331e-06H6.59909C5.78948 -0.00160618 5.0364 0.412432 4.60731 1.09506L0.354287 7.86344C-0.186868 8.72731 -0.10148 9.84046 0.565181 10.6127L12.6096 24.5922C12.8322 24.851 13.1575 25 13.5 25C13.8425 25 14.1678 24.851 14.3904 24.5922L26.4348 10.6127C27.1015 9.84046 27.1869 8.72731 26.6457 7.86344ZM14.5326 22.7251C14.2785 22.929 13.9516 23.0258 13.6242 22.9941C13.2968 22.9624 12.9958 22.8048 12.7877 22.5561L7.28085 15.9763C6.84686 15.4595 6.92443 14.6974 7.4541 14.274C7.98378 13.8506 8.76498 13.9263 9.19898 14.443L14.7058 21.0228C14.9227 21.272 15.0268 21.5964 14.9941 21.9218C14.9615 22.2472 14.7949 22.5458 14.5326 22.7492V22.7251Z" fill="#FF7D02"/>
</svg>
