<svg width="175" height="175" viewBox="0 0 175 175" fill="none" xmlns="http://www.w3.org/2000/svg">
<path d="M56.8044 144.727C11.0696 139.304 27.0307 80.3709 65.7058 91.0116C70.8215 35.557 147.353 42.719 144.284 97.1505C174.773 89.3746 190.121 135.416 153.594 144.318L56.8044 144.727Z" fill="#E9E9E9"/>
<path d="M44.2209 139.611C39.6031 139.61 35.0588 138.455 31.0004 136.252C26.9421 134.049 23.4983 130.867 20.9816 126.995C18.4649 123.123 16.9551 118.684 16.5892 114.081C16.2232 109.478 17.0128 104.856 18.8861 100.635C20.7595 96.4146 23.6573 92.7286 27.3166 89.9119C30.9758 87.0952 35.2806 85.2371 39.8402 84.5061C44.3998 83.7751 49.0697 84.1945 53.4261 85.7262C57.7824 87.2578 61.6873 89.8532 64.7861 93.2768" stroke="#0E0E0E" stroke-width="2" stroke-linecap="round" stroke-linejoin="round"/>
<path d="M53.2246 85.6913C53.2246 63.8798 70.9067 47.2209 92.7181 47.2209C114.53 47.2209 132.212 64.903 132.212 86.7145C132.216 90.812 131.582 94.8851 130.333 98.7876" stroke="#0E0E0E" stroke-width="2" stroke-linecap="round" stroke-linejoin="round"/>
<path d="M131.877 91.8568C135.211 90.9504 138.701 90.767 142.112 91.3189C145.523 91.8708 148.776 93.1452 151.655 95.0568C154.533 96.9684 156.97 99.473 158.801 102.403C160.633 105.333 161.817 108.62 162.275 112.045C162.733 115.47 162.454 118.953 161.456 122.261C160.458 125.569 158.765 128.626 156.49 131.226C154.215 133.827 151.41 135.911 148.264 137.34C145.118 138.768 141.702 139.508 138.247 139.509" stroke="#0E0E0E" stroke-width="2" stroke-linecap="round" stroke-linejoin="round"/>
<path d="M44.2207 139.509H138.35" stroke="#0E0E0E" stroke-width="3" stroke-linecap="round" stroke-linejoin="round"/>
<path d="M92.617 162.112C101.546 162.112 108.785 154.874 108.785 145.944C108.785 137.015 101.546 129.777 92.617 129.777C83.6878 129.777 76.4492 137.015 76.4492 145.944C76.4492 154.874 83.6878 162.112 92.617 162.112Z" fill="#FF3294"/>
<path d="M92.9666 162.057C101.896 162.057 109.134 154.818 109.134 145.889C109.134 136.96 101.896 129.721 92.9666 129.721C84.0374 129.721 76.7988 136.96 76.7988 145.889C76.7988 154.818 84.0374 162.057 92.9666 162.057Z" stroke="white" stroke-width="4" stroke-linecap="round" stroke-linejoin="round"/>
<path d="M92.9727 151.422V141.596" stroke="#0E0E0E" stroke-width="2" stroke-linecap="round" stroke-linejoin="round"/>
<path d="M89.0527 145.359L92.8691 140.076L96.8307 145.359" stroke="#0E0E0E" stroke-width="2" stroke-linecap="round" stroke-linejoin="round"/>
<path d="M73.1754 111.065C76.9614 111.065 80.0305 107.996 80.0305 104.21C80.0305 100.424 76.9614 97.3551 73.1754 97.3551C69.3894 97.3551 66.3203 100.424 66.3203 104.21C66.3203 107.996 69.3894 111.065 73.1754 111.065Z" fill="#0E0E0E"/>
<path d="M75.63 103.392C75.856 103.392 76.0392 103.209 76.0392 102.983C76.0392 102.756 75.856 102.573 75.63 102.573C75.4039 102.573 75.2207 102.756 75.2207 102.983C75.2207 103.209 75.4039 103.392 75.63 103.392Z" fill="white"/>
<path d="M108.781 111.065C112.567 111.065 115.636 107.996 115.636 104.21C115.636 100.424 112.567 97.3551 108.781 97.3551C104.995 97.3551 101.926 100.424 101.926 104.21C101.926 107.996 104.995 111.065 108.781 111.065Z" fill="#0E0E0E"/>
<path d="M112.668 101.55C113.12 101.55 113.487 101.184 113.487 100.732C113.487 100.28 113.12 99.9131 112.668 99.9131C112.216 99.9131 111.85 100.28 111.85 100.732C111.85 101.184 112.216 101.55 112.668 101.55Z" fill="white"/>
<path d="M83.2031 121.194C89.0637 124.878 95.0716 125.001 101.211 121.194" stroke="#0E0E0E" stroke-width="3" stroke-linecap="round" stroke-linejoin="round"/>
<path d="M32.7532 77.3014C41.7943 77.3014 49.1235 69.9721 49.1235 60.931C49.1235 51.8899 41.7943 44.5607 32.7532 44.5607C23.7121 44.5607 16.3828 51.8899 16.3828 60.931C16.3828 69.9721 23.7121 77.3014 32.7532 77.3014Z" stroke="#0E0E0E" stroke-width="2" stroke-linecap="round" stroke-linejoin="round"/>
<path d="M25.2148 60.9454L31.3987 66.763L40.2899 55.2014" stroke="#0E0E0E" stroke-width="2" stroke-linecap="round" stroke-linejoin="round"/>
<path d="M142.749 22.87C145.179 22.87 147.149 20.9003 147.149 18.4705C147.149 16.0407 145.179 14.0709 142.749 14.0709C140.319 14.0709 138.35 16.0407 138.35 18.4705C138.35 20.9003 140.319 22.87 142.749 22.87Z" fill="#BCBCBC"/>
<path d="M144.387 33.4084C145.291 33.4084 146.024 32.6754 146.024 31.7713C146.024 30.8672 145.291 30.1343 144.387 30.1343C143.483 30.1343 142.75 30.8672 142.75 31.7713C142.75 32.6754 143.483 33.4084 144.387 33.4084Z" fill="#BCBCBC"/>
<path d="M129.756 28.7019C131.96 28.7019 133.746 26.9154 133.746 24.7116C133.746 22.5078 131.96 20.7213 129.756 20.7213C127.552 20.7213 125.766 22.5078 125.766 24.7116C125.766 26.9154 127.552 28.7019 129.756 28.7019Z" fill="#BCBCBC"/>
<path d="M23.7568 163.144C25.7345 163.144 27.3378 161.54 27.3378 159.563C27.3378 157.585 25.7345 155.982 23.7568 155.982C21.7791 155.982 20.1758 157.585 20.1758 159.563C20.1758 161.54 21.7791 163.144 23.7568 163.144Z" fill="#BCBCBC"/>
<path d="M15.0597 174.603C18.2241 174.603 20.7893 172.038 20.7893 168.873C20.7893 165.709 18.2241 163.144 15.0597 163.144C11.8953 163.144 9.33008 165.709 9.33008 168.873C9.33008 172.038 11.8953 174.603 15.0597 174.603Z" fill="#BCBCBC"/>
<path d="M138.248 8.8528L133.746 4.35095" stroke="#0E0E0E" stroke-width="3" stroke-linecap="round" stroke-linejoin="round"/>
<path d="M144.387 8.44358L146.024 2.30469" stroke="#0E0E0E" stroke-width="3" stroke-linecap="round" stroke-linejoin="round"/>
<path d="M149.605 10.5922L152.266 9.56909" stroke="#0E0E0E" stroke-width="3" stroke-linecap="round" stroke-linejoin="round"/>
<path d="M13.3212 48.858L1.24805 44.5608" stroke="#0E0E0E" stroke-width="2" stroke-linecap="round" stroke-linejoin="round"/>
<path d="M25.1888 40.8774L19.3262 22.6388" stroke="#0E0E0E" stroke-width="2" stroke-linecap="round" stroke-linejoin="round"/>
<path d="M42.3789 42.1051L47.29 31.2598" stroke="#0E0E0E" stroke-width="2" stroke-linecap="round" stroke-linejoin="round"/>
</svg>
