<svg width="20" height="20" viewBox="0 0 20 20" fill="none" xmlns="http://www.w3.org/2000/svg">
<path d="M15.8337 7.17249V5.95916C15.8337 4.41206 15.2191 2.92833 14.1251 1.83437C13.0312 0.740406 11.5474 0.125824 10.0003 0.125824C8.45323 0.125824 6.9695 0.740406 5.87554 1.83437C4.78157 2.92833 4.16699 4.41206 4.16699 5.95916V7.17249C3.41528 7.5561 2.78407 8.13981 2.34295 8.85928C1.90182 9.57875 1.66791 10.4061 1.66699 11.25V15.4167C1.66832 16.6318 2.15163 17.7968 3.01088 18.6561C3.87014 19.5154 5.03516 19.9987 6.25033 20H13.7503C14.9655 19.9987 16.1305 19.5154 16.9898 18.6561C17.849 17.7968 18.3323 16.6318 18.3337 15.4167V11.25C18.3327 10.4061 18.0988 9.57875 17.6577 8.85928C17.2166 8.13981 16.5854 7.5561 15.8337 7.17249ZM10.0003 2.62582C10.8844 2.62582 11.7322 2.97701 12.3573 3.60213C12.9825 4.22726 13.3337 5.0751 13.3337 5.95916V6.66666H6.66699V5.95916C6.66699 5.0751 7.01818 4.22726 7.6433 3.60213C8.26842 2.97701 9.11627 2.62582 10.0003 2.62582ZM15.8337 15.4167C15.8337 15.9692 15.6142 16.4991 15.2235 16.8898C14.8328 17.2805 14.3029 17.5 13.7503 17.5H6.25033C5.69779 17.5 5.16789 17.2805 4.77719 16.8898C4.38649 16.4991 4.16699 15.9692 4.16699 15.4167V11.25C4.16699 10.6975 4.38649 10.1676 4.77719 9.77685C5.16789 9.38615 5.69779 9.16666 6.25033 9.16666H13.7503C14.3029 9.16666 14.8328 9.38615 15.2235 9.77685C15.6142 10.1676 15.8337 10.6975 15.8337 11.25V15.4167Z" fill="black"/>
<path d="M10.4163 11.6667H9.58301C8.89265 11.6667 8.33301 12.2263 8.33301 12.9167C8.33301 13.607 8.89265 14.1667 9.58301 14.1667H10.4163C11.1067 14.1667 11.6663 13.607 11.6663 12.9167C11.6663 12.2263 11.1067 11.6667 10.4163 11.6667Z" fill="black"/>
</svg>
